<svg id="Layer_1" data-name="Layer 1" xmlns="http://www.w3.org/2000/svg" viewBox="0 0 383.3 383.31"><defs><style>.cls-1{fill:#fff;stroke:#ffbe6b;stroke-miterlimit:10;stroke-width:13px;}</style></defs><title>icon_paarberatung</title><path class="cls-1" d="M1054.09,428.85a115.12,115.12,0,0,0-113.85-99.09h-80.7A49.17,49.17,0,1,0,775,379.67h-4.69a26.89,26.89,0,0,0-26.57,30.89L755,485.49a27,27,0,0,0,26.57,22.92H850a27,27,0,0,0,26.57-22.92l11.21-74.93a26.89,26.89,0,0,0-26.57-30.89h-4.69A48.9,48.9,0,0,0,865,352.18c0-.24,0-.48,0-.72h75.29a93.4,93.4,0,0,1,91.89,77.39h-25.41L1042.89,465l36.16-36.16ZM815.79,324.7a27.48,27.48,0,1,1-27.48,27.48A27.52,27.52,0,0,1,815.79,324.7Zm13.94,76.67L815.79,443.7l-13.94-42.33Zm31.52,0a5.09,5.09,0,0,1,3.9,1.79,5.17,5.17,0,0,1,1.21,4.19l-11.21,74.93a5.15,5.15,0,0,1-5.11,4.43h-68.5a5.15,5.15,0,0,1-5.11-4.43l-11.21-74.93a5.17,5.17,0,0,1,1.21-4.19,5.09,5.09,0,0,1,3.9-1.79H779l21.43,65.09h30.7l21.43-65.09h8.68Z" transform="translate(-736.96 -296.5)"/><path class="cls-1" d="M1107.24,553.9a26.83,26.83,0,0,0-20.34-9.33h-4.69a49.18,49.18,0,1,0-81.53,0H996a26.89,26.89,0,0,0-26.57,30.89l7.39,49.39H917A93.4,93.4,0,0,1,824.86,546h24.2l-36.16-36.16L776.73,546h26.22A115.12,115.12,0,0,0,917,646.55h63.06l.57,3.84a27,27,0,0,0,26.57,22.92h68.5a27,27,0,0,0,26.57-22.92l11.21-74.93A26.91,26.91,0,0,0,1107.24,553.9Zm-65.8-64.3A27.48,27.48,0,1,1,1014,517.08,27.52,27.52,0,0,1,1041.44,489.6Zm13.94,76.67-13.94,42.33-13.94-42.33Zm36.63,6-11.21,74.93a5.15,5.15,0,0,1-5.11,4.43h-68.5a5.15,5.15,0,0,1-5.11-4.43l-11.21-74.93a5.17,5.17,0,0,1,1.21-4.19,5.09,5.09,0,0,1,3.9-1.79h8.68l21.43,65.09h30.7l21.43-65.09h8.68a5.09,5.09,0,0,1,3.9,1.79A5.17,5.17,0,0,1,1092,572.25Z" transform="translate(-736.96 -296.5)"/></svg>