<svg id="Layer_1" data-name="Layer 1" xmlns="http://www.w3.org/2000/svg" viewBox="0 0 331 331"><defs><style>.cls-1{fill:#fff;stroke:#f49cae;stroke-miterlimit:10;stroke-width:4px;}</style></defs><title>icon_sprechstunde</title><path class="cls-1" d="M532.52,618.89l-5.37-2.15a163.5,163.5,0,0,0,13.53-201.21,5.12,5.12,0,0,0-.82-1.17,164,164,0,0,0-28.49-31.44,5.16,5.16,0,0,0-6.69,7.87,153.75,153.75,0,0,1,23.37,24.85,227.75,227.75,0,0,1-38.69,10.75A184.46,184.46,0,0,0,474.51,393c-7.87-13.66-16.93-24.66-26.8-32.74a152.28,152.28,0,0,1,43.42,20.27,5.16,5.16,0,1,0,5.78-8.56,163.5,163.5,0,0,0-213,244.87l-5.3,2.08c-2,.71-18.57,7.33-18.57,28.45v18.5A5.17,5.17,0,0,0,265.2,671h76a4.64,4.64,0,0,1,1.46,0h21a5.16,5.16,0,1,0,0-10.33H347.83v-18c0-19,14.9-24.43,15.5-24.64l.24-.09,25.14-9.85.16.18,13.36,13a5.17,5.17,0,0,0,3.6,1.46h.08a5.16,5.16,0,0,0,3.64-1.58l12.83-13.31L447.5,618l.24.09c.63.22,15.54,5.68,15.54,24.65v18H379.81a5.16,5.16,0,1,0,0,10.33H545.9a5.19,5.19,0,0,0,5.16-5.2V647.33C551.07,626.29,534.58,619.63,532.52,618.89Zm-15.62-6.26-5.09-2v-2.94a27,27,0,0,0,12-14.88,14.58,14.58,0,0,0,8.07-25.85v-9.18a34.84,34.84,0,0,0-30.39-34.51c.19-3.5.33-7,.39-10.56h56.69A152.45,152.45,0,0,1,516.9,612.62ZM498.26,601h-4.71A16.56,16.56,0,0,1,477,584.45V570.79h0c6.73-.73,18.64-3.08,27.82-10.75a23.22,23.22,0,0,0,10,9.57v14.84A16.56,16.56,0,0,1,498.26,601Zm3.23,10.13V614l-5.75,6-5.41-5.26v-3.57a27,27,0,0,0,3.23.2h4.71A26.88,26.88,0,0,0,501.49,611.12ZM471.86,560.8h0l-.53,0-.17,0-.35.05-.23.06-.26.07-.16.06v-3.37a24.5,24.5,0,0,1,24.47-24.47h2.47a24.49,24.49,0,0,1,24.47,24.47v3.32l-.3-.08-.14,0c-7.2-1.64-9.55-11.24-9.57-11.32a5.16,5.16,0,0,0-9.22-1.89C493,560.65,472.13,560.8,471.86,560.8Zm53.27,20.89v-7a4.26,4.26,0,0,1,0,7Zm9-157.38a152.9,152.9,0,0,1,24.46,78H501.88a260.61,260.61,0,0,0-9.46-66.07C508.3,433.11,522.45,429.08,534.12,424.31Zm-42.56,78H438.7a42.14,42.14,0,0,0-28-13.79v-44.4a465.52,465.52,0,0,0,71.57-6A249.62,249.62,0,0,1,491.56,502.34ZM446,556.25a6.65,6.65,0,0,1-4.84,6.38V549.87A6.65,6.65,0,0,1,446,556.25ZM410.66,354.61c20.55,2.19,39.88,17.44,54.9,43.51a173.16,173.16,0,0,1,13.53,30.09,457.52,457.52,0,0,1-68.44,5.61V354.61Zm-3.27,144.12a31.93,31.93,0,0,1,31.89,31.9v6.31l-.11-.08-.23-.17-.19-.12-.23-.14-.22-.12-.22-.11-.28-.11-.19-.07-.32-.09-.14,0c-9.81-2.23-12.92-15-12.94-15.13a5.16,5.16,0,0,0-9.22-1.89c-12.09,16.72-38.8,16.89-39.15,16.89h0l-.53,0-.16,0-.35.05-.22.06-.28.07-.25.09-.23.08-.27.13-.18.08-.27.16-.16.1-.24.18-.16.12-.14.12v-6.44a31.93,31.93,0,0,1,31.89-31.9h3.09Zm-87.95,3.6a249.63,249.63,0,0,1,9.33-64.22,466,466,0,0,0,71.57,6V488.6A42.15,42.15,0,0,0,373,502.37a5.29,5.29,0,0,0-.57,0H319.44Zm51.22,47.48v12.88a6.63,6.63,0,0,1,0-12.88Zm29.68-195.2v79.21a457.79,457.79,0,0,1-68.43-5.63,173.24,173.24,0,0,1,13.53-30.08C360.46,372.05,379.79,356.81,400.34,354.61Zm-37.11,5.65c-9.85,8.09-18.88,19.07-26.74,32.7a184.45,184.45,0,0,0-14.85,33.4A228.24,228.24,0,0,1,283,415.64,153.68,153.68,0,0,1,363.23,360.26Zm-86.3,64.07c11.63,4.75,25.79,8.77,41.65,11.92a260.58,260.58,0,0,0-9.46,66.08H252.42A152.21,152.21,0,0,1,276.93,424.34ZM310.2,611.12a27,27,0,0,0,3.23.2h4.71a26.86,26.86,0,0,0,3.22-.2V614l-5.75,6-5.41-5.26ZM318.13,601h-4.71a16.56,16.56,0,0,1-16.55-16.54V570.8c6.72-.73,18.63-3.08,27.82-10.75a23.23,23.23,0,0,0,10,9.57v14.84A16.56,16.56,0,0,1,318.13,601Zm13.29-51.38a5.16,5.16,0,0,0-9.22-1.89c-9.36,12.93-30.22,13.07-30.47,13.07h0l-.53,0-.16,0-.35.05-.22.06-.28.07-.16.06v-3.37a24.5,24.5,0,0,1,24.47-24.47H317a24.5,24.5,0,0,1,24.47,24.47v3.32h0l-.3-.08-.14,0C333.79,559.29,331.44,549.68,331.42,549.61Zm-79-36.95h56.69c.06,3.56.2,7.11.4,10.63a34.84,34.84,0,0,0-29.82,34.43v9.14a14.58,14.58,0,0,0,8.18,25.9,27,27,0,0,0,12,14.88v2.91l-5.64,2.21A152.38,152.38,0,0,1,252.42,512.66Zm34.13,62v7.19a4.26,4.26,0,0,1,0-7.19Zm51,68.07v18H270.37V647.33c0-14.4,11.25-18.57,11.69-18.72l.24-.09,19.47-7.63L312.12,631a5.16,5.16,0,0,0,3.6,1.46h.08a5.16,5.16,0,0,0,3.64-1.58l9.77-10.14,12.08,4.84A38.56,38.56,0,0,0,337.5,642.69Zm49.82-45.12-27.4,10.73a32.92,32.92,0,0,0-12.6,8.54l-15.63-6.27v-2.94a27,27,0,0,0,12-14.89,14.58,14.58,0,0,0,8.07-25.85v-9.18a34.83,34.83,0,0,0-31.91-34.67c-.2-3.44-.33-6.92-.4-10.4H366.1a42,42,0,0,0-4,18v12A17,17,0,0,0,372,573.21a32.45,32.45,0,0,0,15.33,19.1v5.27ZM345,581.69v-7a4.26,4.26,0,0,1,0,7Zm69.18,19.49v.33l-8.46,8.78-8.08-7.87v-6.5a32.34,32.34,0,0,0,5.33.45h5.89a32.47,32.47,0,0,0,5.33-.45ZM408.86,586H403a22,22,0,0,1-22-22V545.83c8.24-.76,24.53-3.62,36.44-14.31,2.51,4.75,6.72,10.27,13.42,13.13v19.4A22,22,0,0,1,408.86,586Zm55,30.84a33,33,0,0,0-12.62-8.57l-26.7-10.71v-5.3a32.45,32.45,0,0,0,15.33-19.1,17,17,0,0,0,9.77-30.47v-12.1a42,42,0,0,0-4-18h46c-.07,3.49-.2,7-.4,10.44a34.84,34.84,0,0,0-31.33,34.62v9.14a14.58,14.58,0,0,0,8.18,25.9,27,27,0,0,0,12,14.88v2.91Zm2.85-42.26v7.19a4.26,4.26,0,0,1,0-7.19Zm74.06,86.05H473.61v-18a38.56,38.56,0,0,0-3.76-17.08l12.06-4.72L492.25,631a5.16,5.16,0,0,0,3.6,1.47h.08a5.16,5.16,0,0,0,3.64-1.58l9.77-10.14,19.43,7.79.24.09c.48.17,11.73,4.34,11.73,18.74v13.34Z" transform="translate(-240 -342)"/></svg>