<svg id="Layer_1" data-name="Layer 1" xmlns="http://www.w3.org/2000/svg" viewBox="0 0 330.9 330.91"><defs><style>.cls-1,.cls-9{fill:#f45b7a;}.cls-1{opacity:0.5;}.cls-2{fill:#ebecec;}.cls-3{fill:#c18d59;}.cls-4{fill:#fed298;}.cls-5{fill:#f0ba7d;}.cls-6{fill:#fea940;}.cls-7{fill:#fff;}.cls-8{fill:#d9dada;}.cls-10{fill:#fefefe;}</style></defs><title>img_soc</title><circle class="cls-1" cx="165.45" cy="165.45" r="165.45"/><path class="cls-2" d="M487,1290H760a165.47,165.47,0,0,1-273,0Z" transform="translate(-458.05 -1031.05)"/><path class="cls-3" d="M627.63,1188.81c-9-22.62-27.8-43.09-4.1-84.33,9.76-17,24.67-28.19,40.08-24.39,15.4-3.79,30.31,7.41,40.08,24.39,23.7,41.24,4.86,61.71-4.1,84.33l-36,.09-36-.09Z" transform="translate(-458.05 -1031.05)"/><path class="cls-4" d="M603,1224.18c-1,1.64-3.41,14.44-6.16,25.54a115.84,115.84,0,0,0,133.36,0c-2.75-11.1-5.14-23.9-6.16-25.54-17.28-27.89-43.9-15.72-45.72-47.63,0,0-8.57,6.39-15.1,6.45s-14.51-6-14.51-6c-1.81,31.89-28.44,19.36-45.71,47.23Z" transform="translate(-458.05 -1031.05)"/><path class="cls-5" d="M678.81,1181.05c-.21-1.4-.37-2.89-.46-4.51,0,0-8.57,6.39-15.1,6.45s-14.51-6-14.51-6c-.09,1.64-.25,3.16-.48,4.58l.5.4v0c.5.44,8.16,7,14.48,7s14-6.52,14.48-7v0c.37-.29.73-.58,1.09-.87Z" transform="translate(-458.05 -1031.05)"/><path class="cls-4" d="M648.76,1177c.5.38,8.16,6.08,14.48,6s14-5.65,14.48-6c9.56-5.57,17.4-22,15.63-39.81-1.45-14.59-17.23,6.8-28.21-23.29-15.55,32.58-30.33,13.31-32,25.66C631.27,1153.13,638.91,1170.24,648.76,1177Z" transform="translate(-458.05 -1031.05)"/><path class="cls-6" d="M636.21,1199.78c-9.41,5-26.64,9-33.18,19.51-.84,1.36-15.29,45.37-20.13,70.69h28.36l7.84-24.3c0,11.12.23,21.56,8,24.3H738.5c-4.93-25.28-13.86-69.2-14.44-70.69-4.35-11-24.49-15.22-33.91-20.28-14.65,53.15-36.49,56.78-53.94.78h0Z" transform="translate(-458.05 -1031.05)"/><path class="cls-7" d="M642.48,1194.5c-.61,16.54,2.2,40,20.75,46-17.47.73-28.8-24.44-41.72-31Z" transform="translate(-458.05 -1031.05)"/><path class="cls-7" d="M685,1194.5c.64,16.54-2.31,40-21.8,46,18.34.73,30.25-24.44,43.81-31Z" transform="translate(-458.05 -1031.05)"/><rect class="cls-8" x="271.17" y="227.5" width="2.48" height="3.2"/><path class="cls-7" d="M487,1290H760q-3.71,5.41-7.83,10.5H494.8q-4.12-5.09-7.83-10.5Z" transform="translate(-458.05 -1031.05)"/><path class="cls-8" d="M494.81,1300.47H752.2a166.4,166.4,0,0,1-16,17.11l-241.43-17.11Z" transform="translate(-458.05 -1031.05)"/><path class="cls-7" d="M730.46,1260.75a19.88,19.88,0,0,1,19.88,19.88H710.58A19.88,19.88,0,0,1,730.46,1260.75Z" transform="translate(-458.05 -1031.05)"/><path class="cls-2" d="M730.46,1260.75a19.88,19.88,0,0,1,19.88,19.88h-2.47C746.45,1263.08,730.46,1260.75,730.46,1260.75Z" transform="translate(-458.05 -1031.05)"/><rect class="cls-8" x="270.41" y="249.58" width="4.02" height="3.23"/><path class="cls-9" d="M710.11,1283.86h40.71a3.07,3.07,0,0,1,3.06,3.06V1290H707v-3.06a3.07,3.07,0,0,1,3.06-3.06Z" transform="translate(-458.05 -1031.05)"/><circle class="cls-2" cx="272.41" cy="225.4" r="3.18"/><path class="cls-7" d="M729.86,1259.57a3.18,3.18,0,1,1,3-3.17A3.18,3.18,0,0,1,729.86,1259.57Z" transform="translate(-458.05 -1031.05)"/><rect class="cls-9" x="96.18" y="254.67" width="144.99" height="4.26"/><path class="cls-10" d="M626.72,1285.72h-70c23.32-4.54,42.64-26.41,70-13.63v13.63Z" transform="translate(-458.05 -1031.05)"/><path class="cls-10" d="M626.72,1285.72h70c-23.32-4.54-42.64-26.41-70-13.63Z" transform="translate(-458.05 -1031.05)"/><path class="cls-2" d="M626.72,1285.71H692.5c-20.15-5.73-40.85-9.92-65.78-2.53Z" transform="translate(-458.05 -1031.05)"/><path class="cls-2" d="M626.72,1285.71H560.94c20.15-5.73,40.85-9.92,65.78-2.53v2.53Z" transform="translate(-458.05 -1031.05)"/><path class="cls-10" d="M709,1260.11l1.27-.19a20.46,20.46,0,1,1,40.48,0l1.27.19a21.74,21.74,0,1,0-43,0Zm6-.9,1.27-.19a14.35,14.35,0,1,1,28.54-2.12,14.25,14.25,0,0,1-.16,2.12l1.27.19a15.66,15.66,0,0,0-4.41-13.36h0a15.62,15.62,0,0,0-22.1,0h0a15.58,15.58,0,0,0-4.58,11,16,16,0,0,0,.17,2.31Zm5.45-.81,1.27-.19a9,9,0,0,1-.1-1.31,8.81,8.81,0,0,1,2.58-6.24h0a8.83,8.83,0,0,1,15.08,6.24,9,9,0,0,1-.1,1.31l1.27.19a10.11,10.11,0,0,0-17.15-8.64h0a10.11,10.11,0,0,0-2.85,8.64Z" transform="translate(-458.05 -1031.05)"/><rect class="cls-7" x="270.41" y="249.58" width="3.05" height="3.23"/><rect class="cls-8" x="270.41" y="249.58" width="3.05" height="0.85"/><path class="cls-7" d="M475,1123.53H577.59c6,0,10.84,3.75,10.84,8.32v118.22c0,4.57-4.89,8.32-10.84,8.32H470q-.5-1.25-1-2.51l-.44-1.17q-.47-1.24-.91-2.49l-.48-1.37q-.41-1.19-.81-2.39-.27-.83-.54-1.66-.33-1-.64-2.07c-.2-.68-.41-1.35-.6-2s-.33-1.16-.5-1.74q-.31-1.1-.6-2.21-.22-.84-.43-1.68-.31-1.21-.59-2.43l-.33-1.45q-.31-1.36-.59-2.72l-.25-1.2q-.3-1.49-.57-3l-.17-1q-.28-1.59-.53-3.19l-.13-.83q-.26-1.74-.49-3.48l-.06-.51q-.23-1.85-.43-3.72l0-.41q-.19-1.89-.34-3.79l0-.35c-.1-1.31-.18-2.63-.25-3.95v-.16q-.1-2.06-.16-4.13v-.07q-.05-2.11-.05-4.24t.05-4.17v-.18q.05-2.07.16-4.13v0q.1-2,.26-4l0-.29q.15-1.94.35-3.88l0-.29q.2-1.92.44-3.83l.05-.4q.24-1.82.51-3.64l.08-.52q.27-1.76.58-3.51l.13-.72q.29-1.61.62-3.21l.18-.9q.32-1.55.67-3.09l.23-1q.34-1.43.7-2.85l.33-1.3q.34-1.31.71-2.61l.37-1.31q.37-1.27.76-2.54l.49-1.58q.34-1.06.69-2.11t.63-1.87q.33-1,.68-1.92t.72-2q.31-.82.62-1.64.44-1.15.91-2.29l.56-1.37q.48-1.15,1-2.3l.6-1.36c.38-.85.76-1.69,1.15-2.53l.43-.93q.61-1.3,1.24-2.58l0,0Z" transform="translate(-458.05 -1031.05)"/><path class="cls-2" d="M524.08,1284.81H483.57q1.65,2.62,3.41,5.17h40.73v-2.58C527.71,1286,526.08,1284.81,524.08,1284.81Z" transform="translate(-458.05 -1031.05)"/><path class="cls-8" d="M527.71,1287.79H485.5l0,0,0,0q.67,1,1.36,2l0,0,0,0,0,0h40.73v-2.19Z" transform="translate(-458.05 -1031.05)"/><path class="cls-8" d="M512.92,1246.29H471.85v16.44A167.48,167.48,0,0,0,487,1290h25.94v-43.68Z" transform="translate(-458.05 -1031.05)"/><path class="cls-2" d="M476.15,1121.18h99.09c6,0,10.84,3.75,10.84,8.32v118.8c0,5.26-3.72,7.73-9.67,7.73H469.09a165.85,165.85,0,0,1,7.06-134.85Z" transform="translate(-458.05 -1031.05)"/></svg>