<?xml version="1.0" encoding="utf-8"?>
<!-- Generator: Adobe Illustrator 21.0.0, SVG Export Plug-In . SVG Version: 6.00 Build 0)  -->
<svg version="1.1" id="Layer_1" xmlns="http://www.w3.org/2000/svg" xmlns:xlink="http://www.w3.org/1999/xlink" x="0px" y="0px"
	 viewBox="0 0 1244.6 103.6" style="enable-background:new 0 0 1244.6 103.6;" xml:space="preserve">
<style type="text/css">
	.st0{enable-background:new    ;}
	.st1{fill:#5EC7CC;}
	.st2{opacity:0.2;enable-background:new    ;}
	.st3{fill:#00B7BA;}
</style>
<title>week_days</title>
<g class="st0">
	<path class="st1" d="M66.1,56.8h-4.5V37.5c0-4-0.6-7-1.9-8.9c-1.3-1.9-3.2-2.9-5.7-2.9c-1.3,0-2.6,0.2-3.8,0.7
		c-1.2,0.5-2.3,1.2-3.3,2.1c-1,0.9-1.9,1.9-2.6,3.2c-0.8,1.2-1.3,2.6-1.7,4v21.1h-4.5V37.5c0-4.1-0.6-7.1-1.9-9
		c-1.2-1.9-3.1-2.8-5.7-2.8c-2.6,0-4.9,0.9-7,2.7c-2,1.8-3.5,4.2-4.4,7.2v21.2h-4.5V22.2h4.1V30c1.4-2.7,3.3-4.7,5.6-6.2
		c2.3-1.5,4.9-2.2,7.6-2.2c2.9,0,5.3,0.8,7,2.5c1.7,1.6,2.8,3.8,3.2,6.4c3.2-5.9,7.7-8.9,13.4-8.9c1.9,0,3.6,0.4,4.9,1.1
		c1.4,0.7,2.4,1.7,3.3,3c0.8,1.3,1.4,2.9,1.8,4.7c0.4,1.8,0.6,3.9,0.6,6.1V56.8z"/>
	<path class="st1" d="M90.4,57.5c-2.5,0-4.8-0.5-6.9-1.4c-2.1-1-3.9-2.2-5.4-3.9c-1.5-1.6-2.7-3.5-3.6-5.7c-0.8-2.2-1.3-4.5-1.3-6.8
		c0-2.4,0.4-4.7,1.3-6.9c0.9-2.2,2.1-4.1,3.6-5.7c1.5-1.6,3.3-2.9,5.4-3.9c2.1-1,4.4-1.5,6.8-1.5c2.5,0,4.8,0.5,6.9,1.5
		c2.1,1,3.9,2.3,5.4,3.9c1.5,1.6,2.7,3.5,3.6,5.7c0.9,2.2,1.3,4.5,1.3,6.9c0,2.4-0.4,4.7-1.3,6.8c-0.8,2.2-2,4.1-3.6,5.7
		c-1.5,1.6-3.3,2.9-5.4,3.9C95.2,57,92.9,57.5,90.4,57.5z M77.9,39.7c0,1.9,0.3,3.8,1,5.4c0.7,1.7,1.6,3.1,2.7,4.4
		c1.1,1.3,2.5,2.2,4,3c1.5,0.7,3.2,1.1,4.9,1.1c1.7,0,3.4-0.4,4.9-1.1c1.5-0.7,2.9-1.7,4-3c1.2-1.3,2.1-2.7,2.7-4.4
		c0.7-1.7,1-3.5,1-5.4c0-1.9-0.3-3.7-1-5.4c-0.7-1.7-1.6-3.2-2.7-4.5c-1.2-1.3-2.5-2.3-4-3c-1.5-0.7-3.2-1.1-4.9-1.1
		c-1.7,0-3.3,0.4-4.9,1.1c-1.5,0.7-2.8,1.7-4,3c-1.2,1.3-2.1,2.8-2.7,4.5C78.2,35.9,77.9,37.7,77.9,39.7z"/>
</g>
<g class="st0">
	<path class="st1" d="M214.1,57.5c-2.4,0-4.6-0.5-6.6-1.5c-2-1-3.8-2.3-5.2-4c-1.5-1.6-2.6-3.5-3.4-5.7c-0.8-2.1-1.2-4.4-1.2-6.7
		c0-2.4,0.4-4.8,1.2-6.9c0.8-2.2,1.9-4.1,3.3-5.7c1.4-1.6,3.1-2.9,5-3.9c1.9-1,4-1.4,6.3-1.4c2.9,0,5.5,0.8,7.8,2.3
		c2.3,1.5,4,3.4,5.3,5.5V8.3h4.5V51c0,1.2,0.5,1.9,1.6,1.9v4c-0.7,0.1-1.2,0.2-1.6,0.2c-1.1,0-2-0.3-2.8-1c-0.8-0.7-1.2-1.5-1.2-2.5
		v-3.4c-1.4,2.3-3.2,4.1-5.6,5.4C219.1,56.8,216.6,57.5,214.1,57.5z M215.1,53.5c1.1,0,2.3-0.2,3.6-0.7c1.3-0.4,2.4-1.1,3.6-1.8
		c1.1-0.8,2-1.7,2.8-2.7c0.8-1,1.3-2.2,1.4-3.4V34.2c-0.4-1.2-1.1-2.3-1.9-3.4c-0.8-1-1.8-2-2.9-2.8c-1.1-0.8-2.2-1.4-3.5-1.9
		c-1.2-0.4-2.5-0.7-3.7-0.7c-1.9,0-3.5,0.4-5,1.2c-1.5,0.8-2.8,1.9-3.9,3.2c-1.1,1.3-1.9,2.8-2.5,4.5c-0.6,1.7-0.9,3.4-0.9,5.2
		c0,1.9,0.3,3.6,1,5.3c0.7,1.7,1.6,3.2,2.7,4.4c1.2,1.3,2.5,2.3,4.1,3C211.6,53.1,213.3,53.5,215.1,53.5z"/>
	<path class="st1" d="M241.2,14.9V8.3h4.5v6.6H241.2z M241.2,56.8V22.2h4.5v34.6H241.2z"/>
</g>
<g class="st0">
	<path class="st1" d="M436.7,56.8h-4.5V37.5c0-4-0.6-7-1.9-8.9c-1.3-1.9-3.2-2.9-5.7-2.9c-1.3,0-2.6,0.2-3.8,0.7
		c-1.2,0.5-2.3,1.2-3.3,2.1c-1,0.9-1.9,1.9-2.6,3.2c-0.8,1.2-1.3,2.6-1.7,4v21.1h-4.5V37.5c0-4.1-0.6-7.1-1.9-9
		c-1.2-1.9-3.1-2.8-5.7-2.8c-2.6,0-4.9,0.9-7,2.7c-2,1.8-3.5,4.2-4.4,7.2v21.2h-4.5V22.2h4.1V30c1.4-2.7,3.3-4.7,5.6-6.2
		c2.3-1.5,4.9-2.2,7.6-2.2c2.9,0,5.3,0.8,7,2.5c1.7,1.6,2.8,3.8,3.2,6.4c3.2-5.9,7.7-8.9,13.4-8.9c1.9,0,3.6,0.4,4.9,1.1
		c1.4,0.7,2.4,1.7,3.3,3c0.8,1.3,1.4,2.9,1.8,4.7c0.4,1.8,0.6,3.9,0.6,6.1V56.8z"/>
	<path class="st1" d="M446.3,14.9V8.3h4.5v6.6H446.3z M446.3,56.8V22.2h4.5v34.6H446.3z"/>
</g>
<g class="st0">
	<path class="st1" d="M584.8,57.5c-2.4,0-4.6-0.5-6.6-1.5c-2-1-3.8-2.3-5.2-4c-1.5-1.6-2.6-3.5-3.4-5.7c-0.8-2.1-1.2-4.4-1.2-6.7
		c0-2.4,0.4-4.8,1.2-6.9c0.8-2.2,1.9-4.1,3.3-5.7c1.4-1.6,3.1-2.9,5-3.9c1.9-1,4-1.4,6.3-1.4c2.9,0,5.5,0.8,7.8,2.3
		c2.3,1.5,4,3.4,5.3,5.5V8.3h4.5V51c0,1.2,0.5,1.9,1.6,1.9v4c-0.7,0.1-1.2,0.2-1.6,0.2c-1.1,0-2-0.3-2.8-1c-0.8-0.7-1.2-1.5-1.2-2.5
		v-3.4c-1.4,2.3-3.2,4.1-5.6,5.4C589.7,56.8,587.3,57.5,584.8,57.5z M585.7,53.5c1.1,0,2.3-0.2,3.6-0.7c1.3-0.4,2.4-1.1,3.6-1.8
		c1.1-0.8,2-1.7,2.8-2.7c0.8-1,1.3-2.2,1.4-3.4V34.2c-0.4-1.2-1.1-2.3-1.9-3.4c-0.8-1-1.8-2-2.9-2.8c-1.1-0.8-2.2-1.4-3.5-1.9
		c-1.2-0.4-2.5-0.7-3.7-0.7c-1.9,0-3.5,0.4-5,1.2c-1.5,0.8-2.8,1.9-3.9,3.2c-1.1,1.3-1.9,2.8-2.5,4.5c-0.6,1.7-0.9,3.4-0.9,5.2
		c0,1.9,0.3,3.6,1,5.3c0.7,1.7,1.6,3.2,2.7,4.4c1.2,1.3,2.5,2.3,4.1,3C582.2,53.1,583.9,53.5,585.7,53.5z"/>
	<path class="st1" d="M626.6,57.5c-2.5,0-4.8-0.5-6.9-1.4c-2.1-1-3.9-2.2-5.4-3.9c-1.5-1.6-2.7-3.5-3.6-5.7
		c-0.8-2.2-1.3-4.5-1.3-6.8c0-2.4,0.4-4.7,1.3-6.9c0.9-2.2,2.1-4.1,3.6-5.7c1.5-1.6,3.3-2.9,5.4-3.9c2.1-1,4.4-1.5,6.8-1.5
		c2.5,0,4.8,0.5,6.9,1.5c2.1,1,3.9,2.3,5.4,3.9c1.5,1.6,2.7,3.5,3.6,5.7c0.9,2.2,1.3,4.5,1.3,6.9c0,2.4-0.4,4.7-1.3,6.8
		c-0.8,2.2-2,4.1-3.6,5.7s-3.3,2.9-5.4,3.9C631.4,57,629.1,57.5,626.6,57.5z M614.1,39.7c0,1.9,0.3,3.8,1,5.4
		c0.7,1.7,1.6,3.1,2.7,4.4c1.1,1.3,2.5,2.2,4,3c1.5,0.7,3.2,1.1,4.9,1.1c1.7,0,3.4-0.4,4.9-1.1c1.5-0.7,2.9-1.7,4-3
		c1.2-1.3,2.1-2.7,2.7-4.4c0.7-1.7,1-3.5,1-5.4c0-1.9-0.3-3.7-1-5.4c-0.7-1.7-1.6-3.2-2.7-4.5c-1.2-1.3-2.5-2.3-4-3
		c-1.5-0.7-3.2-1.1-4.9-1.1c-1.7,0-3.3,0.4-4.9,1.1c-1.5,0.7-2.8,1.7-4,3c-1.2,1.3-2.1,2.8-2.7,4.5
		C614.4,35.9,614.1,37.7,614.1,39.7z"/>
</g>
<g class="st0">
	<path class="st1" d="M757.5,56.8v-31h-4.8v-3.6h4.8v-0.9c0-4.3,0.9-7.6,2.7-10c1.8-2.4,4.3-3.6,7.4-3.6c1.4,0,2.7,0.2,4,0.6
		c1.3,0.4,2.4,0.9,3.3,1.6l-1.4,3.3c-0.6-0.5-1.4-0.9-2.3-1.1c-0.9-0.3-1.8-0.4-2.8-0.4c-2.1,0-3.7,0.8-4.8,2.5
		c-1.1,1.6-1.7,4-1.7,7.1v1.1h9.6v3.6H762v31H757.5z"/>
</g>
<g class="st0">
	<path class="st1" d="M795,26.2c-3.1,0.1-5.7,0.9-8,2.5c-2.3,1.6-3.9,3.8-4.8,6.6v21.5h-4.5V22.2h4.3v8.3c1.3-2.7,3-4.7,5.2-6.2
		c2.2-1.5,4.5-2.3,7-2.3c0.4,0,0.6,0,0.9,0.1V26.2z"/>
</g>
<g class="st0">
	<path class="st1" d="M952.6,57.5c-2.7,0-5.3-0.4-7.9-1.3c-2.6-0.9-4.8-2.2-6.6-3.9l2.1-3.1c1.9,1.6,3.9,2.8,5.9,3.6
		c2,0.8,4.2,1.2,6.5,1.2c2.8,0,5-0.6,6.7-1.7c1.7-1.1,2.5-2.7,2.5-4.8c0-1-0.2-1.8-0.7-2.4c-0.4-0.6-1.1-1.2-2-1.7
		c-0.9-0.5-2-0.9-3.3-1.3c-1.3-0.4-2.8-0.8-4.6-1.2c-2-0.5-3.7-1-5.2-1.5c-1.5-0.5-2.7-1-3.6-1.7c-1-0.6-1.7-1.4-2.1-2.3
		c-0.5-0.9-0.7-2-0.7-3.4c0-1.7,0.3-3.3,1-4.6c0.7-1.3,1.6-2.4,2.8-3.3c1.2-0.9,2.5-1.5,4.1-2c1.6-0.4,3.2-0.7,5-0.7
		c2.7,0,5.1,0.4,7.2,1.3c2.2,0.9,3.9,2,5.2,3.4l-2.2,2.7c-1.3-1.3-2.8-2.3-4.7-3s-3.8-1-5.7-1c-1.2,0-2.3,0.1-3.3,0.4
		c-1,0.2-1.9,0.6-2.7,1.2c-0.8,0.5-1.4,1.2-1.8,2c-0.4,0.8-0.7,1.8-0.7,2.9c0,0.9,0.2,1.7,0.5,2.3c0.3,0.6,0.8,1.1,1.5,1.5
		c0.7,0.4,1.6,0.8,2.7,1.1c1.1,0.3,2.4,0.7,4,1c2.2,0.5,4.2,1.1,5.8,1.6c1.7,0.5,3.1,1.2,4.2,1.9c1.1,0.7,2,1.6,2.6,2.6
		c0.6,1,0.9,2.3,0.9,3.7c0,3.2-1.2,5.7-3.7,7.6C960,56.5,956.8,57.5,952.6,57.5z"/>
	<path class="st1" d="M982.2,57.5c-1.6,0-3.2-0.3-4.6-0.8c-1.4-0.6-2.6-1.3-3.7-2.3c-1-1-1.9-2.1-2.4-3.4c-0.6-1.3-0.9-2.7-0.9-4.2
		s0.4-2.9,1.1-4.2c0.7-1.3,1.7-2.4,3-3.3c1.3-0.9,2.8-1.6,4.6-2.2c1.8-0.5,3.7-0.8,5.8-0.8c1.8,0,3.6,0.2,5.4,0.5
		c1.8,0.3,3.4,0.8,4.9,1.3v-3.1c0-3.1-0.9-5.5-2.6-7.3c-1.7-1.8-4.1-2.7-7.2-2.7c-1.8,0-3.6,0.4-5.4,1.1c-1.9,0.7-3.7,1.7-5.6,3.1
		l-1.6-3c4.5-3,8.8-4.5,13-4.5c4.3,0,7.8,1.2,10.2,3.7c2.5,2.4,3.7,5.8,3.7,10.1V51c0,1.2,0.6,1.9,1.7,1.9v4
		c-0.8,0.1-1.3,0.2-1.7,0.2c-1.2,0-2-0.3-2.7-0.9c-0.6-0.6-1-1.4-1-2.4L996,51c-1.6,2.1-3.6,3.7-6,4.8
		C987.6,56.9,985,57.5,982.2,57.5z M983.3,54c2.3,0,4.5-0.4,6.5-1.3c2-0.9,3.5-2.1,4.5-3.5c0.4-0.4,0.7-0.8,0.9-1.3
		c0.2-0.5,0.3-0.9,0.3-1.3v-5.6c-1.5-0.6-3.1-1-4.7-1.3c-1.6-0.3-3.3-0.5-4.9-0.5c-3.2,0-5.8,0.7-7.8,2s-3,3.1-3,5.2
		c0,1.1,0.2,2.1,0.6,3c0.4,0.9,1,1.7,1.7,2.4c0.7,0.7,1.6,1.2,2.6,1.6C981,53.8,982.1,54,983.3,54z"/>
</g>
<g class="st0">
	<path class="st1" d="M1137.9,57.5c-2.7,0-5.3-0.4-7.9-1.3c-2.6-0.9-4.8-2.2-6.6-3.9l2.1-3.1c1.9,1.6,3.9,2.8,5.9,3.6
		s4.2,1.2,6.5,1.2c2.8,0,5-0.6,6.7-1.7c1.7-1.1,2.5-2.7,2.5-4.8c0-1-0.2-1.8-0.7-2.4c-0.4-0.6-1.1-1.2-2-1.7
		c-0.9-0.5-1.9-0.9-3.3-1.3c-1.3-0.4-2.8-0.8-4.6-1.2c-2-0.5-3.7-1-5.2-1.5c-1.5-0.5-2.7-1-3.6-1.7c-1-0.6-1.7-1.4-2.1-2.3
		c-0.5-0.9-0.7-2-0.7-3.4c0-1.7,0.3-3.3,1-4.6c0.7-1.3,1.6-2.4,2.8-3.3c1.2-0.9,2.5-1.5,4.1-2c1.6-0.4,3.2-0.7,5-0.7
		c2.7,0,5.1,0.4,7.2,1.3c2.2,0.9,3.9,2,5.2,3.4l-2.2,2.7c-1.3-1.3-2.8-2.3-4.7-3c-1.8-0.7-3.8-1-5.7-1c-1.2,0-2.3,0.1-3.3,0.4
		c-1,0.2-1.9,0.6-2.7,1.2c-0.8,0.5-1.4,1.2-1.8,2c-0.4,0.8-0.7,1.8-0.7,2.9c0,0.9,0.2,1.7,0.5,2.3c0.3,0.6,0.8,1.1,1.5,1.5
		c0.7,0.4,1.6,0.8,2.7,1.1c1.1,0.3,2.4,0.7,4,1c2.2,0.5,4.2,1.1,5.8,1.6c1.7,0.5,3.1,1.2,4.2,1.9c1.1,0.7,2,1.6,2.6,2.6
		c0.6,1,0.9,2.3,0.9,3.7c0,3.2-1.2,5.7-3.7,7.6C1145.3,56.5,1142.1,57.5,1137.9,57.5z"/>
	<path class="st1" d="M1173.6,57.5c-2.5,0-4.8-0.5-6.9-1.4c-2.1-1-3.9-2.2-5.4-3.9s-2.7-3.5-3.6-5.7c-0.8-2.2-1.3-4.5-1.3-6.8
		c0-2.4,0.4-4.7,1.3-6.9c0.9-2.2,2.1-4.1,3.6-5.7c1.5-1.6,3.3-2.9,5.4-3.9c2.1-1,4.4-1.5,6.8-1.5c2.5,0,4.8,0.5,6.9,1.5
		c2.1,1,3.9,2.3,5.4,3.9c1.5,1.6,2.7,3.5,3.6,5.7c0.9,2.2,1.3,4.5,1.3,6.9c0,2.4-0.4,4.7-1.3,6.8c-0.8,2.2-2,4.1-3.6,5.7
		s-3.3,2.9-5.4,3.9C1178.4,57,1176.1,57.5,1173.6,57.5z M1161,39.7c0,1.9,0.3,3.8,1,5.4c0.7,1.7,1.6,3.1,2.7,4.4
		c1.1,1.3,2.5,2.2,4,3c1.5,0.7,3.2,1.1,4.9,1.1c1.7,0,3.4-0.4,4.9-1.1c1.5-0.7,2.9-1.7,4-3c1.2-1.3,2.1-2.7,2.7-4.4
		c0.7-1.7,1-3.5,1-5.4c0-1.9-0.3-3.7-1-5.4c-0.7-1.7-1.6-3.2-2.7-4.5c-1.2-1.3-2.5-2.3-4-3c-1.5-0.7-3.2-1.1-4.9-1.1
		c-1.7,0-3.3,0.4-4.9,1.1c-1.5,0.7-2.8,1.7-4,3c-1.2,1.3-2.1,2.8-2.7,4.5C1161.3,35.9,1161,37.7,1161,39.7z"/>
</g>
<g class="st2">
	<rect y="102.6" class="st3" width="1244.5" height="1"/>
</g>
</svg>
