<?xml version="1.0" encoding="utf-8"?>
<!-- Generator: Adobe Illustrator 21.0.0, SVG Export Plug-In . SVG Version: 6.00 Build 0)  -->
<svg version="1.1" id="Layer_1" xmlns="http://www.w3.org/2000/svg" xmlns:xlink="http://www.w3.org/1999/xlink" x="0px" y="0px"
	 viewBox="0 0 1011.3 328.4" style="enable-background:new 0 0 1011.3 328.4;" xml:space="preserve">
<style type="text/css">
	.st0{enable-background:new    ;}
	.st1{fill:#00B7BA;}
	.st2{opacity:0.76;}
	.st3{opacity:0.91;fill:url(#SVGID_1_);enable-background:new    ;}
	.st4{fill:url(#SVGID_2_);}
	.st5{fill:url(#SVGID_3_);}
	.st6{opacity:0.82;}
	.st7{fill:url(#SVGID_4_);}
	.st8{fill:url(#SVGID_5_);}
</style>
<title>logo_mavie</title>
<g class="st0">
	<path class="st1" d="M430.3,316.8l22.3-27.4h-21.9v-2h24.6v1.9l-22.1,27.4h22v2h-24.8V316.8z"/>
</g>
<g class="st0">
	<path class="st1" d="M469,319.1c-1.6,0-3.1-0.3-4.5-0.9c-1.4-0.6-2.6-1.5-3.6-2.6c-1-1.1-1.8-2.4-2.4-3.8c-0.6-1.4-0.9-3-0.9-4.6
		c0-1.6,0.3-3.1,0.9-4.6c0.6-1.4,1.4-2.7,2.4-3.7c1-1.1,2.2-1.9,3.5-2.5s2.8-0.9,4.4-0.9c1.6,0,3.1,0.3,4.5,0.9
		c1.4,0.6,2.6,1.5,3.6,2.6c1,1.1,1.8,2.3,2.3,3.7c0.6,1.4,0.8,2.9,0.8,4.5c0,0.1,0,0.3,0,0.6c0,0.2,0,0.4,0,0.4H460
		c0.1,1.3,0.4,2.5,0.9,3.7s1.2,2.1,2,2.9c0.8,0.8,1.7,1.5,2.8,1.9c1.1,0.5,2.2,0.7,3.4,0.7c0.8,0,1.6-0.1,2.3-0.3
		c0.8-0.2,1.5-0.5,2.1-0.9c0.7-0.4,1.2-0.8,1.8-1.4c0.5-0.5,0.9-1.1,1.2-1.8l1.9,0.5c-0.3,0.8-0.8,1.6-1.4,2.3
		c-0.6,0.7-1.4,1.3-2.2,1.8s-1.8,0.9-2.8,1.2C471.1,318.9,470.1,319.1,469,319.1z M478,306.3c-0.1-1.3-0.4-2.6-0.9-3.7
		c-0.5-1.1-1.2-2.1-2-2.9c-0.8-0.8-1.7-1.4-2.8-1.9c-1.1-0.5-2.2-0.7-3.4-0.7c-1.2,0-2.3,0.2-3.4,0.7s-2,1.1-2.8,1.9
		c-0.8,0.8-1.5,1.8-1.9,2.9c-0.5,1.1-0.8,2.4-0.9,3.7H478z"/>
</g>
<g class="st0">
	<path class="st1" d="M503.7,318.6h-2.2v-12.8c0-3-0.4-5.1-1.3-6.5c-0.8-1.4-2.2-2-4-2c-1,0-1.9,0.2-2.9,0.5c-1,0.4-1.8,0.9-2.7,1.5
		s-1.5,1.4-2.2,2.3s-1.1,1.8-1.4,2.8v14.2H485v-22.9h2.1v5.5c0.5-0.9,1-1.7,1.7-2.4c0.7-0.7,1.5-1.3,2.3-1.8
		c0.9-0.5,1.8-0.9,2.8-1.2c1-0.3,2-0.4,3-0.4c2.5,0,4.3,0.9,5.3,2.6c1,1.7,1.5,4.3,1.5,7.5V318.6z"/>
</g>
<g class="st0">
	<path class="st1" d="M520.4,317.5c-0.1,0.1-0.3,0.2-0.6,0.3c-0.3,0.2-0.6,0.3-1.1,0.5c-0.4,0.1-0.9,0.3-1.4,0.4
		c-0.5,0.1-1.1,0.2-1.7,0.2c-0.6,0-1.2-0.1-1.7-0.3c-0.5-0.2-1-0.4-1.4-0.8c-0.4-0.4-0.7-0.8-1-1.3s-0.4-1.1-0.4-1.8v-17.3h-3.2
		v-1.8h3.2v-7.8h2.2v7.8h5.3v1.8h-5.3v16.7c0,0.9,0.3,1.5,0.9,1.9s1.2,0.6,2,0.6c0.9,0,1.7-0.2,2.4-0.5s1.1-0.5,1.2-0.6L520.4,317.5
		z"/>
	<path class="st1" d="M535.1,297.7c-2.1,0.1-3.9,0.7-5.4,1.8c-1.5,1.2-2.6,2.8-3.2,4.8v14.3h-2.2v-22.9h2.1v5.6
		c0.8-1.6,1.8-2.9,3.2-3.9c1.3-1,2.7-1.6,4.2-1.7c0.3,0,0.6,0,0.8,0c0.2,0,0.4,0,0.6,0V297.7z"/>
	<path class="st1" d="M546.4,319.1c-4.9,0-7.3-3.4-7.3-10.1v-13.2h2.2v12.9c0,5.6,1.9,8.5,5.8,8.5c1,0,1.9-0.2,2.8-0.5
		c0.9-0.3,1.8-0.8,2.6-1.4c0.8-0.6,1.5-1.3,2.1-2.2c0.6-0.9,1.1-1.8,1.4-2.8v-14.5h2.2v19.8c0,0.7,0.3,1.1,0.9,1.1v2
		c-0.1,0-0.3,0-0.4,0s-0.2,0-0.3,0c-0.6,0-1.1-0.2-1.6-0.6c-0.5-0.4-0.7-0.9-0.7-1.5v-3.4c-1,1.9-2.4,3.3-4.1,4.3
		C550.3,318.5,548.4,319.1,546.4,319.1z"/>
	<path class="st1" d="M598.8,318.6h-2.2v-12.8c0-2.9-0.4-5.1-1.3-6.4c-0.9-1.4-2.3-2.1-4.1-2.1c-0.9,0-1.8,0.2-2.7,0.5
		c-0.9,0.4-1.6,0.8-2.3,1.5c-0.7,0.6-1.3,1.4-1.8,2.2c-0.5,0.9-0.9,1.8-1.2,2.9v14.1h-2.2v-12.8c0-2.9-0.4-5.1-1.3-6.5
		c-0.9-1.4-2.2-2-4.1-2c-0.9,0-1.8,0.2-2.7,0.5c-0.8,0.3-1.6,0.8-2.3,1.5c-0.7,0.6-1.3,1.4-1.9,2.2s-1,1.8-1.3,2.9v14.2h-2.2v-22.9
		h2.1v5.5c0.9-1.9,2.2-3.3,3.7-4.3c1.5-1,3.2-1.5,5.1-1.5c1.9,0,3.5,0.6,4.7,1.7c1.2,1.1,1.9,2.6,2.2,4.5c2.2-4.1,5.2-6.2,9-6.2
		c2.5,0,4.3,0.9,5.4,2.7s1.6,4.3,1.6,7.5V318.6z"/>
	<path class="st1" d="M617.8,318.6v-21.1h-3.2v-1.8h3.2v-0.8c0-2.8,0.6-5,1.7-6.6c1.1-1.6,2.7-2.4,4.8-2.4c0.9,0,1.7,0.1,2.6,0.4
		c0.8,0.3,1.5,0.6,2,1.1l-0.8,1.6c-0.4-0.3-0.9-0.6-1.5-0.8c-0.6-0.2-1.2-0.3-1.9-0.3c-1.5,0-2.7,0.6-3.5,1.8
		c-0.8,1.2-1.2,2.9-1.2,5.2v0.8h6.5v1.8H620v21.1H617.8z"/>
	<path class="st1" d="M637.9,319.1c-4.9,0-7.3-3.4-7.3-10.1v-13.2h2.2v12.9c0,5.6,1.9,8.5,5.8,8.5c1,0,1.9-0.2,2.8-0.5
		s1.8-0.8,2.6-1.4c0.8-0.6,1.5-1.3,2.1-2.2c0.6-0.9,1.1-1.8,1.4-2.8v-14.5h2.2v19.8c0,0.7,0.3,1.1,0.9,1.1v2c-0.1,0-0.3,0-0.4,0
		c-0.1,0-0.2,0-0.3,0c-0.6,0-1.1-0.2-1.6-0.6c-0.5-0.4-0.7-0.9-0.7-1.5v-3.4c-1,1.9-2.4,3.3-4.1,4.3
		C641.8,318.5,639.9,319.1,637.9,319.1z M636,290.4v-3.9h1.9v3.9H636z M642,290.4v-3.9h1.9v3.9H642z"/>
</g>
<g class="st0">
	<path class="st1" d="M667.5,297.7c-2.1,0.1-3.9,0.7-5.4,1.8c-1.5,1.2-2.6,2.8-3.2,4.8v14.3h-2.2v-22.9h2.1v5.6
		c0.8-1.6,1.8-2.9,3.2-3.9c1.3-1,2.7-1.6,4.2-1.7c0.3,0,0.6,0,0.8,0c0.2,0,0.4,0,0.6,0V297.7z"/>
</g>
<g class="st0">
	<path class="st1" d="M682.6,318.6v-31.3H703v2h-18.1v12.4h15.4v1.9h-15.4v14.9H682.6z"/>
</g>
<g class="st0">
	<path class="st1" d="M710,319.1c-1.1,0-2-0.2-3-0.6c-0.9-0.4-1.7-0.9-2.4-1.5c-0.7-0.6-1.2-1.4-1.6-2.2s-0.6-1.8-0.6-2.8
		c0-1,0.2-1.9,0.7-2.7c0.5-0.8,1.1-1.5,2-2.1s1.8-1.1,3-1.4s2.5-0.5,3.9-0.5c1.2,0,2.5,0.1,3.7,0.3c1.2,0.2,2.4,0.5,3.4,0.9v-2.2
		c0-2.2-0.6-3.9-1.9-5.2c-1.2-1.3-2.9-1.9-5-1.9c-1.1,0-2.3,0.2-3.5,0.7c-1.2,0.5-2.5,1.1-3.8,2l-0.8-1.5c2.9-2,5.7-3,8.4-3
		c2.8,0,4.9,0.8,6.5,2.4c1.6,1.6,2.4,3.8,2.4,6.6v11.2c0,0.7,0.3,1.1,1,1.1v2c-0.1,0-0.3,0.1-0.5,0.1c-0.2,0-0.3,0-0.4,0
		c-0.6,0-1.1-0.2-1.4-0.6s-0.6-0.9-0.6-1.4v-1.9c-1.1,1.4-2.4,2.4-4.1,3.2S711.9,319.1,710,319.1z M710.5,317.3c1.7,0,3.3-0.3,4.7-1
		c1.4-0.6,2.5-1.5,3.3-2.6c0.5-0.6,0.7-1.2,0.7-1.8v-4.1c-1.1-0.4-2.2-0.7-3.3-0.9c-1.1-0.2-2.3-0.3-3.6-0.3c-1.1,0-2.2,0.1-3.1,0.4
		c-0.9,0.2-1.7,0.6-2.4,1s-1.2,1-1.6,1.6c-0.4,0.6-0.6,1.3-0.6,2.1c0,0.8,0.1,1.5,0.4,2.2s0.7,1.3,1.2,1.7c0.5,0.5,1.2,0.9,1.9,1.1
		C708.9,317.1,709.7,317.3,710.5,317.3z"/>
	<path class="st1" d="M761.7,318.6h-2.2v-12.8c0-2.9-0.4-5.1-1.3-6.4c-0.9-1.4-2.3-2.1-4.1-2.1c-0.9,0-1.8,0.2-2.7,0.5
		c-0.9,0.4-1.6,0.8-2.3,1.5c-0.7,0.6-1.3,1.4-1.8,2.2c-0.5,0.9-0.9,1.8-1.2,2.9v14.1h-2.2v-12.8c0-2.9-0.4-5.1-1.3-6.5
		c-0.9-1.4-2.2-2-4.1-2c-0.9,0-1.8,0.2-2.7,0.5c-0.8,0.3-1.6,0.8-2.3,1.5c-0.7,0.6-1.3,1.4-1.9,2.2c-0.5,0.9-1,1.8-1.3,2.9v14.2
		h-2.2v-22.9h2.1v5.5c0.9-1.9,2.2-3.3,3.7-4.3c1.5-1,3.2-1.5,5.1-1.5c1.9,0,3.5,0.6,4.7,1.7s1.9,2.6,2.2,4.5c2.2-4.1,5.2-6.2,9-6.2
		c2.5,0,4.3,0.9,5.4,2.7c1.1,1.8,1.6,4.3,1.6,7.5V318.6z"/>
	<path class="st1" d="M768.4,290.5v-4.1h2.2v4.1H768.4z M768.4,318.6v-22.9h2.2v22.9H768.4z"/>
	<path class="st1" d="M777.7,286.4h2.2v27.6c0,0.9,0.2,1.5,0.7,2c0.5,0.5,1.2,0.8,2,0.8c0.3,0,0.7,0,1.2-0.1
		c0.5-0.1,0.9-0.2,1.3-0.3l0.4,1.8c-0.5,0.2-1.1,0.4-1.9,0.5c-0.7,0.1-1.4,0.2-1.9,0.2c-1.2,0-2.2-0.4-3-1.1c-0.7-0.7-1.1-1.8-1.1-3
		V286.4z"/>
	<path class="st1" d="M788.9,290.5v-4.1h2.2v4.1H788.9z M788.9,318.6v-22.9h2.2v22.9H788.9z"/>
	<path class="st1" d="M807.8,319.1c-1.6,0-3.1-0.3-4.5-0.9c-1.4-0.6-2.6-1.5-3.6-2.6c-1-1.1-1.8-2.4-2.4-3.8s-0.9-3-0.9-4.6
		c0-1.6,0.3-3.1,0.9-4.6c0.6-1.4,1.4-2.7,2.4-3.7c1-1.1,2.2-1.9,3.5-2.5s2.8-0.9,4.4-0.9c1.6,0,3.1,0.3,4.5,0.9
		c1.4,0.6,2.6,1.5,3.6,2.6c1,1.1,1.8,2.3,2.3,3.7c0.6,1.4,0.8,2.9,0.8,4.5c0,0.1,0,0.3,0,0.6c0,0.2,0,0.4,0,0.4h-20.1
		c0.1,1.3,0.4,2.5,0.9,3.7c0.5,1.1,1.2,2.1,2,2.9c0.8,0.8,1.7,1.5,2.8,1.9c1.1,0.5,2.2,0.7,3.4,0.7c0.8,0,1.6-0.1,2.3-0.3
		c0.8-0.2,1.5-0.5,2.1-0.9c0.7-0.4,1.2-0.8,1.8-1.4c0.5-0.5,0.9-1.1,1.2-1.8l1.9,0.5c-0.3,0.8-0.8,1.6-1.4,2.3
		c-0.6,0.7-1.4,1.3-2.2,1.8c-0.8,0.5-1.8,0.9-2.8,1.2C809.9,318.9,808.8,319.1,807.8,319.1z M816.8,306.3c-0.1-1.3-0.4-2.6-0.9-3.7
		c-0.5-1.1-1.2-2.1-2-2.9c-0.8-0.8-1.7-1.4-2.8-1.9c-1.1-0.5-2.2-0.7-3.4-0.7c-1.2,0-2.3,0.2-3.4,0.7s-2,1.1-2.8,1.9
		c-0.8,0.8-1.5,1.8-1.9,2.9c-0.5,1.1-0.8,2.4-0.9,3.7H816.8z"/>
	<path class="st1" d="M842.5,318.6h-2.2v-12.8c0-3-0.4-5.1-1.3-6.5c-0.8-1.4-2.2-2-4-2c-1,0-1.9,0.2-2.9,0.5c-1,0.4-1.8,0.9-2.7,1.5
		s-1.5,1.4-2.2,2.3s-1.1,1.8-1.4,2.8v14.2h-2.2v-22.9h2.1v5.5c0.5-0.9,1-1.7,1.7-2.4c0.7-0.7,1.5-1.3,2.3-1.8
		c0.9-0.5,1.8-0.9,2.8-1.2c1-0.3,2-0.4,3-0.4c2.5,0,4.3,0.9,5.3,2.6c1,1.7,1.5,4.3,1.5,7.5V318.6z"/>
	<path class="st1" d="M860.3,319.1c-2,0-3.7-0.5-5.3-1.6c-1.5-1-2.8-2.3-3.7-3.8V328h-2.2v-32.3h2v4.6c0.9-1.5,2.2-2.7,3.7-3.6
		c1.5-0.9,3.2-1.4,5-1.4c1.6,0,3.1,0.3,4.4,1c1.4,0.7,2.5,1.6,3.5,2.7c1,1.1,1.7,2.4,2.3,3.8c0.5,1.4,0.8,2.9,0.8,4.4
		c0,1.6-0.2,3.1-0.8,4.5s-1.2,2.7-2.1,3.8c-0.9,1.1-2,1.9-3.3,2.6C863.3,318.7,861.9,319.1,860.3,319.1z M859.8,317.1
		c1.3,0,2.5-0.3,3.6-0.8s2-1.3,2.8-2.2c0.8-0.9,1.4-2,1.8-3.2s0.6-2.4,0.6-3.6c0-1.3-0.2-2.6-0.7-3.8c-0.5-1.2-1.1-2.2-2-3.2
		c-0.8-0.9-1.8-1.6-2.9-2.2c-1.1-0.5-2.3-0.8-3.6-0.8c-0.8,0-1.6,0.2-2.5,0.5c-0.9,0.3-1.7,0.8-2.5,1.4c-0.8,0.6-1.5,1.2-2,2
		c-0.6,0.7-0.9,1.5-1,2.3v7.5c0.4,0.9,0.9,1.6,1.5,2.4s1.2,1.4,2,1.9s1.5,1,2.4,1.3C858,316.9,858.9,317.1,859.8,317.1z"/>
	<path class="st1" d="M876.3,286.4h2.2v27.6c0,0.9,0.2,1.5,0.7,2c0.5,0.5,1.2,0.8,2,0.8c0.3,0,0.7,0,1.2-0.1
		c0.5-0.1,0.9-0.2,1.3-0.3l0.4,1.8c-0.5,0.2-1.1,0.4-1.9,0.5s-1.4,0.2-1.9,0.2c-1.2,0-2.2-0.4-3-1.1c-0.7-0.7-1.1-1.8-1.1-3V286.4z"
		/>
	<path class="st1" d="M893.1,319.1c-1.1,0-2-0.2-3-0.6c-0.9-0.4-1.7-0.9-2.4-1.5c-0.7-0.6-1.2-1.4-1.6-2.2s-0.6-1.8-0.6-2.8
		c0-1,0.2-1.9,0.7-2.7s1.1-1.5,2-2.1c0.8-0.6,1.8-1.1,3-1.4c1.2-0.3,2.5-0.5,3.9-0.5c1.2,0,2.5,0.1,3.7,0.3c1.2,0.2,2.4,0.5,3.4,0.9
		v-2.2c0-2.2-0.6-3.9-1.9-5.2c-1.2-1.3-2.9-1.9-5-1.9c-1.1,0-2.3,0.2-3.5,0.7c-1.2,0.5-2.5,1.1-3.8,2l-0.8-1.5c2.9-2,5.7-3,8.4-3
		c2.8,0,4.9,0.8,6.5,2.4s2.4,3.8,2.4,6.6v11.2c0,0.7,0.3,1.1,1,1.1v2c-0.1,0-0.3,0.1-0.5,0.1c-0.2,0-0.3,0-0.4,0
		c-0.6,0-1.1-0.2-1.4-0.6s-0.6-0.9-0.6-1.4v-1.9c-1.1,1.4-2.4,2.4-4.1,3.2C896.8,318.7,895.1,319.1,893.1,319.1z M893.6,317.3
		c1.7,0,3.3-0.3,4.7-1s2.5-1.5,3.3-2.6c0.5-0.6,0.7-1.2,0.7-1.8v-4.1c-1.1-0.4-2.2-0.7-3.3-0.9s-2.3-0.3-3.6-0.3
		c-1.1,0-2.2,0.1-3.1,0.4s-1.7,0.6-2.4,1s-1.2,1-1.6,1.6c-0.4,0.6-0.6,1.3-0.6,2.1c0,0.8,0.1,1.5,0.4,2.2c0.3,0.7,0.7,1.3,1.2,1.7
		c0.5,0.5,1.2,0.9,1.9,1.1S892.8,317.3,893.6,317.3z"/>
	<path class="st1" d="M929.9,318.6h-2.2v-12.8c0-3-0.4-5.1-1.3-6.5c-0.8-1.4-2.2-2-4-2c-1,0-1.9,0.2-2.9,0.5c-1,0.4-1.8,0.9-2.7,1.5
		s-1.5,1.4-2.2,2.3s-1.1,1.8-1.4,2.8v14.2h-2.2v-22.9h2.1v5.5c0.5-0.9,1-1.7,1.7-2.4c0.7-0.7,1.5-1.3,2.3-1.8
		c0.9-0.5,1.8-0.9,2.8-1.2c1-0.3,2-0.4,3-0.4c2.5,0,4.3,0.9,5.3,2.6c1,1.7,1.5,4.3,1.5,7.5V318.6z"/>
	<path class="st1" d="M943.6,319.1c-4.9,0-7.3-3.4-7.3-10.1v-13.2h2.2v12.9c0,5.6,1.9,8.5,5.8,8.5c1,0,1.9-0.2,2.8-0.5
		s1.8-0.8,2.6-1.4c0.8-0.6,1.5-1.3,2.1-2.2c0.6-0.9,1.1-1.8,1.4-2.8v-14.5h2.2v19.8c0,0.7,0.3,1.1,0.9,1.1v2c-0.1,0-0.3,0-0.4,0
		c-0.1,0-0.2,0-0.3,0c-0.6,0-1.1-0.2-1.6-0.6c-0.5-0.4-0.7-0.9-0.7-1.5v-3.4c-1,1.9-2.4,3.3-4.1,4.3
		C947.6,318.5,945.7,319.1,943.6,319.1z"/>
	<path class="st1" d="M981.2,318.6h-2.2v-12.8c0-3-0.4-5.1-1.3-6.5s-2.2-2-4-2c-1,0-1.9,0.2-2.9,0.5c-1,0.4-1.8,0.9-2.7,1.5
		c-0.8,0.6-1.5,1.4-2.2,2.3c-0.6,0.9-1.1,1.8-1.4,2.8v14.2h-2.2v-22.9h2.1v5.5c0.5-0.9,1.1-1.7,1.7-2.4c0.7-0.7,1.5-1.3,2.3-1.8
		c0.9-0.5,1.8-0.9,2.8-1.2c1-0.3,2-0.4,3-0.4c2.5,0,4.3,0.9,5.3,2.6s1.5,4.3,1.5,7.5V318.6z"/>
	<path class="st1" d="M997.1,319c-1.6,0-3-0.3-4.4-1c-1.3-0.7-2.5-1.5-3.4-2.6c-1-1.1-1.7-2.4-2.2-3.8s-0.8-2.9-0.8-4.4
		c0-1.6,0.3-3.1,0.8-4.5s1.2-2.7,2.2-3.8s2.1-2,3.4-2.6c1.3-0.6,2.8-1,4.3-1c2,0,3.7,0.5,5.2,1.6s2.7,2.3,3.8,3.8v-5h2v23.4
		c0,1.6-0.3,2.9-0.9,4.1c-0.6,1.2-1.4,2.2-2.4,2.9c-1,0.8-2.1,1.4-3.4,1.8c-1.3,0.4-2.7,0.6-4.1,0.6c-1.3,0-2.5-0.1-3.6-0.4
		s-2-0.6-2.8-1.1c-0.8-0.5-1.5-1-2.2-1.7c-0.6-0.7-1.2-1.4-1.7-2.2l1.5-1c0.9,1.6,2.1,2.7,3.7,3.4c1.6,0.7,3.2,1.1,5,1.1
		c1.2,0,2.3-0.2,3.3-0.5c1-0.3,2-0.8,2.7-1.4c0.8-0.6,1.4-1.4,1.9-2.4c0.5-0.9,0.7-2,0.7-3.3v-5c-0.9,1.5-2.2,2.7-3.7,3.6
		C1000.4,318.5,998.8,319,997.1,319z M997.6,317.1c1,0,1.9-0.2,2.8-0.6c0.9-0.4,1.8-0.8,2.5-1.4c0.7-0.6,1.4-1.2,1.9-2
		s0.8-1.5,0.9-2.2v-7.5c-0.4-0.9-0.8-1.7-1.4-2.4c-0.6-0.8-1.3-1.4-2-1.9c-0.8-0.5-1.6-0.9-2.4-1.3c-0.9-0.3-1.7-0.5-2.6-0.5
		c-1.4,0-2.6,0.3-3.7,0.9c-1.1,0.6-2,1.4-2.8,2.3c-0.7,0.9-1.3,2-1.7,3.2s-0.6,2.4-0.6,3.6c0,1.3,0.2,2.6,0.7,3.7s1.1,2.2,1.9,3.1
		c0.8,0.9,1.8,1.6,2.9,2.2C995.1,316.8,996.3,317.1,997.6,317.1z"/>
</g>
<g class="st2">
	<path class="st1" d="M684.2,149.7h24.9v107.4h-24.9v-11.2c-10.2,9.6-21.2,14.3-33,14.3c-14.9,0-27.1-5.4-36.8-16.1
		c-9.6-11-14.5-24.6-14.5-41c0-16.1,4.8-29.5,14.5-40.3s21.7-16.1,36.2-16.1c12.5,0,23.7,5.1,33.6,15.4V149.7z M625.3,203.1
		c0,10.3,2.8,18.7,8.3,25.2c5.2,6.4,13.1,10,21.4,9.8c9.2,0,16.6-3.2,22.3-9.5c5.7-6.5,8.5-14.9,8.5-24.9s-2.8-18.4-8.5-24.9
		s-13-9.6-22.1-9.6c-8.2-0.1-16.1,3.4-21.4,9.7C628.1,185.4,625.3,193.5,625.3,203.1L625.3,203.1z"/>
	<path class="st1" d="M755.8,149.7l27.8,60.3l27.7-60.3h27.9l-55.8,114.9L728,149.8L755.8,149.7z"/>
	<path class="st1" d="M852.2,105.1c0.1-8.8,7.3-15.9,16.1-16c4.3-0.1,8.5,1.6,11.5,4.7c3.1,3,4.8,7.1,4.7,11.4
		c0.1,4.3-1.6,8.4-4.7,11.4c-3,3.1-7.1,4.8-11.4,4.7C859.4,121.3,852.2,114,852.2,105.1C852.2,105.1,852.2,105.1,852.2,105.1
		L852.2,105.1z M880.8,149.7v107.4H856V149.7H880.8z"/>
	<path class="st1" d="M1010.1,209.3h-77c0.7,8.8,3.5,15.8,8.6,21.1s11.6,7.8,19.5,7.7c6.2,0,11.3-1.5,15.3-4.4s8.6-8.4,13.6-16.3
		l21,11.7c-2.9,5.1-6.4,9.8-10.3,14.2c-3.4,3.8-7.3,7-11.6,9.7c-4.1,2.5-8.6,4.4-13.3,5.6c-5.1,1.2-10.3,1.8-15.6,1.8
		c-16,0-28.9-5.1-38.6-15.4s-14.6-24-14.6-41.2c0-17,4.7-30.7,14.1-41.2s22.1-15.5,37.7-15.5c15.8,0,28.3,5,37.5,15.1
		s13.7,23.9,13.7,41.6V209.3z M984.6,189c-3.5-13.2-11.8-19.9-25-19.9c-2.9,0-5.8,0.4-8.5,1.4c-2.6,0.9-5,2.3-7.2,4
		c-4.6,3.7-7.8,8.8-9.1,14.5H984.6z"/>
	<path class="st1" d="M559.1,96.8H581v163.4h-23.5V133l-50.2,63.1H503L452.1,133v127.1h-23.4V96.8h22.1l54.3,67.1L559.1,96.8z"/>
</g>
<linearGradient id="SVGID_1_" gradientUnits="userSpaceOnUse" x1="13515.2998" y1="-2612.6226" x2="13697.6445" y2="-2507.3396" gradientTransform="matrix(-1 0 0 -1 13849.9707 -2409.4099)">
	<stop  offset="0" style="stop-color:#00B7BA"/>
	<stop  offset="0.4" style="stop-color:#00B5B8"/>
	<stop  offset="0.56" style="stop-color:#00AEB3"/>
	<stop  offset="0.68" style="stop-color:#00A2A9"/>
	<stop  offset="0.78" style="stop-color:#00909A"/>
	<stop  offset="0.86" style="stop-color:#007A88"/>
	<stop  offset="0.93" style="stop-color:#005E72"/>
	<stop  offset="1" style="stop-color:#003E57"/>
</linearGradient>
<path class="st3" d="M165.1,102.1c110.4-10.8,105.7,53,83.5,113.1c-0.2,0.6-0.5,1.2-0.7,1.9c-18.8,49.7-52.5,92.9-56.2,101.4
	c-0.4,1-0.5,1.5,0,1.5h0.8c17.8-2,114.4-66.2,166.9-159.6l0,0c26.7-47.4,37.3-97.1,4.8-134.6C287.6-63,112.7,107.3,165.1,102.1z"/>
<linearGradient id="SVGID_2_" gradientUnits="userSpaceOnUse" x1="13465.6318" y1="-2569.4534" x2="13694.5332" y2="-2569.4534" gradientTransform="matrix(-1 0 0 -1 13849.9707 -2409.4099)">
	<stop  offset="0" style="stop-color:#00D3D6"/>
	<stop  offset="0.17" style="stop-color:#00CFD3"/>
	<stop  offset="0.33" style="stop-color:#00C4C9"/>
	<stop  offset="0.48" style="stop-color:#00B1B8"/>
	<stop  offset="0.64" style="stop-color:#0096A0"/>
	<stop  offset="0.79" style="stop-color:#007482"/>
	<stop  offset="0.93" style="stop-color:#004B5D"/>
	<stop  offset="1" style="stop-color:#00354A"/>
</linearGradient>
<path class="st4" d="M165.1,102.1c110.4-10.8,105.7,53,83.5,113.1c-0.2,0.6-0.5,1.2-0.7,1.9c-18.8,49.7-52.5,92.9-56.2,101.4
	c-0.4,1-0.5,1.5,0,1.5h0.8c17.8-2,114.4-66.2,166.9-159.6l0,0c26.7-47.4,37.3-97.1,4.8-134.6C287.6-63,112.7,107.3,165.1,102.1z"/>
<linearGradient id="SVGID_3_" gradientUnits="userSpaceOnUse" x1="282.6616" y1="-2569.4036" x2="511.6628" y2="-2569.4036" gradientTransform="matrix(1 0 0 -1 -282.66 -2409.4099)">
	<stop  offset="0" style="stop-color:#F45B7A"/>
	<stop  offset="0.18" style="stop-color:#EE5876"/>
	<stop  offset="0.42" style="stop-color:#DD4F6B"/>
	<stop  offset="0.69" style="stop-color:#C14058"/>
	<stop  offset="0.99" style="stop-color:#9A2B3F"/>
	<stop  offset="1" style="stop-color:#992B3E"/>
</linearGradient>
<path class="st5" d="M192.7,320h-0.8C174.1,318,77.5,253.8,25,160.4l0,0c-26.7-47.5-37.3-97.2-4.8-134.8
	c76.7-88.6,251.6,81.7,199.2,76.5c-110.4-10.8-105.7,53-83.5,113.1c0.2,0.6,0.5,1.2,0.7,1.9"/>
<g class="st6">
	
		<radialGradient id="SVGID_4_" cx="474.88" cy="-2649.5498" r="131.0507" gradientTransform="matrix(1 0 0 -1 -282.66 -2409.4099)" gradientUnits="userSpaceOnUse">
		<stop  offset="0" style="stop-color:#FEB952"/>
		<stop  offset="0.54" style="stop-color:#FCB851"/>
		<stop  offset="0.73" style="stop-color:#F5B34F"/>
		<stop  offset="0.87" style="stop-color:#EAAA4B"/>
		<stop  offset="0.98" style="stop-color:#D99E46"/>
		<stop  offset="1" style="stop-color:#D49A44"/>
	</radialGradient>
	<path class="st7" d="M191.5,239.5c-15-2.5-34.3-13-55-22.4c-47-21.7-99.9-49.5-111.5-56.8l0,0c52.3,93.2,148.6,157.3,166.8,159.6
		v0.1h1c18.2-2.3,114.4-66.4,166.7-159.6l0,0c-11.6,7.3-64.5,35.1-111.5,56.8C227.3,226.6,192,239.6,191.5,239.5z"/>
	
		<radialGradient id="SVGID_5_" cx="472.04" cy="-2730.4299" r="87.24" gradientTransform="matrix(1 0 0 -1 -282.66 -2409.4099)" gradientUnits="userSpaceOnUse">
		<stop  offset="0" style="stop-color:#B38239"/>
		<stop  offset="5.000000e-02" style="stop-color:#B5843A;stop-opacity:0.87"/>
		<stop  offset="0.16" style="stop-color:#B9873B;stop-opacity:0.64"/>
		<stop  offset="0.27" style="stop-color:#BC893C;stop-opacity:0.44"/>
		<stop  offset="0.38" style="stop-color:#BF8B3D;stop-opacity:0.28"/>
		<stop  offset="0.5" style="stop-color:#C18D3E;stop-opacity:0.16"/>
		<stop  offset="0.64" style="stop-color:#C38E3F;stop-opacity:7.000000e-02"/>
		<stop  offset="0.79" style="stop-color:#C48F3F;stop-opacity:2.000000e-02"/>
		<stop  offset="1" style="stop-color:#C48F3F;stop-opacity:0"/>
	</radialGradient>
	<path class="st8" d="M191.5,239.5c-15-2.5-34.3-13-55-22.4c-47-21.7-99.9-49.5-111.5-56.8l0,0c52.3,93.2,148.6,157.3,166.8,159.6
		v0.1h1c18.2-2.3,114.4-66.4,166.7-159.6l0,0c-11.6,7.3-64.5,35.1-111.5,56.8C227.3,226.6,192,239.6,191.5,239.5z"/>
</g>
</svg>
