<svg id="Layer_1" data-name="Layer 1" xmlns="http://www.w3.org/2000/svg" viewBox="0 0 1440 2560"><defs><style>.cls-1{fill:#ffbe6b;}.cls-2{fill:#44d3d6;}.cls-3{fill:#f49cae;}.cls-4{fill:#fea940;opacity:0.74;}.cls-5{fill:#f45b7a;}.cls-5,.cls-6{opacity:0.5;}.cls-6{fill:#00b7ba;}.cls-7,.cls-8,.cls-9{fill:none;}.cls-7{stroke:#ffbe6b;stroke-width:0.25px;}.cls-7,.cls-8{stroke-miterlimit:10;}.cls-8{stroke:#7fdadc;}</style></defs><title>background_termin_gesicchert</title><path class="cls-1" d="M1440.2,0V706.33l-.2-.1q-11-5.5-22.14-10.51l-2.78-1.24-2-.85q-11.77-5.14-23.8-9.73l-2.64-1q-3.34-1.26-6.72-2.48t-6.71-2.38l-2.22-.76-4.56-1.54-3.37-1.11-3.4-1.09q-18.72-6-37.87-10.62l-3.49-.84-3.48-.81-3.5-.79-3.21-.71q-2.53-.55-5.08-1.07l-2.22-.46q-8.79-1.8-17.66-3.31l-3.5-.58-2.81-.46q-3.39-.54-6.79-1-4.12-.61-8.27-1.15l-2.86-.37c-1.73-.23-3.47-.44-5.2-.64l-2.53-.29q-6.16-.7-12.34-1.27l-2.87-.25q-1.41-.14-2.82-.24l-3.46-.27-3.59-.26-3.36-.22c-1.59-.11-3.18-.2-4.77-.28q-4.92-.29-9.84-.46l-2.07-.07-3.06-.1-3-.08-2.17,0-4.2-.06-3.61,0a565.66,565.66,0,0,0-231.51,47.63C711.34,803.32,582.67,846.27,483.63,845l-2.7,0q-1.7,0-3.39-.09l-2.79-.1-1.86-.08-2-.1c-1.36-.06-2.71-.14-4.07-.24l-2.64-.18c-1.1-.08-2.2-.16-3.29-.26l-2.86-.25-1-.1c-.84-.08-1.68-.16-2.51-.26l-.27,0-3-.34-.24,0c-.84-.09-1.67-.19-2.51-.3l-1.07-.14c-.91-.11-1.82-.23-2.72-.36s-1.61-.22-2.41-.35c-.62-.08-1.25-.18-1.88-.28-1-.15-2-.31-3-.48l-3.37-.57c-.89-.15-1.79-.31-2.68-.48s-2-.37-3-.57q-9.64-1.87-19.15-4.35c-.71-.17-1.42-.36-2.12-.55l-3.09-.84q-2.67-.73-5.36-1.53c-1-.28-1.93-.56-2.89-.86q-5.45-1.65-10.92-3.49l-2.07-.7-1.84-.64-2.81-1c-2.68-.95-5.36-1.94-8.06-3-1-.39-2.07-.78-3.11-1.19l-2.74-1.06-4-1.59-4.33-1.78-1.65-.69-1.37-.57c-1.41-.59-2.82-1.2-4.24-1.81q-8.3-3.57-16.79-7.52L328.91,805c-2.16-1-4.34-2.05-6.52-3.1l-3.29-1.58-3.3-1.61L312.47,797q-3.33-1.65-6.71-3.34-5.05-2.54-10.23-5.19l-.83-.42-9.62-5-7.1-3.71s0,0,0,0l-7.21-3.8L264,772l-11.82-6.31L246,762.36c-17.2-9.22-35.46-19-55.1-29.42q-4.21-2.23-8.51-4.48c-35.8-18.8-76.18-39.27-123-61l-5.65-2.61L48,662.26l-5.77-2.63q-5.8-2.64-11.74-5.3l-6-2.66L19,649.22,11.6,646l-5.36-2.34L0,640.9l-.19-.09V0Z"/><path class="cls-2" d="M1441.08,2559H287.63C266.4,2328.76,213.77,2308,0,2307v-14.38q-.11-4.49-.19-9.33v-910l.19.24q2.76,3.45,5.55,6.89,2.41,3,4.85,5.93,1.81,2.22,3.65,4.43l2.54,3.06,3.92,4.67c.23.29.47.57.72.85,1.72,2,3.45,4.09,5.2,6.13,1.45,1.7,2.9,3.4,4.37,5.09l2.54,2.94q2.56,3,5.18,5.93c1,1.17,2,2.33,3.09,3.5s2.2,2.5,3.32,3.74q2.58,2.91,5.2,5.8l3,3.34c1.06,1.17,2.12,2.34,3.2,3.5,1.65,1.82,3.31,3.63,5,5.44,1.3,1.41,2.61,2.83,3.93,4.24l1.83,1.95c1.37,1.47,2.75,2.93,4.14,4.4l1.31,1.38q2.45,2.58,4.91,5.15l.93,1q2.23,2.32,4.48,4.63c.69.71,1.38,1.43,2.08,2.14q2.32,2.4,4.68,4.78c1.54,1.57,3.08,3.13,4.64,4.69l1.26,1.26.62.63q2.85,2.86,5.73,5.7,3.09,3.06,6.21,6.11,6.23,6.1,12.59,12.14T133.53,1517c1.79,1.66,3.59,3.31,5.4,5l1.71,1.57,5.82,5.28.23.21q3.25,2.92,6.52,5.84,2.4,2.15,4.82,4.26l3,2.6.32.29,4.12,3.59,1.47,1.27.51.44,5.63,4.85.24.2a1.51,1.51,0,0,0,.2.17q3.39,2.89,6.81,5.78,3.18,2.69,6.38,5.35l.81.67,6.7,5.53c2,1.67,4.08,3.34,6.13,5,.72.6,1.45,1.18,2.17,1.76l4,3.21q1.8,1.46,3.62,2.88c1.37,1.09,2.73,2.18,4.11,3.25.85.69,1.71,1.36,2.56,2,1.39,1.11,2.79,2.2,4.2,3.29s2.71,2.11,4.07,3.15l.38.3.88.68,1.26,1c1.19.93,2.39,1.84,3.59,2.75l.14.11q3,2.28,6,4.55,3.67,2.77,7.39,5.53,2.88,2.14,5.77,4.26l.45.33.76.56c.58.43,1.15.85,1.73,1.26l1,.76c1.6,1.18,3.21,2.34,4.82,3.51.58.42,1.16.84,1.74,1.24q3,2.16,6,4.29l1.91,1.36q2.29,1.63,4.61,3.25c1,.7,2,1.4,3,2.09q3,2.12,6.05,4.21,3.86,2.67,7.75,5.31t7.81,5.27q15.69,10.52,31.84,20.69,4.05,2.55,8.12,5.07c1.72,1.08,3.45,2.14,5.19,3.2l3,1.82,1.25.75.66.41q2.07,1.26,4.15,2.51l3.92,2.36c2.54,1.53,5.1,3,7.66,4.56q3.54,2.09,7.11,4.15l.19.11.44.26,4.2,2.43.43.24q2.77,1.62,5.57,3.19c.72.41,1.43.82,2.14,1.21l1.16.66c.84.49,1.68,1,2.52,1.43l1.65.92c2,1.15,4.09,2.3,6.14,3.42q.88.51,1.77,1,2.59,1.44,5.22,2.87l.93.51.66.36c1.2.65,2.4,1.31,3.61,2l.08,0,1.27.69h0c2.5,1.36,5,2.7,7.52,4q2,1.1,4.08,2.16c2.51,1.32,5,2.64,7.53,3.94s5.1,2.65,7.67,4l1,.49c2.27,1.16,4.55,2.32,6.83,3.46l3.25,1.63q3.43,1.73,6.88,3.41c.54.28,1.08.54,1.61.8l.3.15.67.33,4.46,2.17,1.33.65h0c1.17.58,2.33,1.14,3.5,1.7q2,1,4,1.92,2.7,1.3,5.41,2.58l1.63.77,6.13,2.86.24.11q3.08,1.44,6.17,2.84l5.12,2.35q4,1.8,8,3.58l2.11.94,2.11.93.85.38q2.86,1.28,5.75,2.52c2.49,1.09,5,2.18,7.51,3.25l1,.43,3,1.3.24.1q3.26,1.39,6.54,2.76l2.45,1,6.51,2.69.92.38q19.17,7.86,38.84,15.26,4,1.52,8,3l2.19.81c1.7.63,3.42,1.26,5.13,1.87l.25.09,2.86,1,2.87,1,3,1.07.71.25.72.26c1.13.41,2.25.81,3.38,1.2l1.84.64.32.11.6.21c1.31.47,2.62.93,3.94,1.37l.47.16c1.44.51,2.89,1,4.34,1.5l.74.25.51.18,4.12,1.4,1.06.35c1.29.45,2.59.88,3.88,1.31q3.26,1.09,6.53,2.16l1.17.38,1.78.59c2.68.87,5.36,1.74,8.06,2.6l.45.14q1.23.41,2.46.78l1.31.42c2,.62,3.9,1.24,5.85,1.84l3,.94,6.27,1.93c2.14.66,4.29,1.3,6.44,1.94l3.09.92q3.62,1.09,7.24,2.14l3.56,1q3.4,1,6.84,2l.24.07,4.18,1.18.4.11,3.67,1,.91.25c2.42.67,4.84,1.34,7.27,2l2.82.76c2.33.63,4.66,1.26,7,1.87q2.93.78,5.86,1.53c1.08.29,2.17.57,3.26.84l.79.2.58.15c1.08.29,2.15.56,3.23.83l4,1,3.29.83.5.12q3.12.78,6.25,1.53c2.09.52,4.18,1,6.29,1.53q4.61,1.11,9.25,2.18l.72.17.63.15.29.07q5.05,1.17,10.13,2.31,5.23,1.19,10.49,2.32l3.51.76.38.08,3,.64q2.76.6,5.55,1.17l3.71.77,3.71.76q7.44,1.53,14.94,3l7.52,1.44q5,.95,10,1.85l5.1.92,5.17.92,7.48,1.29,6,1c3.15.53,6.3,1,9.47,1.55s6.34,1,9.52,1.5l4.79.73,6.13.91q3.07.46,6.16.9l5.4.77,3.43.47,5.87.8,5.73.76.32,0q5.41.7,10.87,1.38l.79.1c2,.25,4,.49,5.93.72l4.53.54,6.2.71q3.11.36,6.21.69l6.23.67q6.36.68,12.78,1.31,5.54.54,11.09,1.05l1,.09,8.3.73.86.07c3,.27,6.08.52,9.13.76l.29,0c3.28.26,6.57.52,9.87.76,1.64.13,3.29.25,4.94.36l5,.35,6.42.43,7,.44q3.51.23,7,.41c1.77.11,3.54.21,5.32.3l6.49.34,4.55.22c1.7.09,3.41.17,5.11.24,2.1.1,4.19.19,6.29.27l6.31.25,6.32.23c3.57.12,7.14.24,10.73.34l4.51.12.58,0,5,.12,4.65.1,6.41.12,6.42.1,6.43.08,5.91.05,3,0h3l7.58,0q12.94,0,26-.18c2.9,0,5.81-.08,8.73-.14l1.28,0,2.91-.06.73,0c1.64,0,3.29-.06,4.93-.1l5.69-.14c2.68-.07,5.37-.14,8.07-.23l4.21-.13,7.38-.25h.13l8.74-.34,6-.25,1.38-.06c2.89-.13,5.79-.26,8.69-.41l2.9-.14,5.54-.28,5.13-.28.66,0,1.55-.09q4.86-.25,9.72-.56l.36,0c2-.11,3.95-.24,5.93-.37s4-.25,6-.39q8.76-.59,17.58-1.26c2.11-.15,4.22-.32,6.34-.49,1.68-.12,3.37-.26,5.06-.4q7.35-.6,14.75-1.24l4.88-.44,7.22-.66,8.31-.8,9.28-.92,8.19-.85,10.46-1.14,9-1q9.77-1.12,19.61-2.34,9.23-1.14,18.5-2.37l.48-.06q9.26-1.23,18.58-2.54l.2,0,.31,0C1440.8,2154,1441.06,2526.73,1441.08,2559Z"/><path class="cls-3" d="M1440.2,852.7V1614c-.07-45.07-.14-72-.2-72-241-45-315,341-481,291C593.54,1722.92,240.57,1192.05,0,1318.39l-.19.1V765.2l.19.12C169.2,869,391,901.93,590.81,844.83c554.43-158.48,619-129.75,849.19,7.75Z"/><path class="cls-4" d="M1440.2,706.33V852.7l-.2-.12c-230.22-137.5-294.76-166.23-849.19-7.75C391,901.93,169.2,869,0,765.32l-.19-.12V640.81l.19.09,6.24,2.71L11.6,646,19,649.22l5.52,2.45,6,2.66q5.94,2.67,11.74,5.3L48,662.26l5.71,2.62,5.65,2.61c46.8,21.7,87.18,42.17,123,61q4.3,2.25,8.51,4.48c19.64,10.37,37.9,20.2,55.1,29.42l6.22,3.33L264,772l6.76,3.58,7.21,3.8s0,0,0,0l7.1,3.71q4.86,2.54,9.62,5l.83.42q5.17,2.65,10.23,5.19,3.38,1.71,6.71,3.34l3.33,1.63c1.11.55,2.21,1.09,3.3,1.61s2.2,1.07,3.29,1.58q3.29,1.59,6.52,3.1l2.87,1.34q8.5,3.95,16.79,7.52,2.13.93,4.24,1.81l1.37.57,1.65.69,4.33,1.78,4,1.59,2.74,1.06c1,.41,2.08.8,3.11,1.19,2.7,1,5.38,2,8.06,3l2.81,1,1.84.64,2.07.7q5.47,1.84,10.92,3.49c1,.3,1.93.58,2.89.86q2.68.79,5.36,1.53l3.09.84c.7.19,1.41.38,2.12.55q9.51,2.47,19.15,4.35,1.5.3,3,.57c.89.17,1.79.33,2.68.48l3.37.57c1,.17,2,.33,3,.48.63.1,1.26.2,1.88.28.8.13,1.61.24,2.41.35s1.81.25,2.72.36l1.07.14c.84.11,1.67.21,2.51.3l.24,0,3,.34.27,0c.83.1,1.67.18,2.51.26l1,.1,2.86.25c1.09.1,2.19.18,3.29.26l2.64.18c1.36.1,2.71.18,4.07.24l2,.1,1.86.08,2.79.1q1.7.06,3.39.09l2.7,0c99,1.24,227.71-41.71,475-150.65a565.66,565.66,0,0,1,231.51-47.63l3.61,0,4.2.06,2.17,0,3,.08,3.06.1,2.07.07q4.92.18,9.84.46c1.59.08,3.18.17,4.77.28l3.36.22,3.59.26,3.46.27q1.41.1,2.82.24l2.87.25q6.18.57,12.34,1.27l2.53.29c1.73.2,3.47.41,5.2.64l2.86.37q4.14.54,8.27,1.15,3.41.5,6.79,1l2.81.46,3.5.58q8.87,1.52,17.66,3.31l2.22.46q2.55.51,5.08,1.07l3.21.71,3.5.79,3.48.81,3.49.84q19.14,4.65,37.87,10.62l3.4,1.09,3.37,1.11,4.56,1.54,2.22.76q3.36,1.17,6.71,2.38t6.72,2.48l2.64,1q12,4.59,23.8,9.73l2,.85,2.78,1.24q11.19,5,22.14,10.51Z"/><path class="cls-5" d="M1440.2,706.33V852.7l-.2-.12c-230.22-137.5-294.76-166.23-849.19-7.75C391,901.93,169.2,869,0,765.32l-.19-.12V640.81l.19.09,6.24,2.71L11.6,646,19,649.22l5.52,2.45,6,2.66q5.94,2.67,11.74,5.3L48,662.26l5.71,2.62,5.65,2.61c46.8,21.7,87.18,42.17,123,61q4.3,2.25,8.51,4.48c19.64,10.37,37.9,20.2,55.1,29.42l6.22,3.33L264,772l6.76,3.58,7.21,3.8s0,0,0,0l7.1,3.71q4.86,2.54,9.62,5l.83.42q5.17,2.65,10.23,5.19,3.38,1.71,6.71,3.34l3.33,1.63c1.11.55,2.21,1.09,3.3,1.61s2.2,1.07,3.29,1.58q3.29,1.59,6.52,3.1l2.87,1.34q8.5,3.95,16.79,7.52,2.13.93,4.24,1.81l1.37.57,1.65.69,4.33,1.78,4,1.59,2.74,1.06c1,.41,2.08.8,3.11,1.19,2.7,1,5.38,2,8.06,3l2.81,1,1.84.64,2.07.7q5.47,1.84,10.92,3.49c1,.3,1.93.58,2.89.86q2.68.79,5.36,1.53l3.09.84c.7.19,1.41.38,2.12.55q9.51,2.47,19.15,4.35,1.5.3,3,.57c.89.17,1.79.33,2.68.48l3.37.57c1,.17,2,.33,3,.48.63.1,1.26.2,1.88.28.8.13,1.61.24,2.41.35s1.81.25,2.72.36l1.07.14c.84.11,1.67.21,2.51.3l.24,0,3,.34.27,0c.83.1,1.67.18,2.51.26l1,.1,2.86.25c1.09.1,2.19.18,3.29.26l2.64.18c1.36.1,2.71.18,4.07.24l2,.1,1.86.08,2.79.1q1.7.06,3.39.09l2.7,0c99,1.24,227.71-41.71,475-150.65a565.66,565.66,0,0,1,231.51-47.63l3.61,0,4.2.06,2.17,0,3,.08,3.06.1,2.07.07q4.92.18,9.84.46c1.59.08,3.18.17,4.77.28l3.36.22,3.59.26,3.46.27q1.41.1,2.82.24l2.87.25q6.18.57,12.34,1.27l2.53.29c1.73.2,3.47.41,5.2.64l2.86.37q4.14.54,8.27,1.15,3.41.5,6.79,1l2.81.46,3.5.58q8.87,1.52,17.66,3.31l2.22.46q2.55.51,5.08,1.07l3.21.71,3.5.79,3.48.81,3.49.84q19.14,4.65,37.87,10.62l3.4,1.09,3.37,1.11,4.56,1.54,2.22.76q3.36,1.17,6.71,2.38t6.72,2.48l2.64,1q12,4.59,23.8,9.73l2,.85,2.78,1.24q11.19,5,22.14,10.51Z"/><path class="cls-6" d="M1440.51,1869l-.31,0-.2,0q-9.31,1.32-18.58,2.54l-.48.06q-9.28,1.23-18.5,2.37-9.84,1.21-19.61,2.34l-9,1-10.46,1.14-8.19.85-9.28.92-8.31.8-7.22.66-4.88.44q-7.39.65-14.75,1.24l-5.06.4-6.34.49q-8.82.67-17.58,1.26c-2,.14-4,.27-6,.39l-5.93.37-.36,0q-4.86.3-9.72.56l-1.55.09-.66,0-5.13.28-5.54.28-2.9.14c-2.9.15-5.8.28-8.69.41l-1.38.06-6,.25-8.74.34H1219l-7.38.25-4.21.13-8.07.23-5.69.14-4.93.1-.73,0-2.91.06-1.28,0c-2.92.06-5.83.1-8.73.14q-13.07.18-26,.18l-7.58,0h-3l-3,0-5.91-.05-6.43-.08-6.42-.1-6.41-.12-4.65-.1-5-.12-.58,0c-1.51,0-3-.08-4.51-.12-3.59-.1-7.16-.22-10.73-.34l-6.32-.23-6.31-.25c-2.1-.08-4.19-.17-6.29-.27-1.7-.07-3.41-.15-5.11-.24l-4.55-.22-6.49-.34c-1.78-.09-3.55-.19-5.32-.3l-7-.41-7-.44-6.42-.43-5-.35c-1.65-.11-3.29-.23-4.94-.36-3.3-.24-6.59-.5-9.87-.76l-.29,0-9.13-.76-.86-.07-8.3-.73-1-.09q-5.56-.51-11.09-1.05-6.42-.64-12.78-1.31l-6.23-.67q-3.12-.33-6.21-.69l-6.2-.71-4.53-.54c-2-.23-4-.47-5.93-.72l-.79-.1q-5.45-.67-10.87-1.38l-.32,0-5.73-.76-5.87-.8-3.43-.47-5.4-.77q-3.09-.44-6.16-.9l-6.13-.91-4.79-.73q-4.77-.73-9.52-1.5l-9.47-1.55-6-1-7.48-1.29-5.17-.92-5.1-.92q-5-.9-10-1.85L822,1859.7q-7.5-1.45-14.94-3l-3.71-.76-3.71-.77q-2.79-.57-5.55-1.17l-3-.64-.38-.08-3.51-.76-10.49-2.32q-5.07-1.14-10.13-2.31l-.29-.07-.63-.15-.72-.17q-4.65-1.06-9.25-2.18c-2.11-.5-4.2-1-6.29-1.53s-4.17-1-6.25-1.53l-.5-.12-3.29-.83-4-1-3.23-.83-.58-.15-.79-.2c-1.09-.27-2.18-.55-3.26-.84q-2.94-.75-5.86-1.53c-2.34-.61-4.67-1.24-7-1.87l-2.82-.76c-2.43-.65-4.85-1.32-7.27-2l-.91-.25-3.67-1-.4-.11-4.18-1.18-.24-.07q-3.43-1-6.84-2l-3.56-1q-3.63-1.05-7.24-2.14l-3.09-.92c-2.15-.64-4.3-1.28-6.44-1.94l-6.27-1.93-3-.94c-2-.6-3.9-1.22-5.85-1.84l-1.31-.42q-1.23-.37-2.46-.78l-.45-.14c-2.7-.86-5.38-1.73-8.06-2.6l-1.78-.59-1.17-.38q-3.27-1.06-6.53-2.16c-1.29-.43-2.59-.86-3.88-1.31l-1.06-.35-4.12-1.4-.51-.18-.74-.25c-1.45-.49-2.9-1-4.34-1.5l-.47-.16c-1.32-.44-2.63-.9-3.94-1.37l-.6-.21-.32-.11-1.84-.64c-1.13-.39-2.25-.79-3.38-1.2l-.72-.26-.71-.25-3-1.07-2.87-1-2.86-1-.25-.09c-1.71-.61-3.43-1.24-5.13-1.87l-2.19-.81q-4-1.47-8-3-19.68-7.39-38.84-15.26l-.92-.38-6.51-2.69-2.45-1q-3.29-1.37-6.54-2.76l-.24-.1-3-1.3-1-.43c-2.51-1.07-5-2.16-7.51-3.25q-2.88-1.24-5.75-2.52l-.85-.38-2.11-.93-2.11-.94q-4-1.78-8-3.58l-5.12-2.35q-3.09-1.4-6.17-2.84l-.24-.11-6.13-2.86-1.63-.77q-2.71-1.27-5.41-2.58-2-.95-4-1.92c-1.17-.56-2.33-1.12-3.5-1.7h0l-1.33-.65c-1.49-.71-3-1.44-4.46-2.17l-.67-.33-.3-.15c-.53-.26-1.07-.52-1.61-.8q-3.45-1.68-6.88-3.41l-3.25-1.63c-2.28-1.14-4.56-2.3-6.83-3.46l-1-.49c-2.57-1.3-5.12-2.62-7.67-4s-5-2.62-7.53-3.94q-2.05-1.06-4.08-2.16c-2.52-1.33-5-2.67-7.52-4h0l-1.27-.69-.08,0-3.61-2-.66-.36-.93-.51q-2.62-1.42-5.22-2.87-.89-.48-1.77-1c-2-1.12-4.1-2.27-6.14-3.42l-1.65-.92c-.84-.47-1.68-.94-2.52-1.43l-1.16-.66c-.71-.39-1.42-.8-2.14-1.21q-2.79-1.58-5.57-3.19l-.43-.24-4.2-2.43-.44-.26-.19-.11q-3.57-2.07-7.11-4.15c-2.56-1.52-5.12-3-7.66-4.56l-3.92-2.36q-2.09-1.24-4.15-2.51l-.66-.41-1.25-.75-3-1.82c-1.74-1.06-3.47-2.12-5.19-3.2q-4.08-2.52-8.12-5.07-16.15-10.19-31.84-20.69-3.92-2.62-7.81-5.27t-7.75-5.31q-3-2.1-6.05-4.21c-1-.69-2-1.39-3-2.09q-2.31-1.62-4.61-3.25l-1.91-1.36q-3-2.13-6-4.29c-.58-.4-1.16-.82-1.74-1.24-1.61-1.17-3.22-2.33-4.82-3.51l-1-.76c-.58-.41-1.15-.83-1.73-1.26l-.76-.56-.45-.33q-2.89-2.12-5.77-4.26-3.7-2.76-7.39-5.53-3-2.27-6-4.55l-.14-.11-3.59-2.75-1.26-1-.88-.68-.38-.3q-2-1.56-4.07-3.15c-1.41-1.09-2.81-2.18-4.2-3.29-.85-.65-1.71-1.32-2.56-2-1.38-1.07-2.74-2.16-4.11-3.25q-1.82-1.42-3.62-2.88l-4-3.21c-.72-.58-1.45-1.16-2.17-1.76-2-1.65-4.09-3.32-6.13-5l-6.7-5.53-.81-.67q-3.2-2.67-6.38-5.35-3.42-2.88-6.81-5.78a1.51,1.51,0,0,1-.2-.17l-.24-.2-5.63-4.85-.51-.44-1.47-1.27-4.12-3.59-.32-.29-3-2.6q-2.42-2.12-4.82-4.26-3.27-2.91-6.52-5.84l-.23-.21-5.82-5.28-1.71-1.57c-1.81-1.66-3.61-3.31-5.4-5q-6.48-6-12.84-12.05t-12.59-12.14q-3.12-3-6.21-6.11-2.88-2.83-5.73-5.7l-.62-.63-1.26-1.26c-1.56-1.56-3.1-3.12-4.64-4.69s-3.13-3.18-4.68-4.78c-.7-.71-1.39-1.43-2.08-2.14q-2.25-2.31-4.48-4.63l-.93-1q-2.46-2.56-4.91-5.15l-1.31-1.38c-1.39-1.47-2.77-2.93-4.14-4.4L65.28,1449c-1.32-1.41-2.63-2.83-3.93-4.24-1.69-1.81-3.35-3.62-5-5.44-1.08-1.16-2.14-2.33-3.2-3.5l-3-3.34q-2.62-2.9-5.2-5.8-1.68-1.86-3.32-3.74c-1-1.17-2.07-2.33-3.09-3.5q-2.61-3-5.18-5.93l-2.54-2.94c-1.47-1.69-2.92-3.39-4.37-5.09-1.75-2-3.48-4.09-5.2-6.13-.25-.28-.49-.56-.72-.85l-3.92-4.67L14,1390.8q-1.83-2.21-3.65-4.43-2.43-3-4.85-5.93Q2.76,1377,0,1373.55l-.19-.24v-54.82l.19-.1C240.57,1192.05,593.54,1722.92,959,1833c166,50,240-336,481-291,.06,0,.13,26.92.2,72C1440.3,1673.82,1440.41,1765.63,1440.51,1869Z"/><path class="cls-5" d="M1440.51,1869l-.31,0-.2,0q-9.31,1.32-18.58,2.54l-.48.06q-9.28,1.23-18.5,2.37-9.84,1.21-19.61,2.34l-9,1-10.46,1.14-8.19.85-9.28.92-8.31.8-7.22.66-4.88.44q-7.39.65-14.75,1.24l-5.06.4-6.34.49q-8.82.67-17.58,1.26c-2,.14-4,.27-6,.39l-5.93.37-.36,0q-4.86.3-9.72.56l-1.55.09-.66,0-5.13.28-5.54.28-2.9.14c-2.9.15-5.8.28-8.69.41l-1.38.06-6,.25-8.74.34H1219l-7.38.25-4.21.13-8.07.23-5.69.14-4.93.1-.73,0-2.91.06-1.28,0c-2.92.06-5.83.1-8.73.14q-13.07.18-26,.18l-7.58,0h-3l-3,0-5.91-.05-6.43-.08-6.42-.1-6.41-.12-4.65-.1-5-.12-.58,0c-1.51,0-3-.08-4.51-.12-3.59-.1-7.16-.22-10.73-.34l-6.32-.23-6.31-.25c-2.1-.08-4.19-.17-6.29-.27-1.7-.07-3.41-.15-5.11-.24l-4.55-.22-6.49-.34c-1.78-.09-3.55-.19-5.32-.3l-7-.41-7-.44-6.42-.43-5-.35c-1.65-.11-3.29-.23-4.94-.36-3.3-.24-6.59-.5-9.87-.76l-.29,0-9.13-.76-.86-.07-8.3-.73-1-.09q-5.56-.51-11.09-1.05-6.42-.64-12.78-1.31l-6.23-.67q-3.12-.33-6.21-.69l-6.2-.71-4.53-.54c-2-.23-4-.47-5.93-.72l-.79-.1q-5.45-.67-10.87-1.38l-.32,0-5.73-.76-5.87-.8-3.43-.47-5.4-.77q-3.09-.44-6.16-.9l-6.13-.91-4.79-.73q-4.77-.73-9.52-1.5l-9.47-1.55-6-1-7.48-1.29-5.17-.92-5.1-.92q-5-.9-10-1.85L822,1859.7q-7.5-1.45-14.94-3l-3.71-.76-3.71-.77q-2.79-.57-5.55-1.17l-3-.64-.38-.08-3.51-.76-10.49-2.32q-5.07-1.14-10.13-2.31l-.29-.07-.63-.15-.72-.17q-4.65-1.06-9.25-2.18c-2.11-.5-4.2-1-6.29-1.53s-4.17-1-6.25-1.53l-.5-.12-3.29-.83-4-1-3.23-.83-.58-.15-.79-.2c-1.09-.27-2.18-.55-3.26-.84q-2.94-.75-5.86-1.53c-2.34-.61-4.67-1.24-7-1.87l-2.82-.76c-2.43-.65-4.85-1.32-7.27-2l-.91-.25-3.67-1-.4-.11-4.18-1.18-.24-.07q-3.43-1-6.84-2l-3.56-1q-3.63-1.05-7.24-2.14l-3.09-.92c-2.15-.64-4.3-1.28-6.44-1.94l-6.27-1.93-3-.94c-2-.6-3.9-1.22-5.85-1.84l-1.31-.42q-1.23-.37-2.46-.78l-.45-.14c-2.7-.86-5.38-1.73-8.06-2.6l-1.78-.59-1.17-.38q-3.27-1.06-6.53-2.16c-1.29-.43-2.59-.86-3.88-1.31l-1.06-.35-4.12-1.4-.51-.18-.74-.25c-1.45-.49-2.9-1-4.34-1.5l-.47-.16c-1.32-.44-2.63-.9-3.94-1.37l-.6-.21-.32-.11-1.84-.64c-1.13-.39-2.25-.79-3.38-1.2l-.72-.26-.71-.25-3-1.07-2.87-1-2.86-1-.25-.09c-1.71-.61-3.43-1.24-5.13-1.87l-2.19-.81q-4-1.47-8-3-19.68-7.39-38.84-15.26l-.92-.38-6.51-2.69-2.45-1q-3.29-1.37-6.54-2.76l-.24-.1-3-1.3-1-.43c-2.51-1.07-5-2.16-7.51-3.25q-2.88-1.24-5.75-2.52l-.85-.38-2.11-.93-2.11-.94q-4-1.78-8-3.58l-5.12-2.35q-3.09-1.4-6.17-2.84l-.24-.11-6.13-2.86-1.63-.77q-2.71-1.27-5.41-2.58-2-.95-4-1.92c-1.17-.56-2.33-1.12-3.5-1.7h0l-1.33-.65c-1.49-.71-3-1.44-4.46-2.17l-.67-.33-.3-.15c-.53-.26-1.07-.52-1.61-.8q-3.45-1.68-6.88-3.41l-3.25-1.63c-2.28-1.14-4.56-2.3-6.83-3.46l-1-.49c-2.57-1.3-5.12-2.62-7.67-4s-5-2.62-7.53-3.94q-2.05-1.06-4.08-2.16c-2.52-1.33-5-2.67-7.52-4h0l-1.27-.69-.08,0-3.61-2-.66-.36-.93-.51q-2.62-1.42-5.22-2.87-.89-.48-1.77-1c-2-1.12-4.1-2.27-6.14-3.42l-1.65-.92c-.84-.47-1.68-.94-2.52-1.43l-1.16-.66c-.71-.39-1.42-.8-2.14-1.21q-2.79-1.58-5.57-3.19l-.43-.24-4.2-2.43-.44-.26-.19-.11q-3.57-2.07-7.11-4.15c-2.56-1.52-5.12-3-7.66-4.56l-3.92-2.36q-2.09-1.24-4.15-2.51l-.66-.41-1.25-.75-3-1.82c-1.74-1.06-3.47-2.12-5.19-3.2q-4.08-2.52-8.12-5.07-16.15-10.19-31.84-20.69-3.92-2.62-7.81-5.27t-7.75-5.31q-3-2.1-6.05-4.21c-1-.69-2-1.39-3-2.09q-2.31-1.62-4.61-3.25l-1.91-1.36q-3-2.13-6-4.29c-.58-.4-1.16-.82-1.74-1.24-1.61-1.17-3.22-2.33-4.82-3.51l-1-.76c-.58-.41-1.15-.83-1.73-1.26l-.76-.56-.45-.33q-2.89-2.12-5.77-4.26-3.7-2.76-7.39-5.53-3-2.27-6-4.55l-.14-.11-3.59-2.75-1.26-1-.88-.68-.38-.3q-2-1.56-4.07-3.15c-1.41-1.09-2.81-2.18-4.2-3.29-.85-.65-1.71-1.32-2.56-2-1.38-1.07-2.74-2.16-4.11-3.25q-1.82-1.42-3.62-2.88l-4-3.21c-.72-.58-1.45-1.16-2.17-1.76-2-1.65-4.09-3.32-6.13-5l-6.7-5.53-.81-.67q-3.2-2.67-6.38-5.35-3.42-2.88-6.81-5.78a1.51,1.51,0,0,1-.2-.17l-.24-.2-5.63-4.85-.51-.44-1.47-1.27-4.12-3.59-.32-.29-3-2.6q-2.42-2.12-4.82-4.26-3.27-2.91-6.52-5.84l-.23-.21-5.82-5.28-1.71-1.57c-1.81-1.66-3.61-3.31-5.4-5q-6.48-6-12.84-12.05t-12.59-12.14q-3.12-3-6.21-6.11-2.88-2.83-5.73-5.7l-.62-.63-1.26-1.26c-1.56-1.56-3.1-3.12-4.64-4.69s-3.13-3.18-4.68-4.78c-.7-.71-1.39-1.43-2.08-2.14q-2.25-2.31-4.48-4.63l-.93-1q-2.46-2.56-4.91-5.15l-1.31-1.38c-1.39-1.47-2.77-2.93-4.14-4.4L65.28,1449c-1.32-1.41-2.63-2.83-3.93-4.24-1.69-1.81-3.35-3.62-5-5.44-1.08-1.16-2.14-2.33-3.2-3.5l-3-3.34q-2.62-2.9-5.2-5.8-1.68-1.86-3.32-3.74c-1-1.17-2.07-2.33-3.09-3.5q-2.61-3-5.18-5.93l-2.54-2.94c-1.47-1.69-2.92-3.39-4.37-5.09-1.75-2-3.48-4.09-5.2-6.13-.25-.28-.49-.56-.72-.85l-3.92-4.67L14,1390.8q-1.83-2.21-3.65-4.43-2.43-3-4.85-5.93Q2.76,1377,0,1373.55l-.19-.24v-54.82l.19-.1C240.57,1192.05,593.54,1722.92,959,1833c166,50,240-336,481-291,.06,0,.13,26.92.2,72C1440.3,1673.82,1440.41,1765.63,1440.51,1869Z"/><polyline class="cls-7" points="5541 2559 1441.08 2559 1440.2 2559 1440 2559 288.27 2559 287.63 2559 0 2559 -10842 2559"/><path class="cls-8" d="M1440.2,0V2559H288.27c-21-234-73-255-288-256-.09-3.26-.18-6.73-.27-10.38q-.11-4.49-.19-9.33V0Z"/><rect class="cls-9" width="1440" height="2559"/></svg>