<?xml version="1.0" encoding="utf-8"?>
<!-- Generator: Adobe Illustrator 21.0.0, SVG Export Plug-In . SVG Version: 6.00 Build 0)  -->
<svg version="1.1" id="Layer_1" xmlns="http://www.w3.org/2000/svg" xmlns:xlink="http://www.w3.org/1999/xlink" x="0px" y="0px"
	 viewBox="0 0 720 178" style="enable-background:new 0 0 720 178;" xml:space="preserve">
<style type="text/css">
	.st0{enable-background:new    ;}
	.st1{fill:#FFFFFF;}
</style>
<title>zuruck_zum_angebot</title>
<g class="st0">
	<path class="st1" d="M79.3,103.9l27.6-33.9H79.7v-3.5h31.8v3.1l-27.2,33.9h27.2v3.5H79.3V103.9z"/>
</g>
<g class="st0">
	<path class="st1" d="M126.1,107.7c-3.2,0-5.6-1.1-7.2-3.2c-1.6-2.2-2.4-5.4-2.4-9.6V77.3h3.9v16.8c0,6.7,2.3,10.1,6.9,10.1
		c1.1,0,2.3-0.2,3.4-0.6c1.1-0.4,2.1-0.9,3.1-1.7c0.9-0.7,1.8-1.6,2.5-2.6c0.7-1,1.3-2.1,1.8-3.4V77.3h3.9v24.7
		c0,1.1,0.5,1.6,1.4,1.6v3.4c-0.5,0.1-0.8,0.1-1.1,0.1s-0.5,0-0.6,0c-0.9,0-1.7-0.4-2.2-1c-0.6-0.6-0.9-1.4-0.9-2.5v-3.4
		c-1.3,2.3-3.1,4.1-5.3,5.4C131,107,128.6,107.7,126.1,107.7z"/>
	<path class="st1" d="M165.5,80.8c-2.6,0.1-4.9,0.8-6.9,2.2c-1.9,1.4-3.3,3.3-4.1,5.7v18.5h-3.9V77.3h3.7v7.1
		c1.1-2.3,2.6-4.1,4.5-5.4c1.9-1.3,3.9-1.9,6-1.9c0.3,0,0.6,0,0.7,0.1V80.8z"/>
	<path class="st1" d="M180.1,107.7c-3.2,0-5.6-1.1-7.2-3.2c-1.6-2.2-2.4-5.4-2.4-9.6V77.3h3.9v16.8c0,6.7,2.3,10.1,6.9,10.1
		c1.1,0,2.3-0.2,3.4-0.6c1.1-0.4,2.1-0.9,3.1-1.7c0.9-0.7,1.8-1.6,2.5-2.6c0.7-1,1.3-2.1,1.8-3.4V77.3h3.9v24.7
		c0,1.1,0.5,1.6,1.4,1.6v3.4c-0.5,0.1-0.8,0.1-1.1,0.1s-0.5,0-0.6,0c-0.9,0-1.7-0.4-2.2-1c-0.6-0.6-0.9-1.4-0.9-2.5v-3.4
		c-1.3,2.3-3.1,4.1-5.3,5.4C184.9,107,182.6,107.7,180.1,107.7z M177.1,70.9v-5.4h3.3v5.4H177.1z M185.7,70.9v-5.4h3.3v5.4H185.7z"
		/>
	<path class="st1" d="M202.6,92.1c0-2.1,0.4-4.1,1.1-5.9c0.7-1.9,1.7-3.5,3.1-4.9c1.3-1.4,2.9-2.5,4.7-3.3c1.8-0.8,3.8-1.2,6.1-1.2
		c2.8,0,5.3,0.6,7.4,1.9c2.1,1.3,3.7,3,4.7,5.2l-3.8,1.2c-0.8-1.5-2-2.7-3.5-3.6c-1.5-0.9-3.2-1.3-5-1.3c-1.5,0-2.9,0.3-4.3,0.9
		c-1.3,0.6-2.5,1.4-3.4,2.5c-1,1-1.7,2.3-2.3,3.7c-0.6,1.4-0.8,3-0.8,4.7c0,1.7,0.3,3.3,0.9,4.7s1.4,2.8,2.3,3.9
		c1,1.1,2.1,1.9,3.5,2.6c1.3,0.6,2.7,0.9,4.2,0.9c1,0,1.9-0.1,2.8-0.4c0.9-0.3,1.8-0.6,2.6-1.1c0.8-0.5,1.5-1,2.1-1.6
		c0.6-0.6,1-1.3,1.2-1.9l3.8,1.1c-0.4,1.1-1,2-1.8,2.9c-0.8,0.9-1.7,1.7-2.8,2.3c-1.1,0.7-2.3,1.2-3.6,1.5c-1.3,0.4-2.7,0.5-4.1,0.5
		c-2.2,0-4.2-0.4-6-1.2c-1.8-0.8-3.4-1.9-4.7-3.4c-1.3-1.4-2.4-3.1-3.1-4.9C203,96.3,202.6,94.3,202.6,92.1z"/>
	<path class="st1" d="M257.3,107.1l-11-15.3l-6.4,5.9v9.3H236V65.4h3.9v28.3l16.7-16.3h4.4l-12.2,12.2l12.6,17.5H257.3z"/>
	<path class="st1" d="M278.4,104.5l20.1-24.2h-19.6v-2.9h23.9V80l-20,24.2h20v2.9h-24.3V104.5z"/>
	<path class="st1" d="M318.3,107.7c-3.2,0-5.6-1.1-7.2-3.2c-1.6-2.2-2.4-5.4-2.4-9.6V77.3h3.9v16.8c0,6.7,2.3,10.1,6.9,10.1
		c1.1,0,2.3-0.2,3.4-0.6c1.1-0.4,2.1-0.9,3.1-1.7c0.9-0.7,1.8-1.6,2.5-2.6c0.7-1,1.3-2.1,1.8-3.4V77.3h3.9v24.7
		c0,1.1,0.5,1.6,1.4,1.6v3.4c-0.5,0.1-0.8,0.1-1.1,0.1s-0.5,0-0.6,0c-0.9,0-1.7-0.4-2.2-1c-0.6-0.6-0.9-1.4-0.9-2.5v-3.4
		c-1.3,2.3-3.1,4.1-5.3,5.4C323.2,107,320.8,107.7,318.3,107.7z"/>
	<path class="st1" d="M387.2,107.1h-3.9V90.5c0-3.5-0.6-6-1.7-7.7c-1.1-1.6-2.7-2.5-4.9-2.5c-1.1,0-2.2,0.2-3.2,0.6
		c-1,0.4-1.9,1-2.8,1.8c-0.9,0.8-1.6,1.7-2.3,2.7c-0.6,1-1.1,2.2-1.5,3.5v18.2h-3.9V90.5c0-3.5-0.5-6.1-1.6-7.7s-2.7-2.4-4.9-2.4
		c-2.2,0-4.2,0.8-6,2.3c-1.8,1.6-3,3.6-3.8,6.2v18.2h-3.9V77.3h3.5v6.7c1.2-2.3,2.8-4.1,4.8-5.3c2-1.3,4.2-1.9,6.6-1.9
		c2.5,0,4.5,0.7,6,2.1c1.5,1.4,2.4,3.3,2.8,5.5c2.8-5.1,6.6-7.7,11.5-7.7c1.7,0,3.1,0.3,4.3,0.9c1.2,0.6,2.1,1.5,2.8,2.6
		c0.7,1.1,1.2,2.5,1.5,4.1c0.3,1.6,0.5,3.3,0.5,5.3V107.1z"/>
</g>
<g class="st0">
</g>
<g class="st0">
	<path class="st1" d="M421.5,66.5h3.4l16.9,40.6h-4.2l-5.3-12.7H414l-5.2,12.7h-4.3L421.5,66.5z M431.4,91.3l-8.2-20l-8.3,20H431.4z
		"/>
	<path class="st1" d="M471.8,107.1h-3.9V90.5c0-3.5-0.5-6.1-1.6-7.7c-1-1.6-2.7-2.4-4.8-2.4c-1.1,0-2.3,0.2-3.4,0.6s-2.2,1-3.2,1.8
		c-1,0.8-1.8,1.7-2.6,2.7c-0.8,1-1.3,2.2-1.7,3.4v18.2h-3.9V77.3h3.5v6.7c1.2-2.2,3-3.9,5.2-5.3c2.3-1.3,4.7-2,7.4-2
		c1.6,0,3,0.3,4.2,0.9c1.1,0.6,2.1,1.5,2.7,2.6s1.2,2.5,1.5,4.1c0.3,1.6,0.5,3.4,0.5,5.3V107.1z"/>
	<path class="st1" d="M492,107.5c-2.1,0-3.9-0.4-5.6-1.3c-1.7-0.9-3.2-2-4.4-3.4c-1.2-1.4-2.2-3-2.9-4.9c-0.7-1.8-1-3.7-1-5.7
		c0-2.1,0.3-4,1-5.9c0.7-1.9,1.6-3.5,2.8-4.9s2.7-2.5,4.4-3.4c1.7-0.8,3.6-1.3,5.6-1.3c2.6,0,4.8,0.6,6.6,1.9
		c1.9,1.3,3.5,2.9,4.8,4.8v-6.2h3.5v29.9c0,2.1-0.4,3.9-1.2,5.5c-0.8,1.6-1.8,2.9-3.1,4c-1.3,1.1-2.9,1.9-4.6,2.4
		c-1.8,0.5-3.6,0.8-5.6,0.8c-3.4,0-6.2-0.6-8.3-1.8c-2.1-1.2-3.8-2.9-5.1-4.9l2.4-1.9c1.2,1.9,2.7,3.3,4.7,4.2s4,1.3,6.3,1.3
		c1.4,0,2.8-0.2,4.1-0.6c1.3-0.4,2.4-1,3.4-1.8c1-0.8,1.7-1.8,2.3-3c0.6-1.2,0.9-2.6,0.9-4.2v-5.9c-1.1,1.9-2.7,3.4-4.7,4.5
		C496.3,106.9,494.2,107.5,492,107.5z M493.1,104.2c1.1,0,2.3-0.2,3.4-0.6c1.1-0.4,2.1-1,3-1.7s1.6-1.5,2.3-2.4
		c0.6-0.9,1-1.8,1.2-2.7v-9.2c-0.4-1.1-1-2.1-1.7-3c-0.7-0.9-1.5-1.7-2.5-2.3c-0.9-0.6-1.9-1.2-2.9-1.5c-1-0.4-2.1-0.6-3.2-0.6
		c-1.7,0-3.2,0.4-4.5,1.1c-1.3,0.7-2.4,1.6-3.3,2.8s-1.6,2.4-2.1,3.9s-0.7,2.9-0.7,4.4c0,1.6,0.3,3.1,0.9,4.6s1.4,2.7,2.4,3.8
		c1,1.1,2.2,1.9,3.5,2.6C490.1,103.9,491.5,104.2,493.1,104.2z"/>
	<path class="st1" d="M528.2,107.7c-2.2,0-4.2-0.4-6-1.2c-1.8-0.8-3.4-1.9-4.7-3.4c-1.3-1.4-2.4-3.1-3.1-4.9c-0.7-1.9-1.1-3.9-1.1-6
		c0-2.1,0.4-4.1,1.1-5.9c0.7-1.8,1.8-3.5,3.1-4.9c1.3-1.4,2.9-2.5,4.7-3.3c1.8-0.8,3.8-1.2,5.9-1.2c2.2,0,4.2,0.4,6,1.2
		c1.8,0.8,3.4,1.9,4.7,3.3c1.3,1.4,2.3,3,3,4.9c0.7,1.8,1.1,3.8,1.1,5.8c0,0.3,0,0.6,0,0.9s0,0.5-0.1,0.6h-25.5
		c0.1,1.6,0.5,3.1,1.1,4.4c0.6,1.4,1.4,2.5,2.4,3.5c1,1,2.1,1.8,3.4,2.3c1.3,0.6,2.6,0.8,4.1,0.8c1,0,1.9-0.1,2.9-0.4
		c1-0.3,1.8-0.6,2.6-1.1c0.8-0.5,1.5-1,2.2-1.7c0.6-0.7,1.1-1.4,1.5-2.2l3.4,0.9c-0.5,1.1-1.1,2.1-1.9,3c-0.8,0.9-1.8,1.7-2.9,2.3
		c-1.1,0.7-2.3,1.2-3.7,1.5C531.1,107.5,529.7,107.7,528.2,107.7z M539.2,90.6c-0.1-1.6-0.5-3.1-1.1-4.4c-0.6-1.3-1.4-2.4-2.4-3.4
		c-1-1-2.1-1.7-3.4-2.2c-1.3-0.5-2.6-0.8-4.1-0.8c-1.4,0-2.8,0.3-4.1,0.8c-1.3,0.5-2.4,1.3-3.4,2.2c-1,1-1.8,2.1-2.3,3.4
		c-0.6,1.3-0.9,2.8-1.1,4.3H539.2z"/>
	<path class="st1" d="M563.5,107.7c-2.4,0-4.5-0.6-6.5-1.8c-2-1.2-3.5-2.7-4.6-4.6v5.8h-3.5V65.4h3.9v18.2c1.3-2,2.9-3.6,4.8-4.9
		c1.9-1.2,4-1.9,6.5-1.9c2.1,0,4,0.4,5.6,1.3c1.7,0.9,3.1,2,4.2,3.5c1.2,1.5,2.1,3.1,2.7,5c0.6,1.8,0.9,3.7,0.9,5.7
		c0,2.1-0.4,4.1-1.1,5.9c-0.7,1.9-1.7,3.5-3,4.9c-1.3,1.4-2.8,2.5-4.5,3.3C567.3,107.3,565.5,107.7,563.5,107.7z M562.6,104.2
		c1.6,0,3.1-0.3,4.5-1c1.4-0.7,2.5-1.6,3.5-2.7s1.7-2.4,2.3-3.8s0.8-2.9,0.8-4.4c0-1.6-0.3-3.1-0.8-4.5c-0.5-1.4-1.2-2.7-2.2-3.9
		c-0.9-1.1-2.1-2-3.4-2.7c-1.3-0.7-2.8-1-4.3-1c-1.2,0-2.3,0.2-3.3,0.6c-1,0.4-2,0.9-2.9,1.6c-0.9,0.7-1.7,1.5-2.3,2.4
		s-1.3,1.8-1.7,2.8v9.3c0.2,1,0.6,2,1.2,2.9c0.7,0.9,1.5,1.7,2.4,2.3c0.9,0.6,1.9,1.2,3,1.5C560.5,104,561.6,104.2,562.6,104.2z"/>
</g>
<g class="st0">
	<path class="st1" d="M596.8,107.7c-2.2,0-4.2-0.4-5.9-1.2c-1.8-0.8-3.3-1.9-4.7-3.3s-2.3-3-3.1-4.9c-0.7-1.9-1.1-3.8-1.1-5.9
		c0-2.1,0.4-4.1,1.1-5.9c0.7-1.9,1.8-3.5,3.1-4.9c1.3-1.4,2.9-2.5,4.7-3.4s3.8-1.3,5.9-1.3c2.1,0,4.1,0.4,5.9,1.3
		c1.8,0.8,3.4,2,4.7,3.4s2.3,3,3.1,4.9c0.7,1.9,1.1,3.8,1.1,5.9c0,2.1-0.4,4-1.1,5.9c-0.7,1.9-1.7,3.5-3.1,4.9
		c-1.3,1.4-2.9,2.5-4.7,3.3S599,107.7,596.8,107.7z M586,92.4c0,1.7,0.3,3.2,0.9,4.7c0.6,1.4,1.3,2.7,2.3,3.8c1,1.1,2.1,1.9,3.4,2.5
		s2.7,0.9,4.2,0.9s2.9-0.3,4.2-0.9c1.3-0.6,2.5-1.5,3.5-2.6c1-1.1,1.8-2.4,2.3-3.8s0.9-3,0.9-4.7c0-1.6-0.3-3.2-0.9-4.7
		c-0.6-1.5-1.4-2.7-2.3-3.8c-1-1.1-2.1-1.9-3.5-2.6c-1.3-0.6-2.7-0.9-4.2-0.9s-2.9,0.3-4.2,0.9c-1.3,0.6-2.4,1.5-3.4,2.6
		c-1,1.1-1.8,2.4-2.3,3.9S586,90.7,586,92.4z"/>
</g>
<g class="st0">
	<path class="st1" d="M632,105.7c-0.2,0.1-0.6,0.3-1,0.5c-0.4,0.2-0.9,0.4-1.5,0.6s-1.2,0.4-1.9,0.5s-1.5,0.2-2.3,0.2
		c-0.8,0-1.6-0.1-2.4-0.3s-1.4-0.6-2-1.1c-0.6-0.5-1-1.1-1.4-1.8c-0.3-0.7-0.5-1.6-0.5-2.5V80.4h-4.1v-3.1h4.1V67.3h3.9v10.1h6.9
		v3.1h-6.9v20.2c0.1,1.1,0.5,1.9,1.2,2.4c0.7,0.5,1.5,0.8,2.4,0.8c1.1,0,2.1-0.2,2.9-0.5c0.8-0.4,1.4-0.6,1.6-0.8L632,105.7z"/>
</g>
<g>
	<path class="st1" d="M631,178H89c-49.1,0-89-39.9-89-89C0,39.9,39.9,0,89,0h542c49.1,0,89,39.9,89,89C720,138.1,680.1,178,631,178z
		 M89,4C42.1,4,4,42.1,4,89s38.1,85,85,85h542c46.9,0,85-38.1,85-85S677.9,4,631,4H89z"/>
</g>
</svg>
