<svg id="Layer_1" data-name="Layer 1" xmlns="http://www.w3.org/2000/svg" viewBox="0 0 283.07 345.49"><defs><style>.cls-1{fill:#fff;stroke:#44d3d6;stroke-miterlimit:10;stroke-width:5px;}</style></defs><title>icon_untersuchung</title><path class="cls-1" d="M813.6,1285.84a45.44,45.44,0,0,0-45,39.72H705.78V1290.8A22.92,22.92,0,0,0,720,1280.17l73.32-124a23.12,23.12,0,0,0-19.89-34.91H760.54a19.84,19.84,0,0,0-17.87-11.35c-9.06,0-31.21,7-31.21,19.86s22.15,19.86,31.21,19.86a19.83,19.83,0,0,0,19.57-17h11.19a11.78,11.78,0,0,1,10.12,17.78l-73.32,124a11.78,11.78,0,0,1-20.29-.06l-75.37-123.95a11.77,11.77,0,0,1,10.12-17.77H638a19.84,19.84,0,0,0,19.58,17c9.06,0,31.21-7,31.21-19.86s-22.15-19.86-31.21-19.86a19.84,19.84,0,0,0-17.87,11.35h-15a23.12,23.12,0,0,0-19.86,35l75.37,123.95a22.88,22.88,0,0,0,14.22,10.62v34.76H643.36A62.42,62.42,0,1,0,705.78,1388v-51.07h62.81a45.38,45.38,0,1,0,45-51.07Zm-70.94-147.55c-7,0-19.06-5.61-19.85-8.51.79-2.9,12.85-8.51,19.85-8.51a8.51,8.51,0,0,1,0,17Zm-85.12-17c7,0,19.06,5.61,19.85,8.51-.79,2.9-12.85,8.51-19.85,8.51a8.51,8.51,0,0,1,0-17ZM694.43,1388a51.07,51.07,0,1,1-51.07-51.07h51.07Zm119.17-22.7a34,34,0,1,1,34-34A34.08,34.08,0,0,1,813.6,1365.29Z" transform="translate(-578.43 -1107.42)"/><path class="cls-1" d="M813.6,1308.54a22.7,22.7,0,1,0,22.7,22.7A22.72,22.72,0,0,0,813.6,1308.54Zm0,34A11.35,11.35,0,1,1,825,1331.24,11.36,11.36,0,0,1,813.6,1342.59Z" transform="translate(-578.43 -1107.42)"/></svg>