<svg id="Layer_1" data-name="Layer 1" xmlns="http://www.w3.org/2000/svg" viewBox="0 0 329.5 350.69"><defs><style>.cls-1,.cls-3{fill:none;stroke:#fff;}.cls-1,.cls-3,.cls-4{stroke-miterlimit:10;}.cls-1{stroke-width:5px;}.cls-2{fill:#fff;}.cls-3{stroke-width:4px;}.cls-4{fill:#f7f7f6;stroke:#44d3d6;stroke-width:2px;}</style></defs><title>icon_verhüttung</title><path class="cls-1" d="M666.82,1433.49H565.38c-4.53,0-8.2,4.3-8.2,9.61s3.67,9.61,8.2,9.61H666.82c4.53,0,8.2-4.3,8.2-9.61s-3.67-9.61-8.2-9.61Z" transform="translate(-554.68 -1104.53)"/><path class="cls-1" d="M565.55,1217a3.77,3.77,0,0,0,2.23,3.42v209.81h96.63V1220.43a3.73,3.73,0,0,0,0-6.83v-3.31a3.73,3.73,0,0,0,0-6.84v-.61s0,0,0-.07c0-.66,0-1.54,0-2.6a3.74,3.74,0,0,0-.32-7c-.07-1-.14-1.91-.22-2.85,0-.21,0-.43-.06-.64a3.78,3.78,0,0,0-.74-6.6c-2.39-17.74-8.88-40.85-26.44-44.94l0,0s0-.14,0-.2c.29-2.08-2.21-30.9-19.35-30.9H615c-17.89,0-19.64,28.82-19.35,30.9,0,.06,0,.2,0,.2l0,0c-17.56,4.09-24,27.2-26.44,44.94a3.78,3.78,0,0,0-.75,6.6c0,.21,0,.43-.06.64-.08.94-.15,1.89-.22,2.85a3.74,3.74,0,0,0-.32,7c0,1.06,0,1.94,0,2.6,0,0,0,0,0,.07v.61a3.73,3.73,0,0,0,0,6.84v3.31a3.77,3.77,0,0,0-2.23,3.41Z" transform="translate(-554.68 -1104.53)"/><path class="cls-2" d="M583.48,1229.42a2.34,2.34,0,0,1-2.33-2.13c-5.35-59.19,15.56-76.78,16.46-77.49a2.34,2.34,0,0,1,2.94,3.63c-.25.21-19.83,17.17-14.74,73.44a2.34,2.34,0,0,1-2.12,2.54Z" transform="translate(-554.68 -1104.53)"/><path class="cls-3" d="M867.37,1121.71a14.81,14.81,0,0,1,14.81,14.81v301.38a14.81,14.81,0,0,1-14.81,14.81H776.88a14.81,14.81,0,0,1-14.81-14.81V1136.53a14.81,14.81,0,0,1,14.81-14.81Z" transform="translate(-554.68 -1104.53)"/><path class="cls-2" d="M823.83,1145.72a7.23,7.23,0,0,1,7.23,7.23V1400.6a7.23,7.23,0,0,1-7.23,7.23h0a7.23,7.23,0,0,1-7.23-7.23V1152.95a7.23,7.23,0,0,1,7.23-7.23Z" transform="translate(-554.68 -1104.53)"/><path class="cls-4" d="M787.93,1442.42A14.41,14.41,0,1,0,773.52,1428a14.41,14.41,0,0,0,14.41,14.41Z" transform="translate(-554.68 -1104.53)"/><path class="cls-4" d="M787.93,1411.49a14.41,14.41,0,1,0-14.41-14.41,14.41,14.41,0,0,0,14.41,14.41Z" transform="translate(-554.68 -1104.53)"/><path class="cls-4" d="M787.93,1380.57a14.41,14.41,0,1,0-14.41-14.41,14.41,14.41,0,0,0,14.41,14.41Z" transform="translate(-554.68 -1104.53)"/><path class="cls-4" d="M787.93,1349.64a14.41,14.41,0,1,0-14.41-14.41,14.41,14.41,0,0,0,14.41,14.41Z" transform="translate(-554.68 -1104.53)"/><path class="cls-4" d="M787.93,1318.72a14.41,14.41,0,1,0-14.41-14.41,14.41,14.41,0,0,0,14.41,14.41Z" transform="translate(-554.68 -1104.53)"/><path class="cls-4" d="M787.93,1287.79a14.41,14.41,0,1,0-14.41-14.41,14.41,14.41,0,0,0,14.41,14.41Z" transform="translate(-554.68 -1104.53)"/><path class="cls-4" d="M787.93,1256.87a14.41,14.41,0,1,0-14.41-14.41,14.41,14.41,0,0,0,14.41,14.41Z" transform="translate(-554.68 -1104.53)"/><path class="cls-4" d="M787.93,1225.94a14.41,14.41,0,1,0-14.41-14.41,14.41,14.41,0,0,0,14.41,14.41Z" transform="translate(-554.68 -1104.53)"/><path class="cls-4" d="M787.93,1195a14.41,14.41,0,1,0-14.41-14.41A14.41,14.41,0,0,0,787.93,1195Z" transform="translate(-554.68 -1104.53)"/><path class="cls-4" d="M787.93,1164.09a14.41,14.41,0,1,0-14.41-14.41,14.41,14.41,0,0,0,14.41,14.41Z" transform="translate(-554.68 -1104.53)"/><path class="cls-4" d="M823.88,1442.42A14.41,14.41,0,1,0,809.47,1428a14.42,14.42,0,0,0,14.41,14.41Z" transform="translate(-554.68 -1104.53)"/><path class="cls-4" d="M857.62,1442.42A14.41,14.41,0,1,0,843.21,1428a14.42,14.42,0,0,0,14.41,14.41Z" transform="translate(-554.68 -1104.53)"/><path class="cls-4" d="M857.62,1411.49a14.41,14.41,0,1,0-14.41-14.41,14.41,14.41,0,0,0,14.41,14.41Z" transform="translate(-554.68 -1104.53)"/><path class="cls-4" d="M857.62,1380.57a14.41,14.41,0,1,0-14.41-14.41,14.41,14.41,0,0,0,14.41,14.41Z" transform="translate(-554.68 -1104.53)"/><path class="cls-4" d="M857.62,1349.64a14.41,14.41,0,1,0-14.41-14.41,14.42,14.42,0,0,0,14.41,14.41Z" transform="translate(-554.68 -1104.53)"/><path class="cls-4" d="M857.62,1318.72a14.41,14.41,0,1,0-14.41-14.41,14.41,14.41,0,0,0,14.41,14.41Z" transform="translate(-554.68 -1104.53)"/><path class="cls-4" d="M857.62,1287.79a14.41,14.41,0,1,0-14.41-14.41,14.41,14.41,0,0,0,14.41,14.41Z" transform="translate(-554.68 -1104.53)"/><path class="cls-4" d="M857.62,1256.87a14.41,14.41,0,1,0-14.41-14.41,14.42,14.42,0,0,0,14.41,14.41Z" transform="translate(-554.68 -1104.53)"/><path class="cls-4" d="M857.62,1225.94a14.41,14.41,0,1,0-14.41-14.41,14.42,14.42,0,0,0,14.41,14.41Z" transform="translate(-554.68 -1104.53)"/><path class="cls-4" d="M857.62,1195a14.41,14.41,0,1,0-14.41-14.41A14.41,14.41,0,0,0,857.62,1195Z" transform="translate(-554.68 -1104.53)"/><path class="cls-4" d="M857.62,1164.09a14.41,14.41,0,1,0-14.41-14.41,14.41,14.41,0,0,0,14.41,14.41Z" transform="translate(-554.68 -1104.53)"/></svg>