<svg id="Layer_1" data-name="Layer 1" xmlns="http://www.w3.org/2000/svg" viewBox="0 0 204.14 316"><defs><style>.cls-1{fill:#fff;stroke:#44d3d6;stroke-miterlimit:10;stroke-width:4px;}</style></defs><title>icon_frauengesundheit</title><path class="cls-1" d="M820.09,1223.51a100.07,100.07,0,1,0-106.37,99.85v51.38H673.85c-4.25,0-7.69,3.06-7.69,6.84s3.45,6.84,7.69,6.84h39.87v39.33c0,4.25,2.82,7.69,6.3,7.69s6.3-3.45,6.3-7.69v-39.33h39.87c4.25,0,7.69-3.06,7.69-6.84s-3.45-6.84-7.69-6.84H726.32v-51.38A100.19,100.19,0,0,0,820.09,1223.51Zm-188.37,0a88.3,88.3,0,1,1,88.3,88.3A88.39,88.39,0,0,1,631.72,1223.51Z" transform="translate(-617.95 -1121.43)"/></svg>