<svg id="Layer_1" data-name="Layer 1" xmlns="http://www.w3.org/2000/svg" viewBox="0 0 330.9 330.9"><defs><style>.cls-1{fill:#ecf0f1;}.cls-2{fill:#00b7ba;}.cls-3{fill:#f0ba7d;}.cls-4{fill:#f45b7a;}.cls-5{fill:#eef3f7;}.cls-6{fill:#fff;}.cls-7{fill:#fed298;}.cls-8{fill:#42210b;}.cls-9{fill:#fefefe;}.cls-10{fill:#ebecec;}.cls-11{fill:#4d4d4d;}.cls-12{fill:#076673;}.cls-13{fill:#666;}.cls-14{fill:#0f7986;}</style></defs><title>img_med</title><circle class="cls-1" cx="165.45" cy="165.45" r="165.45"/><circle class="cls-2" cx="165.45" cy="165.45" r="165.45"/><path class="cls-3" d="M701.71,1268.12l-4.5,22.59-15.06,5.18,8.91,140.63,57.31-.33,2.68-143-9.62-3-4.9-23-34.82,1Z" transform="translate(-554 -1113.9)"/><path class="cls-4" d="M678.73,1335.13c25.08,12.16,50.87,14.71,78,.69l-.93,105a166.58,166.58,0,0,1-78-1.27Z" transform="translate(-554 -1113.9)"/><path class="cls-5" d="M746.27,1291.94,790,1303.85c11.33,3.5,21.45,10.2,21.77,22.23l2.4,89a165.16,165.16,0,0,1-32.1,17.5l-2.79-49.2-7.65,53.06a165.12,165.12,0,0,1-52.13,8.39l-1.42,0,0-45.1Z" transform="translate(-554 -1113.9)"/><path class="cls-6" d="M745.86,1291.63l5.76,2.32,19.64,29.48-23-.37,14.27,7.63-44.49,69,27.84-108.06Z" transform="translate(-554 -1113.9)"/><path class="cls-6" d="M695.17,1291.48l-43.89,11.14c-11.39,3.3-21.63,9.82-22.16,21.85l-4,90.77a165.2,165.2,0,0,0,31.79,17.3l3.74-50.24,6.83,54.15a165.11,165.11,0,0,0,50.6,8.34l0-45.1-22.84-108.2Z" transform="translate(-554 -1113.9)"/><path class="cls-5" d="M695.59,1291.18l-6.86,2.63-19.09,28.72,23,0-14.4,7.38L718,1399.68l-22.42-108.5Z" transform="translate(-554 -1113.9)"/><path class="cls-7" d="M672,1213.95c-.73,7.4.75,23.84,9.73,23.22,0,0,12.93,37.68,37.82,41.94,21.49-3.93,34.56-38,35.55-41.3,3,1,11.24-12.77,4.89-24-1.82-3.23-7-.62-7-.62l-.4-9.41c-34,3.3-55.13-29.54-55.13-29.54-12.94,14.08-16.06,22.12-17.44,39.63a11.53,11.53,0,0,0-5.13-1.57,5,5,0,0,0-2.92,1.69Z" transform="translate(-554 -1113.9)"/><path class="cls-8" d="M697.21,1290.72l4.4-22.09c-12.74-12.54-19.38-31.46-19.38-31.46-8.68,1-12.17-23-6.33-23.79a8.49,8.49,0,0,1,4.46.45c1.32-18.49,4.88-24.11,17.13-39.63,0,0,21.4,36,55.33,32.71l.49,7.76c1.6-1.58,4.54-3.06,7,1,4,6.54-1.22,21.39-6,22.3-.68,2.29-6,19.19-17.39,30.77l4.58,21.5c12.73,4.12,25,7.31,37.33,10.58-6.26-38.16-9.85-79.45-17.32-114.69-7.17-33.82-46.38-43.28-68.93-28.26,0,0-19.44,7.83-23,33.81s-2.19,28.48-2.19,28.48l-6.26,80c11.62-2.95,25.07-5.62,36.14-9.43Z" transform="translate(-554 -1113.9)"/><path class="cls-9" d="M779.25,1384.64A11.86,11.86,0,1,1,793,1375,11.86,11.86,0,0,1,779.25,1384.64Z" transform="translate(-554 -1113.9)"/><path class="cls-4" d="M779.37,1384a11.17,11.17,0,1,1,12.91-9.11A11.17,11.17,0,0,1,779.37,1384Z" transform="translate(-554 -1113.9)"/><path class="cls-10" d="M780.22,1379a6.18,6.18,0,1,1,7.14-5,6.18,6.18,0,0,1-7.14,5Z" transform="translate(-554 -1113.9)"/><path class="cls-9" d="M780.95,1367.52l2.72.47,1.46-8.46-2.72-.47-1.46,8.46Z" transform="translate(-554 -1113.9)"/><path class="cls-4" d="M690,1387l5.09-1a8,8,0,0,0,6.3-9.42l-6-30.16c-2.26-11.38-11.16-17.19-21.34-18.47a38.38,38.38,0,0,0-23.16,4.59c-8.89,5.06-14.88,13.82-12.62,25.22l6,30.16a8,8,0,0,0,3.41,5.1h0a8,8,0,0,0,6,1.21l5.09-1-.42-2.1-5.09,1a5.87,5.87,0,0,1-4.41-.88h0a5.88,5.88,0,0,1-2.5-3.74l-6-30.16c-2.05-10.34,3.44-18.32,11.57-22.95a36.21,36.21,0,0,1,21.85-4.33c9.31,1.18,17.46,6.45,19.5,16.78l6,30.16a5.89,5.89,0,0,1-4.62,6.91l-5.09,1,.42,2.1Z" transform="translate(-554 -1113.9)"/><path class="cls-11" d="M697,1350.86l-.91-4.61c-2.33-11.73-11.49-17.72-22-19a39.08,39.08,0,0,0-23.6,4.68c-9.14,5.21-15.3,14.22-13,26l.92,4.61,3.49-.69-.91-4.61c-2-10,3.34-17.7,11.22-22.19a35.53,35.53,0,0,1,21.42-4.25c9,1.14,16.91,6.24,18.89,16.21l.91,4.61,3.49-.69Z" transform="translate(-554 -1113.9)"/><path class="cls-12" d="M654.72,1394.44l2.72-.54a3,3,0,1,0-.59-3l-2.72.54Z" transform="translate(-554 -1113.9)"/><path class="cls-12" d="M692.13,1387l-2.72.54a3,3,0,1,1-.59-3l2.72-.54.59,3Z" transform="translate(-554 -1113.9)"/><path class="cls-13" d="M663.61,1327.42l-1-5.23-2.06.41-2.06.41,1.05,5.28q1.18-.35,2.39-.58Q662.74,1327.54,663.61,1327.42Z" transform="translate(-554 -1113.9)"/><path class="cls-14" d="M659.15,1391.53a.9.9,0,1,0-1.06-.71.9.9,0,0,0,1.06.71Z" transform="translate(-554 -1113.9)"/><path class="cls-14" d="M686.07,1386.18a.9.9,0,1,0-1.06-.71A.9.9,0,0,0,686.07,1386.18Z" transform="translate(-554 -1113.9)"/><path class="cls-9" d="M779.89,1379a5.85,5.85,0,1,1,6.76-4.77A5.85,5.85,0,0,1,779.89,1379Z" transform="translate(-554 -1113.9)"/><path class="cls-11" d="M688.79,1293.93c-.09,0-32.23.27-26.8,28.38l-3,.57c-6.12-31.69,29.65-32,29.75-32l0,3Z" transform="translate(-554 -1113.9)"/><path class="cls-11" d="M752.91,1291a30.41,30.41,0,0,1,23.18,11.06c7.63,9.29,13,26.34,9,57.6l-3-.38c3.87-30.26-1.13-46.55-8.32-55.29a27.43,27.43,0,0,0-20.9-10l.07-3Z" transform="translate(-554 -1113.9)"/></svg>