<svg id="Layer_1" data-name="Layer 1" xmlns="http://www.w3.org/2000/svg" viewBox="0 0 126.91 104.56"><defs><style>.cls-1{fill:#fff;}</style></defs><title>loudspeaker_white</title><path class="cls-1" d="M703.9,1000.08l-40.66,28.61H649.6a11,11,0,0,0-11,11v24.79a11,11,0,0,0,11,11h13.64L703.89,1104a1.77,1.77,0,0,0,2.79-1.44V1001.52A1.83,1.83,0,0,0,703.9,1000.08ZM662,1071.86H649.6a7.43,7.43,0,0,1-7.42-7.42v-24.79a7.43,7.43,0,0,1,7.42-7.42H662Zm41.17,27.31-37.63-26.46v-41.32l37.63-26.47Z" transform="translate(-638.64 -999.79)"/><path class="cls-1" d="M726.66,1023.56a1.61,1.61,0,0,0-1.1-.41,1.84,1.84,0,0,0-1.34.58,1.77,1.77,0,0,0,0,2.4,36.81,36.81,0,0,1-.07,51.9,1.77,1.77,0,0,0,2.55,2.46A40.41,40.41,0,0,0,726.66,1023.56Z" transform="translate(-638.64 -999.79)"/><path class="cls-1" d="M746.47,1005.78a1.77,1.77,0,0,0-1.26-.52h0a1.74,1.74,0,0,0-1.24.51,1.78,1.78,0,0,0,0,2.51,62.05,62.05,0,0,1,0,87.53,1.72,1.72,0,0,0-.41,1.2,1.75,1.75,0,0,0,.56,1.23,1.77,1.77,0,0,0,2.41,0l.35-.33A65.63,65.63,0,0,0,746.47,1005.78Z" transform="translate(-638.64 -999.79)"/></svg>