<?xml version="1.0" encoding="utf-8"?>
<!-- Generator: Adobe Illustrator 21.0.0, SVG Export Plug-In . SVG Version: 6.00 Build 0)  -->
<svg version="1.1" id="Layer_1" xmlns="http://www.w3.org/2000/svg" xmlns:xlink="http://www.w3.org/1999/xlink" x="0px" y="0px"
	 viewBox="0 0 720 178" style="enable-background:new 0 0 720 178;" xml:space="preserve">
<style type="text/css">
	.st0{enable-background:new    ;}
	.st1{fill:#FFFFFF;}
</style>
<title>im_calendar_hinzufugen</title>
<g class="st0">
	<path class="st1" d="M53.6,107.1V66.5h4v40.6H53.6z"/>
	<path class="st1" d="M111.2,107.1h-3.9V90.5c0-3.5-0.6-6-1.7-7.7c-1.1-1.6-2.7-2.5-4.9-2.5c-1.1,0-2.2,0.2-3.2,0.6
		c-1,0.4-1.9,1-2.8,1.8c-0.9,0.8-1.6,1.7-2.3,2.7c-0.6,1-1.1,2.2-1.5,3.5v18.2h-3.9V90.5c0-3.5-0.5-6.1-1.6-7.7
		c-1.1-1.6-2.7-2.4-4.9-2.4c-2.2,0-4.2,0.8-6,2.3c-1.8,1.6-3,3.6-3.8,6.2v18.2H67V77.3h3.5v6.7c1.2-2.3,2.8-4.1,4.8-5.3
		c2-1.3,4.2-1.9,6.6-1.9c2.5,0,4.5,0.7,6,2.1c1.5,1.4,2.4,3.3,2.8,5.5c2.8-5.1,6.6-7.7,11.5-7.7c1.7,0,3.1,0.3,4.3,0.9
		c1.2,0.6,2.1,1.5,2.8,2.6c0.7,1.1,1.2,2.5,1.5,4.1c0.3,1.6,0.5,3.3,0.5,5.3V107.1z"/>
	<path class="st1" d="M132.1,86.5c0-2.4,0.4-4.9,1.3-7.3c0.9-2.4,2.1-4.6,3.7-6.5c1.6-1.9,3.7-3.5,6.1-4.7c2.4-1.2,5.1-1.8,8.2-1.8
		c3.6,0,6.7,0.8,9.3,2.5c2.6,1.6,4.5,3.8,5.7,6.4l-3.1,1.9c-0.6-1.3-1.4-2.5-2.4-3.4c-0.9-0.9-1.9-1.7-3-2.2c-1.1-0.6-2.2-1-3.3-1.2
		s-2.3-0.4-3.4-0.4c-2.4,0-4.6,0.5-6.5,1.5c-1.9,1-3.4,2.3-4.7,3.9c-1.3,1.6-2.2,3.4-2.9,5.4c-0.6,2-1,4-1,6.1
		c0,2.2,0.4,4.4,1.2,6.5c0.8,2.1,1.8,3.9,3.2,5.5c1.4,1.6,3,2.8,4.8,3.8c1.8,0.9,3.9,1.4,6,1.4c1.1,0,2.3-0.1,3.5-0.4
		c1.2-0.3,2.4-0.7,3.5-1.4c1.1-0.6,2.2-1.4,3.1-2.3c1-0.9,1.8-2.1,2.4-3.4l3.3,1.7c-0.6,1.5-1.6,2.9-2.7,4c-1.2,1.2-2.5,2.1-3.9,2.9
		c-1.4,0.8-3,1.4-4.6,1.8c-1.6,0.4-3.2,0.6-4.8,0.6c-2.8,0-5.3-0.6-7.7-1.8c-2.3-1.2-4.3-2.8-6-4.8c-1.7-2-3-4.2-3.9-6.7
		C132.6,91.7,132.1,89.1,132.1,86.5z"/>
	<path class="st1" d="M180.7,107.7c-1.4,0-2.7-0.2-3.9-0.7s-2.2-1.1-3.1-2c-0.9-0.8-1.6-1.8-2.1-2.9c-0.5-1.1-0.7-2.3-0.7-3.6
		c0-1.3,0.3-2.5,0.9-3.6c0.6-1.1,1.5-2.1,2.6-2.9c1.1-0.8,2.4-1.4,3.9-1.9c1.5-0.4,3.2-0.7,5-0.7c1.5,0,3.1,0.1,4.6,0.4
		c1.6,0.3,3,0.6,4.2,1.1v-2.7c0-2.6-0.7-4.7-2.2-6.3c-1.5-1.5-3.5-2.3-6.2-2.3c-1.5,0-3.1,0.3-4.7,0.9c-1.6,0.6-3.2,1.5-4.9,2.6
		l-1.4-2.6c3.8-2.6,7.6-3.9,11.2-3.9c3.7,0,6.7,1,8.8,3.1c2.1,2.1,3.2,5,3.2,8.7v13.4c0,1.1,0.5,1.6,1.4,1.6v3.4
		c-0.6,0.1-1.1,0.2-1.5,0.2c-1,0-1.8-0.2-2.3-0.7c-0.6-0.5-0.8-1.2-0.9-2.1l-0.1-2.3c-1.4,1.8-3.1,3.2-5.2,4.1
		C185.3,107.2,183.1,107.7,180.7,107.7z M181.6,104.7c2,0,3.9-0.4,5.6-1.1c1.7-0.8,3-1.8,3.9-3c0.3-0.3,0.6-0.7,0.8-1.1
		s0.3-0.8,0.3-1.1v-4.9c-1.3-0.5-2.6-0.9-4-1.1c-1.4-0.3-2.8-0.4-4.3-0.4c-2.7,0-5,0.6-6.7,1.7c-1.7,1.1-2.6,2.6-2.6,4.5
		c0,0.9,0.2,1.8,0.5,2.6c0.4,0.8,0.9,1.5,1.5,2.1c0.6,0.6,1.4,1.1,2.3,1.4C179.7,104.5,180.6,104.7,181.6,104.7z"/>
	<path class="st1" d="M204.5,65.4h3.9v35c0,1.1,0.3,2,0.9,2.6c0.6,0.6,1.5,0.9,2.6,0.9c0.4,0,0.9-0.1,1.5-0.2s1.1-0.3,1.6-0.5
		l0.7,3.1c-0.7,0.3-1.6,0.6-2.7,0.7c-1,0.2-2,0.3-2.7,0.3c-1.8,0-3.2-0.5-4.2-1.5c-1-1-1.5-2.4-1.5-4.3V65.4z"/>
	<path class="st1" d="M232.7,107.7c-2.2,0-4.2-0.4-6-1.2c-1.8-0.8-3.4-1.9-4.7-3.4c-1.3-1.4-2.4-3.1-3.1-4.9c-0.7-1.9-1.1-3.9-1.1-6
		c0-2.1,0.4-4.1,1.1-5.9c0.7-1.8,1.8-3.5,3.1-4.9c1.3-1.4,2.9-2.5,4.7-3.3c1.8-0.8,3.8-1.2,5.9-1.2c2.2,0,4.2,0.4,6,1.2
		c1.8,0.8,3.4,1.9,4.7,3.3c1.3,1.4,2.3,3,3,4.9c0.7,1.8,1.1,3.8,1.1,5.8c0,0.3,0,0.6,0,0.9s0,0.5-0.1,0.6h-25.5
		c0.1,1.6,0.5,3.1,1.1,4.4c0.6,1.4,1.4,2.5,2.4,3.5c1,1,2.1,1.8,3.4,2.3c1.3,0.6,2.6,0.8,4.1,0.8c1,0,1.9-0.1,2.9-0.4
		c1-0.3,1.8-0.6,2.6-1.1c0.8-0.5,1.5-1,2.2-1.7c0.6-0.7,1.1-1.4,1.5-2.2l3.4,0.9c-0.5,1.1-1.1,2.1-1.9,3c-0.8,0.9-1.8,1.7-2.9,2.3
		c-1.1,0.7-2.3,1.2-3.7,1.5C235.6,107.5,234.2,107.7,232.7,107.7z M243.7,90.6c-0.1-1.6-0.5-3.1-1.1-4.4s-1.4-2.4-2.4-3.4
		c-1-1-2.1-1.7-3.4-2.2c-1.3-0.5-2.6-0.8-4.1-0.8c-1.4,0-2.8,0.3-4.1,0.8c-1.3,0.5-2.4,1.3-3.4,2.2c-1,1-1.8,2.1-2.3,3.4
		c-0.6,1.3-0.9,2.8-1.1,4.3H243.7z"/>
	<path class="st1" d="M278.4,107.1h-3.9V90.5c0-3.5-0.5-6.1-1.6-7.7c-1-1.6-2.7-2.4-4.8-2.4c-1.1,0-2.3,0.2-3.4,0.6s-2.2,1-3.2,1.8
		c-1,0.8-1.8,1.7-2.6,2.7c-0.8,1-1.3,2.2-1.7,3.4v18.2h-3.9V77.3h3.5v6.7c1.2-2.2,3-3.9,5.2-5.3c2.3-1.3,4.7-2,7.4-2
		c1.6,0,3,0.3,4.2,0.9c1.1,0.6,2.1,1.5,2.7,2.6s1.2,2.5,1.5,4.1c0.3,1.6,0.5,3.4,0.5,5.3V107.1z"/>
	<path class="st1" d="M298.9,107.7c-2.1,0-4-0.4-5.7-1.3c-1.8-0.9-3.3-2-4.5-3.4s-2.2-3-2.9-4.9c-0.7-1.8-1.1-3.8-1.1-5.8
		c0-2.1,0.3-4.1,1-6c0.7-1.9,1.6-3.5,2.8-4.9c1.2-1.4,2.6-2.5,4.3-3.3c1.7-0.8,3.5-1.2,5.5-1.2c2.5,0,4.7,0.7,6.7,2
		c1.9,1.3,3.5,2.9,4.6,4.8V65.4h3.9v36.7c0,1.1,0.5,1.6,1.4,1.6v3.4c-0.6,0.1-1,0.2-1.4,0.2c-0.9,0-1.7-0.3-2.4-0.9
		c-0.7-0.6-1-1.3-1-2.1v-2.9c-1.2,1.9-2.8,3.5-4.8,4.6C303.2,107.1,301.1,107.7,298.9,107.7z M299.8,104.2c1,0,2-0.2,3.1-0.6
		s2.1-0.9,3.1-1.6c1-0.7,1.8-1.4,2.4-2.3c0.7-0.9,1.1-1.9,1.2-2.9v-9.2c-0.4-1-0.9-2-1.7-2.9c-0.7-0.9-1.6-1.7-2.5-2.4
		c-0.9-0.7-1.9-1.2-3-1.6c-1.1-0.4-2.1-0.6-3.1-0.6c-1.6,0-3,0.3-4.3,1c-1.3,0.7-2.4,1.6-3.3,2.7c-0.9,1.1-1.6,2.4-2.1,3.9
		c-0.5,1.4-0.7,2.9-0.7,4.5c0,1.6,0.3,3.1,0.9,4.6c0.6,1.4,1.4,2.7,2.3,3.8c1,1.1,2.2,2,3.5,2.6
		C296.8,103.9,298.2,104.2,299.8,104.2z"/>
	<path class="st1" d="M329.7,107.7c-1.4,0-2.7-0.2-3.9-0.7s-2.2-1.1-3.1-2c-0.9-0.8-1.6-1.8-2.1-2.9c-0.5-1.1-0.7-2.3-0.7-3.6
		c0-1.3,0.3-2.5,0.9-3.6c0.6-1.1,1.5-2.1,2.6-2.9c1.1-0.8,2.4-1.4,3.9-1.9c1.5-0.4,3.2-0.7,5-0.7c1.5,0,3.1,0.1,4.6,0.4
		c1.6,0.3,3,0.6,4.2,1.1v-2.7c0-2.6-0.7-4.7-2.2-6.3c-1.5-1.5-3.5-2.3-6.2-2.3c-1.5,0-3.1,0.3-4.7,0.9c-1.6,0.6-3.2,1.5-4.9,2.6
		l-1.4-2.6c3.8-2.6,7.6-3.9,11.2-3.9c3.7,0,6.7,1,8.8,3.1c2.1,2.1,3.2,5,3.2,8.7v13.4c0,1.1,0.5,1.6,1.4,1.6v3.4
		c-0.6,0.1-1.1,0.2-1.5,0.2c-1,0-1.8-0.2-2.3-0.7c-0.6-0.5-0.8-1.2-0.9-2.1l-0.1-2.3c-1.4,1.8-3.1,3.2-5.2,4.1
		C334.4,107.2,332.1,107.7,329.7,107.7z M330.6,104.7c2,0,3.9-0.4,5.6-1.1c1.7-0.8,3-1.8,3.9-3c0.3-0.3,0.6-0.7,0.8-1.1
		s0.3-0.8,0.3-1.1v-4.9c-1.3-0.5-2.6-0.9-4-1.1c-1.4-0.3-2.8-0.4-4.3-0.4c-2.7,0-5,0.6-6.7,1.7c-1.7,1.1-2.6,2.6-2.6,4.5
		c0,0.9,0.2,1.8,0.5,2.6c0.4,0.8,0.9,1.5,1.5,2.1c0.6,0.6,1.4,1.1,2.3,1.4C328.7,104.5,329.6,104.7,330.6,104.7z"/>
</g>
<g class="st0">
	<path class="st1" d="M368.2,80.8c-2.6,0.1-4.9,0.8-6.9,2.2c-1.9,1.4-3.3,3.3-4.1,5.7v18.5h-3.9V77.3h3.7v7.1
		c1.1-2.3,2.6-4.1,4.5-5.4c1.9-1.3,3.9-1.9,6-1.9c0.3,0,0.6,0,0.7,0.1V80.8z"/>
</g>
<g class="st0">
	<path class="st1" d="M411.6,107.1h-3.9V90.5c0-3.4-0.6-5.9-1.7-7.6s-2.9-2.5-5.1-2.5c-1.1,0-2.2,0.2-3.3,0.7
		c-1.1,0.4-2.1,1-3.1,1.8c-1,0.8-1.8,1.7-2.5,2.7c-0.7,1-1.2,2.2-1.6,3.4v18.2h-3.9V65.4h3.9v18.7c1.2-2.2,2.8-4,4.9-5.3
		s4.4-1.9,6.8-1.9c1.7,0,3.2,0.3,4.3,0.9c1.2,0.6,2.2,1.5,2.9,2.6c0.8,1.1,1.3,2.5,1.7,4.1c0.3,1.6,0.5,3.3,0.5,5.2V107.1z"/>
	<path class="st1" d="M419.9,71.1v-5.7h3.9v5.7H419.9z M419.9,107.1V77.3h3.9v29.8H419.9z"/>
	<path class="st1" d="M457.3,107.1h-3.9V90.5c0-3.5-0.5-6.1-1.6-7.7c-1-1.6-2.7-2.4-4.8-2.4c-1.1,0-2.3,0.2-3.4,0.6s-2.2,1-3.2,1.8
		s-1.8,1.7-2.6,2.7c-0.8,1-1.3,2.2-1.7,3.4v18.2h-3.9V77.3h3.5v6.7c1.2-2.2,3-3.9,5.2-5.3c2.3-1.3,4.7-2,7.4-2c1.6,0,3,0.3,4.2,0.9
		s2.1,1.5,2.7,2.6s1.2,2.5,1.5,4.1c0.3,1.6,0.5,3.4,0.5,5.3V107.1z"/>
	<path class="st1" d="M463.1,104.5l20.1-24.2h-19.6v-2.9h23.9V80l-20,24.2h20v2.9h-24.3V104.5z"/>
	<path class="st1" d="M503,107.7c-3.2,0-5.6-1.1-7.2-3.2c-1.6-2.2-2.4-5.4-2.4-9.6V77.3h3.9v16.8c0,6.7,2.3,10.1,6.9,10.1
		c1.1,0,2.3-0.2,3.4-0.6s2.1-0.9,3.1-1.7c0.9-0.7,1.8-1.6,2.5-2.6c0.7-1,1.3-2.1,1.8-3.4V77.3h3.9v24.7c0,1.1,0.5,1.6,1.4,1.6v3.4
		c-0.5,0.1-0.8,0.1-1.1,0.1c-0.3,0-0.5,0-0.6,0c-0.9,0-1.7-0.4-2.2-1s-0.9-1.4-0.9-2.5v-3.4c-1.3,2.3-3.1,4.1-5.3,5.4
		C507.9,107,505.6,107.7,503,107.7z"/>
	<path class="st1" d="M529.1,107.1V80.4H525v-3.1h4.1v-0.8c0-3.7,0.8-6.5,2.3-8.6s3.7-3.1,6.4-3.1c1.2,0,2.3,0.2,3.4,0.5
		c1.1,0.3,2.1,0.8,2.9,1.4l-1.2,2.8c-0.5-0.4-1.2-0.7-2-1c-0.8-0.2-1.6-0.3-2.4-0.3c-1.8,0-3.2,0.7-4.2,2.1c-1,1.4-1.4,3.4-1.4,6.1
		v0.9h8.2v3.1H533v26.7H529.1z"/>
	<path class="st1" d="M555.8,107.7c-3.2,0-5.6-1.1-7.2-3.2c-1.6-2.2-2.4-5.4-2.4-9.6V77.3h3.9v16.8c0,6.7,2.3,10.1,6.9,10.1
		c1.1,0,2.3-0.2,3.4-0.6s2.1-0.9,3.1-1.7c0.9-0.7,1.8-1.6,2.5-2.6c0.7-1,1.3-2.1,1.8-3.4V77.3h3.9v24.7c0,1.1,0.5,1.6,1.4,1.6v3.4
		c-0.5,0.1-0.8,0.1-1.1,0.1s-0.5,0-0.6,0c-0.9,0-1.7-0.4-2.2-1c-0.6-0.6-0.9-1.4-0.9-2.5v-3.4c-1.3,2.3-3.1,4.1-5.3,5.4
		C560.7,107,558.3,107.7,555.8,107.7z M552.9,70.9v-5.4h3.3v5.4H552.9z M561.4,70.9v-5.4h3.3v5.4H561.4z"/>
	<path class="st1" d="M592.4,107.5c-2.1,0-3.9-0.4-5.6-1.3c-1.7-0.9-3.2-2-4.4-3.4c-1.2-1.4-2.2-3-2.9-4.9c-0.7-1.8-1-3.7-1-5.7
		c0-2.1,0.3-4,1-5.9c0.7-1.9,1.6-3.5,2.8-4.9c1.2-1.4,2.7-2.5,4.4-3.4c1.7-0.8,3.6-1.3,5.6-1.3c2.6,0,4.8,0.6,6.6,1.9
		c1.9,1.3,3.5,2.9,4.8,4.8v-6.2h3.5v29.9c0,2.1-0.4,3.9-1.2,5.5c-0.8,1.6-1.8,2.9-3.1,4c-1.3,1.1-2.9,1.9-4.6,2.4
		c-1.8,0.5-3.6,0.8-5.6,0.8c-3.4,0-6.2-0.6-8.3-1.8c-2.1-1.2-3.8-2.9-5.1-4.9l2.4-1.9c1.2,1.9,2.7,3.3,4.7,4.2
		c1.9,0.9,4,1.3,6.3,1.3c1.4,0,2.8-0.2,4.1-0.6c1.3-0.4,2.4-1,3.4-1.8c1-0.8,1.7-1.8,2.3-3c0.6-1.2,0.9-2.6,0.9-4.2v-5.9
		c-1.1,1.9-2.7,3.4-4.7,4.5C596.6,106.9,594.5,107.5,592.4,107.5z M593.5,104.2c1.1,0,2.3-0.2,3.4-0.6c1.1-0.4,2.1-1,3-1.7
		c0.9-0.7,1.6-1.5,2.3-2.4c0.6-0.9,1-1.8,1.2-2.7v-9.2c-0.4-1.1-1-2.1-1.7-3c-0.7-0.9-1.5-1.7-2.5-2.3c-0.9-0.6-1.9-1.2-2.9-1.5
		c-1-0.4-2.1-0.6-3.2-0.6c-1.7,0-3.2,0.4-4.5,1.1c-1.3,0.7-2.4,1.6-3.3,2.8s-1.6,2.4-2.1,3.9c-0.5,1.4-0.7,2.9-0.7,4.4
		c0,1.6,0.3,3.1,0.9,4.6c0.6,1.4,1.4,2.7,2.4,3.8c1,1.1,2.2,1.9,3.5,2.6C590.5,103.9,591.9,104.2,593.5,104.2z"/>
	<path class="st1" d="M628.6,107.7c-2.2,0-4.2-0.4-6-1.2s-3.4-1.9-4.7-3.4c-1.3-1.4-2.4-3.1-3.1-4.9c-0.7-1.9-1.1-3.9-1.1-6
		c0-2.1,0.4-4.1,1.1-5.9c0.7-1.8,1.8-3.5,3.1-4.9c1.3-1.4,2.9-2.5,4.7-3.3c1.8-0.8,3.8-1.2,5.9-1.2c2.2,0,4.2,0.4,6,1.2
		c1.8,0.8,3.4,1.9,4.7,3.3c1.3,1.4,2.3,3,3,4.9c0.7,1.8,1.1,3.8,1.1,5.8c0,0.3,0,0.6,0,0.9s0,0.5-0.1,0.6h-25.5
		c0.1,1.6,0.5,3.1,1.1,4.4c0.6,1.4,1.4,2.5,2.4,3.5c1,1,2.1,1.8,3.4,2.3c1.3,0.6,2.6,0.8,4.1,0.8c1,0,1.9-0.1,2.9-0.4
		c1-0.3,1.8-0.6,2.6-1.1c0.8-0.5,1.5-1,2.2-1.7c0.6-0.7,1.1-1.4,1.5-2.2l3.4,0.9c-0.5,1.1-1.1,2.1-1.9,3c-0.8,0.9-1.8,1.7-2.9,2.3
		c-1.1,0.7-2.3,1.2-3.7,1.5S630,107.7,628.6,107.7z M639.6,90.6c-0.1-1.6-0.5-3.1-1.1-4.4c-0.6-1.3-1.4-2.4-2.4-3.4
		c-1-1-2.1-1.7-3.4-2.2c-1.3-0.5-2.6-0.8-4.1-0.8c-1.4,0-2.8,0.3-4.1,0.8c-1.3,0.5-2.4,1.3-3.4,2.2c-1,1-1.8,2.1-2.3,3.4
		c-0.6,1.3-0.9,2.8-1.1,4.3H639.6z"/>
	<path class="st1" d="M674.3,107.1h-3.9V90.5c0-3.5-0.5-6.1-1.6-7.7c-1-1.6-2.7-2.4-4.8-2.4c-1.1,0-2.3,0.2-3.4,0.6s-2.2,1-3.2,1.8
		c-1,0.8-1.8,1.7-2.6,2.7c-0.8,1-1.3,2.2-1.7,3.4v18.2h-3.9V77.3h3.5v6.7c1.2-2.2,3-3.9,5.2-5.3c2.3-1.3,4.7-2,7.4-2
		c1.6,0,3,0.3,4.2,0.9c1.1,0.6,2.1,1.5,2.7,2.6s1.2,2.5,1.5,4.1c0.3,1.6,0.5,3.4,0.5,5.3V107.1z"/>
</g>
<g>
	<path class="st1" d="M631,178H89c-49.1,0-89-39.9-89-89C0,39.9,39.9,0,89,0h542c49.1,0,89,39.9,89,89C720,138.1,680.1,178,631,178z
		 M89,4C42.1,4,4,42.1,4,89s38.1,85,85,85h542c46.9,0,85-38.1,85-85S677.9,4,631,4H89z"/>
</g>
</svg>
