<svg id="Layer_1" data-name="Layer 1" xmlns="http://www.w3.org/2000/svg" viewBox="0 0 298.72 278.71"><defs><style>.cls-1{fill:#fff;stroke:#f49cae;stroke-miterlimit:10;stroke-width:4px;}</style></defs><title>icon_liebe</title><path class="cls-1" d="M1095.87,1770.71c-4.3-47.35-37.82-81.7-79.76-81.7-27.94,0-53.53,15-67.93,39.14-14.27-24.41-38.8-39.14-66.3-39.14-41.94,0-75.46,34.35-79.75,81.7-.34,2.09-1.73,13.1,2.51,31,6.11,25.89,20.22,49.44,40.8,68.09L948.12,1963l104.44-93.17c20.58-18.65,34.69-42.2,40.8-68.1C1097.6,1783.81,1096.21,1772.8,1095.87,1770.71Zm-13.55,28.45c-5.58,23.65-18.51,45.19-37.35,62.26l-96.79,86.35-95.13-86.33c-18.88-17.11-31.8-38.64-37.39-62.29-4-17-2.36-26.58-2.36-26.65l.09-.57c3.68-41.48,32.48-71.6,68.49-71.6,26.57,0,50,16.32,61.05,42.6l5.22,12.37,5.22-12.37c10.92-25.87,35.54-42.59,62.74-42.59,36,0,64.8,30.11,68.56,72.14C1084.69,1772.57,1086.34,1782.17,1082.33,1799.16Z" transform="translate(-799.64 -1687)"/></svg>