<svg id="Layer_1" data-name="Layer 1" xmlns="http://www.w3.org/2000/svg" viewBox="0 0 295.86 370.96"><defs><style>.cls-1{fill:#fff;stroke:#f49cae;stroke-miterlimit:10;stroke-width:8px;}</style></defs><title>unterstutzung</title><path class="cls-1" d="M1074.11,709h-28.49a7.12,7.12,0,0,0-6.56,4.35l-21,49.94H948.44a23.89,23.89,0,0,0-15.58-15.57V645.12a7.12,7.12,0,0,0-7.12-7.12,131.53,131.53,0,0,0-93.6,38.76l-.19.2a131.5,131.5,0,0,0-38.58,93.41v23.39a59.6,59.6,0,0,0,59.53,59.53h8.52A72.42,72.42,0,0,0,895.2,887a72.28,72.28,0,0,0-15.25,9.76,53,53,0,0,0-40.4,97.07h0a53,53,0,0,0,53,0h0a53.23,53.23,0,0,0,26-38.79h19.67a53.23,53.23,0,0,0,26,38.79h0a53,53,0,1,0,12.63-97.08A72.39,72.39,0,0,0,961.66,887a72.44,72.44,0,0,0,14.41-9.14,71.59,71.59,0,0,0,19.37-24.59h3.14a59.6,59.6,0,0,0,59.53-59.53V770.37a7.12,7.12,0,0,0-7.12-7.12h-17.54l16.88-40.06h23.77a7.12,7.12,0,0,0,0-14.23Zm-208,200.21A38.7,38.7,0,0,1,877.82,911a7,7,0,0,0,1.07.52l-8,13.94a22.69,22.69,0,0,0-9.54,0l-8.13-14.08A38.83,38.83,0,0,1,866.07,909.17Zm8.77,38.78a8.81,8.81,0,0,1-4.39,7.6,8.62,8.62,0,0,1-4.37,1.17,8.77,8.77,0,1,1,0-17.54,8.61,8.61,0,0,1,4.38,1.17A8.81,8.81,0,0,1,874.84,947.95Zm-34,29.44A39,39,0,0,1,828,955.06h16.25a23.13,23.13,0,0,0,4.77,8.26Zm3.35-36.56H828a39,39,0,0,1,12.89-22.33L849,932.57A23.12,23.12,0,0,0,844.21,940.83Zm21.87,45.9a38.85,38.85,0,0,1-12.9-2.21l8.13-14.08a22.67,22.67,0,0,0,9.54,0L879,984.52A38.83,38.83,0,0,1,866.07,986.73Zm124.72,0a38.84,38.84,0,0,1-12.9-2.21L986,970.44a22.7,22.7,0,0,0,9.54,0l8.13,14.08A38.83,38.83,0,0,1,990.79,986.73ZM982,947.95a8.8,8.8,0,0,1,4.41-7.6,8.76,8.76,0,0,1,8.75,0,8.77,8.77,0,0,1,0,15.2,8.76,8.76,0,0,1-8.77,0A8.79,8.79,0,0,1,982,947.95Zm34-29.44a39,39,0,0,1,12.89,22.33h-16.25a23.17,23.17,0,0,0-4.77-8.25Zm-3.36,36.56h16.25A39,39,0,0,1,1016,977.39l-8.12-14.07A23.15,23.15,0,0,0,1012.65,955.06Zm-21.86-45.9a38.79,38.79,0,0,1,12.89,2.21l-8.13,14.08a22.7,22.7,0,0,0-9.54,0l-8.13-14.08A38.63,38.63,0,0,1,990.79,909.17ZM925.6,760.83h.28a9.56,9.56,0,1,1-.28,0Zm-7-108.39v95.23h0a23.43,23.43,0,0,0-3.9,1.61L847.39,682A117.15,117.15,0,0,1,918.62,652.44ZM837.32,692l67.33,67.32a23.34,23.34,0,0,0-1.62,3.9H807.81A117.12,117.12,0,0,1,837.32,692Zm54,285.37-8.12-14.07a23.15,23.15,0,0,0,4.77-8.25h16.25A39,39,0,0,1,891.29,977.39Zm-3.36-36.56h0a23.18,23.18,0,0,0-4.77-8.25l8.12-14.08a39,39,0,0,1,12.89,22.33H887.93Zm77.64,36.56a39,39,0,0,1-12.89-22.33h16.25a23.11,23.11,0,0,0,4.77,8.25Zm0-58.88,8.12,14.08a23.12,23.12,0,0,0-4.77,8.25H952.68A39,39,0,0,1,965.57,918.51ZM962,903.44a53.22,53.22,0,0,0-23.74,37.39H918.6a53.22,53.22,0,0,0-23.73-37.39,59.17,59.17,0,0,1,14.54-6.74,17.77,17.77,0,0,0,15.7,9.47h6.68a17.77,17.77,0,0,0,15.7-9.47A59.2,59.2,0,0,1,962,903.44Zm-40.43-15v-2.78a3.53,3.53,0,0,1,3.52-3.52h6.68a3.53,3.53,0,0,1,3.52,3.52v2.62h0v.15a3.53,3.53,0,0,1-3.52,3.52h-6.68A3.53,3.53,0,0,1,921.57,888.42Zm45.51-21.57a58.27,58.27,0,0,1-19.62,10.5,17.77,17.77,0,0,0-15.7-9.47h-6.68a17.77,17.77,0,0,0-15.7,9.47,58.31,58.31,0,0,1-31.71-24.06H979.19A57.4,57.4,0,0,1,967.08,866.84Zm19-27.79H852.9a45.35,45.35,0,0,1-45.3-45.3V777.48H903a23.79,23.79,0,0,0,45.39,0H1012Zm57.82-61.57v16.27a45.35,45.35,0,0,1-42.32,45.19l25.9-61.46Z" transform="translate(-789.37 -634)"/></svg>