<svg id="Layer_1" data-name="Layer 1" xmlns="http://www.w3.org/2000/svg" viewBox="0 0 295.73 295.73"><defs><style>.cls-1,.cls-2{fill:#fff;stroke:#ffbe6b;stroke-miterlimit:10;}.cls-1{stroke-width:8px;}.cls-2{stroke-width:3px;}</style></defs><title>icon_fragen</title><path class="cls-1" d="M412.45,590.27c-10.16-3.38-22,0-30.47,6.77a36.15,36.15,0,0,0-13.54,28.77c0,5.08,3.38,8.46,8.46,8.46s8.46-3.38,8.46-8.46,1.69-11.85,6.77-15.23,10.16-5.08,16.93-3.38c8.46,1.69,13.54,8.46,15.23,15.23,1.69,8.46,0,15.23-6.77,20.31a50.48,50.48,0,0,0-20.31,40.62c0,5.08,3.38,8.46,8.46,8.46s8.46-3.38,6.77-8.46c0-10.16,6.77-20.31,15.23-27.08,11.85-10.16,16.93-23.7,13.54-37.24-3.39-15.23-15.23-25.39-28.77-28.77Z" transform="translate(-257.82 -518.57)"/><path class="cls-1" d="M405.68,522.57A143.87,143.87,0,1,0,549.55,666.43,143.74,143.74,0,0,0,405.68,522.57Zm0,270.81c-69.39,0-126.94-57.55-126.94-126.94s57.55-126.94,126.94-126.94S532.62,597,532.62,666.43,475.08,793.37,405.68,793.37Z" transform="translate(-257.82 -518.57)"/><circle class="cls-2" cx="147.54" cy="208.3" r="7.44"/></svg>