<svg id="Layer_1" data-name="Layer 1" xmlns="http://www.w3.org/2000/svg" viewBox="0 0 337.36 310.96"><defs><style>.cls-1{fill:none;stroke:#fff;stroke-width:7px;}.cls-1,.cls-2,.cls-3{stroke-miterlimit:10;}.cls-2,.cls-3{fill:#fff;stroke:#ffbe6b;}.cls-3{stroke-width:2px;}</style></defs><title>icon_frauenberatung</title><path class="cls-1" d="M743.3,1330c-91.22,0-165.17,61.82-165.17,138.07,0,43.79,24.39,82.81,62.44,108.11-8.93,32-36.52,55.05-36.52,55.05s56-11.47,74.66-36.06a192.74,192.74,0,0,0,64.6,11c91.22,0,165.18-61.82,165.18-138.07S834.53,1330,743.31,1330Z" transform="translate(-574.63 -1326.5)"/><path class="cls-2" d="M745.27,1369.27A59.7,59.7,0,1,0,805,1429,59.76,59.76,0,0,0,745.27,1369.27Zm0,112.37A52.67,52.67,0,1,1,797.94,1429,52.73,52.73,0,0,1,745.27,1481.64Z" transform="translate(-574.63 -1326.5)"/><path class="cls-3" d="M745.27,1491.47a4.57,4.57,0,0,0-4.57,4.57v63.91a4.57,4.57,0,1,0,9.13,0V1496A4.57,4.57,0,0,0,745.27,1491.47Z" transform="translate(-574.63 -1326.5)"/><path class="cls-3" d="M772.66,1528H717.88a4.57,4.57,0,1,0,0,9.13h54.78a4.57,4.57,0,1,0,0-9.13Z" transform="translate(-574.63 -1326.5)"/></svg>