<?xml version="1.0" encoding="utf-8"?>
<!-- Generator: Adobe Illustrator 21.0.0, SVG Export Plug-In . SVG Version: 6.00 Build 0)  -->
<svg version="1.1" id="Layer_1" xmlns="http://www.w3.org/2000/svg" xmlns:xlink="http://www.w3.org/1999/xlink" x="0px" y="0px"
	 viewBox="0 0 413.5 147" style="enable-background:new 0 0 413.5 147;" xml:space="preserve">
<style type="text/css">
	.st0{opacity:0.8;enable-background:new    ;}
	.st1{fill:#F45B7A;}
	.st2{enable-background:new    ;}
	.st3{fill:#FFFFFF;}
</style>
<title>termin_sichern</title>
<g class="st0">
	<path class="st1" d="M73.5,0H340c40.6,0,73.5,32.9,73.5,73.5l0,0c0,40.6-32.9,73.5-73.5,73.5H73.5C32.9,147,0,114.1,0,73.5l0,0
		C0,32.9,32.9,0,73.5,0z"/>
</g>
<g class="st2">
	<path class="st3" d="M61.2,60.1H48.5v32.8h-3.5V60.1H32.1V57h29.1V60.1z"/>
</g>
<g class="st2">
	<path class="st3" d="M71.8,93.4c-1.9,0-3.7-0.4-5.3-1.1c-1.6-0.7-3-1.7-4.2-3s-2.1-2.7-2.8-4.4c-0.7-1.7-1-3.4-1-5.3
		c0-1.9,0.3-3.6,1-5.2s1.6-3.1,2.7-4.3s2.6-2.2,4.2-2.9c1.6-0.7,3.4-1.1,5.3-1.1c1.9,0,3.7,0.4,5.3,1.1c1.6,0.7,3,1.7,4.1,3
		c1.1,1.2,2,2.7,2.7,4.3c0.6,1.6,1,3.3,1,5.2c0,0.3,0,0.5,0,0.8c0,0.3,0,0.5-0.1,0.6H62.2c0.1,1.4,0.4,2.7,1,3.9
		c0.6,1.2,1.3,2.2,2.1,3.1c0.9,0.9,1.9,1.6,3,2c1.1,0.5,2.3,0.7,3.6,0.7c0.8,0,1.7-0.1,2.5-0.4c0.8-0.2,1.6-0.6,2.3-1
		s1.3-0.9,1.9-1.5c0.6-0.6,1-1.2,1.3-1.9l3,0.8c-0.4,1-1,1.9-1.7,2.7c-0.7,0.8-1.6,1.5-2.6,2.1c-1,0.6-2.1,1-3.2,1.4
		C74.3,93.2,73.1,93.4,71.8,93.4z M81.5,78.3c-0.1-1.4-0.4-2.7-1-3.9c-0.6-1.2-1.3-2.2-2.1-3c-0.9-0.8-1.9-1.5-3-2
		c-1.1-0.5-2.3-0.7-3.6-0.7c-1.3,0-2.5,0.2-3.6,0.7c-1.1,0.5-2.1,1.1-3,2c-0.9,0.8-1.6,1.9-2.1,3c-0.5,1.2-0.8,2.5-0.9,3.8H81.5z"/>
	<path class="st3" d="M103.3,69.6c-2.3,0.1-4.3,0.7-6.1,1.9s-2.9,2.9-3.6,5v16.4h-3.4V66.6h3.2v6.3c1-2,2.3-3.6,3.9-4.8
		c1.7-1.1,3.4-1.7,5.3-1.7c0.3,0,0.5,0,0.7,0.1V69.6z"/>
	<path class="st3" d="M147,92.9h-3.4V78.2c0-3.1-0.5-5.3-1.5-6.8c-1-1.4-2.4-2.2-4.3-2.2c-1,0-2,0.2-2.9,0.6
		c-0.9,0.4-1.7,0.9-2.5,1.6c-0.8,0.7-1.4,1.5-2,2.4c-0.6,0.9-1,1.9-1.3,3.1v16.1h-3.4V78.2c0-3.1-0.5-5.4-1.4-6.8
		c-0.9-1.4-2.4-2.1-4.3-2.1c-2,0-3.8,0.7-5.3,2.1c-1.6,1.4-2.7,3.2-3.3,5.5v16.1h-3.4V66.6h3.1v6c1.1-2,2.5-3.6,4.2-4.7
		c1.8-1.1,3.7-1.7,5.8-1.7c2.2,0,4,0.6,5.3,1.9c1.3,1.2,2.1,2.9,2.5,4.9c2.5-4.5,5.8-6.8,10.2-6.8c1.5,0,2.7,0.3,3.8,0.8
		c1,0.5,1.9,1.3,2.5,2.3c0.6,1,1.1,2.2,1.4,3.6c0.3,1.4,0.4,3,0.4,4.7V92.9z"/>
	<path class="st3" d="M154.3,61V56h3.4V61H154.3z M154.3,92.9V66.6h3.4v26.3H154.3z"/>
	<path class="st3" d="M187.5,92.9H184V78.2c0-3.1-0.5-5.4-1.4-6.8c-0.9-1.4-2.4-2.1-4.3-2.1c-1,0-2,0.2-3,0.6
		c-1,0.4-1.9,0.9-2.8,1.6c-0.9,0.7-1.6,1.5-2.3,2.4c-0.7,0.9-1.2,1.9-1.5,3v16.1h-3.4V66.6h3.1v6c1.1-1.9,2.6-3.5,4.6-4.7
		c2-1.2,4.2-1.8,6.5-1.8c1.4,0,2.7,0.3,3.7,0.8c1,0.5,1.8,1.3,2.4,2.3c0.6,1,1,2.2,1.3,3.6c0.3,1.4,0.4,3,0.4,4.7V92.9z"/>
	<path class="st3" d="M216.4,93.4c-2.1,0-4.1-0.3-6-1c-2-0.7-3.6-1.7-5.1-2.9l1.6-2.3c1.5,1.2,3,2.1,4.5,2.7
		c1.5,0.6,3.2,0.9,4.9,0.9c2.1,0,3.8-0.4,5.1-1.3s1.9-2.1,1.9-3.7c0-0.7-0.2-1.4-0.5-1.8s-0.8-0.9-1.5-1.3c-0.7-0.4-1.5-0.7-2.5-1
		c-1-0.3-2.1-0.6-3.5-0.9c-1.5-0.4-2.8-0.7-3.9-1.1s-2-0.8-2.8-1.3c-0.7-0.5-1.3-1.1-1.6-1.7c-0.4-0.7-0.5-1.6-0.5-2.6
		c0-1.3,0.3-2.5,0.8-3.5c0.5-1,1.2-1.8,2.1-2.5c0.9-0.7,1.9-1.2,3.1-1.5c1.2-0.3,2.5-0.5,3.8-0.5c2,0,3.9,0.3,5.5,1
		c1.7,0.7,3,1.5,4,2.6l-1.7,2c-1-1-2.2-1.8-3.6-2.3c-1.4-0.5-2.9-0.8-4.4-0.8c-0.9,0-1.8,0.1-2.5,0.3c-0.8,0.2-1.5,0.5-2,0.9
		s-1.1,0.9-1.4,1.5c-0.3,0.6-0.5,1.4-0.5,2.2c0,0.7,0.1,1.3,0.4,1.7c0.2,0.4,0.6,0.8,1.2,1.1c0.5,0.3,1.2,0.6,2,0.9
		c0.8,0.3,1.8,0.5,3,0.8c1.7,0.4,3.2,0.8,4.4,1.2c1.3,0.4,2.4,0.9,3.2,1.4s1.5,1.2,1.9,2c0.4,0.8,0.7,1.7,0.7,2.8
		c0,2.4-0.9,4.3-2.8,5.8C222.1,92.7,219.6,93.4,216.4,93.4z"/>
	<path class="st3" d="M232.3,61V56h3.4V61H232.3z M232.3,92.9V66.6h3.4v26.3H232.3z"/>
	<path class="st3" d="M241.5,79.6c0-1.9,0.3-3.6,1-5.3c0.6-1.7,1.5-3.1,2.7-4.3c1.2-1.2,2.6-2.2,4.2-2.9c1.6-0.7,3.4-1.1,5.4-1.1
		c2.5,0,4.7,0.6,6.5,1.7s3.3,2.7,4.2,4.6l-3.3,1.1c-0.7-1.3-1.8-2.4-3.1-3.2c-1.3-0.8-2.8-1.1-4.4-1.1c-1.3,0-2.6,0.3-3.8,0.8
		c-1.2,0.5-2.2,1.3-3,2.2c-0.9,0.9-1.5,2-2,3.3c-0.5,1.3-0.7,2.7-0.7,4.2c0,1.5,0.3,2.9,0.8,4.2c0.5,1.3,1.2,2.5,2.1,3.4
		c0.9,1,1.9,1.7,3.1,2.3c1.2,0.6,2.4,0.8,3.7,0.8c0.8,0,1.7-0.1,2.5-0.4c0.8-0.2,1.6-0.6,2.3-1c0.7-0.4,1.3-0.9,1.8-1.4
		c0.5-0.5,0.9-1.1,1.1-1.7l3.4,1c-0.4,0.9-0.9,1.8-1.6,2.6c-0.7,0.8-1.5,1.5-2.5,2.1c-1,0.6-2,1-3.2,1.4c-1.2,0.3-2.4,0.5-3.6,0.5
		c-1.9,0-3.7-0.4-5.3-1.1c-1.6-0.7-3-1.7-4.2-3s-2.1-2.7-2.8-4.4C241.8,83.3,241.5,81.5,241.5,79.6z"/>
	<path class="st3" d="M293.2,92.9h-3.4V78.2c0-3-0.5-5.2-1.5-6.7c-1-1.5-2.5-2.2-4.5-2.2c-1,0-1.9,0.2-2.9,0.6
		c-1,0.4-1.9,0.9-2.7,1.6c-0.8,0.7-1.6,1.5-2.2,2.4c-0.6,0.9-1.1,1.9-1.4,3v16.1h-3.4V56h3.4v16.5c1-2,2.5-3.6,4.3-4.7
		c1.9-1.1,3.9-1.7,6-1.7c1.5,0,2.8,0.3,3.8,0.8c1,0.6,1.9,1.3,2.6,2.3c0.7,1,1.2,2.2,1.5,3.6c0.3,1.4,0.5,2.9,0.5,4.6V92.9z"/>
	<path class="st3" d="M311.9,93.4c-1.9,0-3.7-0.4-5.3-1.1c-1.6-0.7-3-1.7-4.2-3s-2.1-2.7-2.8-4.4c-0.7-1.7-1-3.4-1-5.3
		c0-1.9,0.3-3.6,1-5.2s1.6-3.1,2.7-4.3c1.2-1.2,2.6-2.2,4.2-2.9c1.6-0.7,3.4-1.1,5.3-1.1c1.9,0,3.7,0.4,5.3,1.1c1.6,0.7,3,1.7,4.1,3
		c1.1,1.2,2,2.7,2.7,4.3c0.6,1.6,1,3.3,1,5.2c0,0.3,0,0.5,0,0.8c0,0.3,0,0.5-0.1,0.6h-22.5c0.1,1.4,0.4,2.7,1,3.9s1.3,2.2,2.1,3.1
		c0.9,0.9,1.9,1.6,3,2c1.1,0.5,2.3,0.7,3.6,0.7c0.8,0,1.7-0.1,2.5-0.4c0.8-0.2,1.6-0.6,2.3-1c0.7-0.4,1.3-0.9,1.9-1.5
		c0.6-0.6,1-1.2,1.3-1.9l3,0.8c-0.4,1-1,1.9-1.7,2.7c-0.7,0.8-1.6,1.5-2.6,2.1c-1,0.6-2.1,1-3.2,1.4
		C314.4,93.2,313.2,93.4,311.9,93.4z M321.6,78.3c-0.1-1.4-0.4-2.7-1-3.9c-0.6-1.2-1.3-2.2-2.1-3c-0.9-0.8-1.9-1.5-3-2
		c-1.1-0.5-2.3-0.7-3.6-0.7c-1.3,0-2.5,0.2-3.6,0.7c-1.1,0.5-2.1,1.1-3,2c-0.9,0.8-1.6,1.9-2.1,3c-0.5,1.2-0.8,2.5-0.9,3.8H321.6z"
		/>
	<path class="st3" d="M343.4,69.6c-2.3,0.1-4.3,0.7-6.1,1.9s-2.9,2.9-3.6,5v16.4h-3.4V66.6h3.2v6.3c1-2,2.3-3.6,3.9-4.8
		c1.7-1.1,3.4-1.7,5.3-1.7c0.3,0,0.5,0,0.7,0.1V69.6z"/>
	<path class="st3" d="M370.1,92.9h-3.4V78.2c0-3.1-0.5-5.4-1.4-6.8s-2.4-2.1-4.3-2.1c-1,0-2,0.2-3,0.6c-1,0.4-1.9,0.9-2.8,1.6
		c-0.9,0.7-1.6,1.5-2.3,2.4c-0.7,0.9-1.2,1.9-1.5,3v16.1H348V66.6h3.1v6c1.1-1.9,2.6-3.5,4.6-4.7c2-1.2,4.2-1.8,6.5-1.8
		c1.4,0,2.7,0.3,3.7,0.8s1.8,1.3,2.4,2.3c0.6,1,1,2.2,1.3,3.6c0.3,1.4,0.4,3,0.4,4.7V92.9z"/>
</g>
</svg>
