<?xml version="1.0" encoding="utf-8"?>
<!-- Generator: Adobe Illustrator 21.0.0, SVG Export Plug-In . SVG Version: 6.00 Build 0)  -->
<svg version="1.1" id="Layer_1" xmlns="http://www.w3.org/2000/svg" xmlns:xlink="http://www.w3.org/1999/xlink" x="0px" y="0px"
	 viewBox="0 0 541.9 177.9" style="enable-background:new 0 0 541.9 177.9;" xml:space="preserve">
<style type="text/css">
	.st0{fill:#FFFFFF;}
	.st1{enable-background:new    ;}
</style>
<title>termin_machen_white</title>
<g>
	<path class="st0" d="M446.4,178H95.5C42.8,178,0,138.9,0,90.9V87C0,39,42.8,0,95.5,0h350.9C499.1,0,541.9,39,541.9,87l0,3.9
		C541.8,138.9,499,178,446.4,178z M95.5,4C45,4,4,41.3,4,87v3.8C4,136.7,45,174,95.5,174h350.9c50.4,0,91.5-37.3,91.5-83.1l0-3.9
		c0-45.8-41-83-91.5-83H95.5z"/>
</g>
<g class="st1">
	<path class="st0" d="M99.9,73H85.5v37h-4V73H67v-3.5h32.9V73z"/>
</g>
<g class="st1">
	<path class="st0" d="M111.5,110.6c-2.2,0-4.2-0.4-6-1.2c-1.8-0.8-3.4-1.9-4.7-3.4c-1.3-1.4-2.4-3.1-3.1-4.9c-0.7-1.9-1.1-3.9-1.1-6
		c0-2.1,0.4-4.1,1.1-5.9c0.7-1.8,1.8-3.5,3.1-4.9c1.3-1.4,2.9-2.5,4.7-3.3c1.8-0.8,3.8-1.2,5.9-1.2c2.2,0,4.2,0.4,6,1.2
		c1.8,0.8,3.4,1.9,4.7,3.3c1.3,1.4,2.3,3,3,4.9c0.7,1.8,1.1,3.8,1.1,5.8c0,0.3,0,0.6,0,0.9s0,0.5-0.1,0.6h-25.5
		c0.1,1.6,0.5,3.1,1.1,4.4s1.4,2.5,2.4,3.5c1,1,2.1,1.8,3.4,2.3c1.3,0.6,2.6,0.8,4.1,0.8c1,0,1.9-0.1,2.9-0.4c1-0.3,1.8-0.6,2.6-1.1
		c0.8-0.5,1.5-1,2.2-1.7c0.6-0.7,1.1-1.4,1.5-2.2l3.4,0.9c-0.5,1.1-1.1,2.1-1.9,3c-0.8,0.9-1.8,1.7-2.9,2.3
		c-1.1,0.7-2.3,1.2-3.7,1.5C114.4,110.4,113,110.6,111.5,110.6z M122.5,93.6c-0.1-1.6-0.5-3.1-1.1-4.4s-1.4-2.4-2.4-3.4
		c-1-1-2.1-1.7-3.4-2.2c-1.3-0.5-2.6-0.8-4.1-0.8c-1.4,0-2.8,0.3-4.1,0.8c-1.3,0.5-2.4,1.3-3.4,2.2c-1,1-1.8,2.1-2.3,3.4
		c-0.6,1.3-0.9,2.8-1.1,4.3H122.5z"/>
	<path class="st0" d="M147,83.7c-2.6,0.1-4.9,0.8-6.9,2.2c-1.9,1.4-3.3,3.3-4.1,5.7V110h-3.9V80.3h3.7v7.1c1.1-2.3,2.6-4.1,4.5-5.4
		c1.9-1.3,3.9-1.9,6-1.9c0.3,0,0.6,0,0.7,0.1V83.7z"/>
	<path class="st0" d="M196.5,110h-3.9V93.4c0-3.5-0.6-6-1.7-7.7c-1.1-1.6-2.7-2.5-4.9-2.5c-1.1,0-2.2,0.2-3.2,0.6
		c-1,0.4-1.9,1-2.8,1.8c-0.9,0.8-1.6,1.7-2.3,2.7c-0.6,1-1.1,2.2-1.5,3.5V110h-3.9V93.4c0-3.5-0.5-6.1-1.6-7.7
		c-1.1-1.6-2.7-2.4-4.9-2.4c-2.2,0-4.2,0.8-6,2.3c-1.8,1.6-3,3.6-3.8,6.2V110h-3.9V80.3h3.5V87c1.2-2.3,2.8-4.1,4.8-5.3
		c2-1.3,4.2-1.9,6.6-1.9c2.5,0,4.5,0.7,6,2.1c1.5,1.4,2.4,3.3,2.8,5.5c2.8-5.1,6.6-7.7,11.5-7.7c1.7,0,3.1,0.3,4.3,0.9
		c1.2,0.6,2.1,1.5,2.8,2.6c0.7,1.1,1.2,2.5,1.5,4.1c0.3,1.6,0.5,3.3,0.5,5.3V110z"/>
	<path class="st0" d="M204.7,74v-5.7h3.9V74H204.7z M204.7,110V80.3h3.9V110H204.7z"/>
	<path class="st0" d="M242.2,110h-3.9V93.4c0-3.5-0.5-6.1-1.6-7.7c-1-1.6-2.7-2.4-4.8-2.4c-1.1,0-2.3,0.2-3.4,0.6s-2.2,1-3.2,1.8
		c-1,0.8-1.8,1.7-2.6,2.7c-0.8,1-1.3,2.2-1.7,3.4V110h-3.9V80.3h3.5V87c1.2-2.2,3-3.9,5.2-5.3c2.3-1.3,4.7-2,7.4-2
		c1.6,0,3,0.3,4.2,0.9c1.1,0.6,2.1,1.5,2.7,2.6s1.2,2.5,1.5,4.1c0.3,1.6,0.5,3.4,0.5,5.3V110z"/>
	<path class="st0" d="M309.3,110h-3.9V93.4c0-3.5-0.6-6-1.7-7.7c-1.1-1.6-2.7-2.5-4.9-2.5c-1.1,0-2.2,0.2-3.2,0.6
		c-1,0.4-1.9,1-2.8,1.8s-1.6,1.7-2.3,2.7c-0.6,1-1.1,2.2-1.5,3.5V110h-3.9V93.4c0-3.5-0.5-6.1-1.6-7.7c-1.1-1.6-2.7-2.4-4.9-2.4
		c-2.2,0-4.2,0.8-6,2.3c-1.8,1.6-3,3.6-3.8,6.2V110h-3.9V80.3h3.5V87c1.2-2.3,2.8-4.1,4.8-5.3c2-1.3,4.2-1.9,6.6-1.9
		c2.5,0,4.5,0.7,6,2.1c1.5,1.4,2.4,3.3,2.8,5.5c2.8-5.1,6.6-7.7,11.5-7.7c1.7,0,3.1,0.3,4.3,0.9c1.2,0.6,2.1,1.5,2.8,2.6
		c0.7,1.1,1.2,2.5,1.5,4.1s0.5,3.3,0.5,5.3V110z"/>
	<path class="st0" d="M325,110.6c-1.4,0-2.7-0.2-3.9-0.7c-1.2-0.5-2.2-1.1-3.1-2c-0.9-0.8-1.6-1.8-2.1-2.9s-0.7-2.3-0.7-3.6
		s0.3-2.5,0.9-3.6c0.6-1.1,1.5-2.1,2.6-2.9c1.1-0.8,2.4-1.4,3.9-1.9c1.5-0.4,3.2-0.7,5-0.7c1.5,0,3.1,0.1,4.6,0.4
		c1.6,0.3,3,0.6,4.2,1.1v-2.7c0-2.6-0.7-4.7-2.2-6.3c-1.5-1.5-3.5-2.3-6.2-2.3c-1.5,0-3.1,0.3-4.7,0.9s-3.2,1.5-4.9,2.6l-1.4-2.6
		c3.8-2.6,7.6-3.9,11.2-3.9c3.7,0,6.7,1,8.8,3.1c2.1,2.1,3.2,5,3.2,8.7V105c0,1.1,0.5,1.6,1.4,1.6v3.4c-0.6,0.1-1.1,0.2-1.5,0.2
		c-1,0-1.8-0.2-2.3-0.7c-0.6-0.5-0.8-1.2-0.9-2.1l-0.1-2.3c-1.4,1.8-3.1,3.2-5.2,4.1C329.7,110.1,327.4,110.6,325,110.6z
		 M325.9,107.6c2,0,3.9-0.4,5.6-1.1c1.7-0.8,3-1.8,3.9-3c0.3-0.3,0.6-0.7,0.8-1.1c0.2-0.4,0.3-0.8,0.3-1.1v-4.9
		c-1.3-0.5-2.6-0.9-4-1.1c-1.4-0.3-2.8-0.4-4.3-0.4c-2.7,0-5,0.6-6.7,1.7s-2.6,2.6-2.6,4.5c0,0.9,0.2,1.8,0.5,2.6
		c0.4,0.8,0.9,1.5,1.5,2.1c0.6,0.6,1.4,1.1,2.3,1.4C324,107.4,325,107.6,325.9,107.6z"/>
	<path class="st0" d="M346.6,95.1c0-2.1,0.4-4.1,1.1-5.9c0.7-1.9,1.7-3.5,3.1-4.9c1.3-1.4,2.9-2.5,4.7-3.3c1.8-0.8,3.8-1.2,6.1-1.2
		c2.8,0,5.3,0.6,7.4,1.9c2.1,1.3,3.7,3,4.7,5.2l-3.8,1.2c-0.8-1.5-2-2.7-3.5-3.6c-1.5-0.9-3.2-1.3-5-1.3c-1.5,0-2.9,0.3-4.3,0.9
		c-1.3,0.6-2.5,1.4-3.4,2.5c-1,1-1.7,2.3-2.3,3.7s-0.8,3-0.8,4.7c0,1.7,0.3,3.3,0.9,4.7c0.6,1.5,1.4,2.8,2.3,3.9
		c1,1.1,2.1,1.9,3.5,2.6c1.3,0.6,2.7,0.9,4.2,0.9c1,0,1.9-0.1,2.8-0.4c0.9-0.3,1.8-0.6,2.6-1.1s1.5-1,2.1-1.6c0.6-0.6,1-1.3,1.2-1.9
		l3.8,1.1c-0.4,1.1-1,2-1.8,2.9c-0.8,0.9-1.7,1.7-2.8,2.3c-1.1,0.7-2.3,1.2-3.6,1.5s-2.7,0.5-4.1,0.5c-2.2,0-4.2-0.4-6-1.2
		c-1.8-0.8-3.4-1.9-4.7-3.4c-1.3-1.4-2.4-3.1-3.1-4.9S346.6,97.2,346.6,95.1z"/>
	<path class="st0" d="M405.1,110h-3.9V93.4c0-3.4-0.6-5.9-1.7-7.6c-1.2-1.7-2.9-2.5-5.1-2.5c-1.1,0-2.2,0.2-3.3,0.7
		c-1.1,0.4-2.1,1-3.1,1.8c-1,0.8-1.8,1.7-2.5,2.7c-0.7,1-1.2,2.2-1.6,3.4V110H380V68.3h3.9V87c1.2-2.2,2.8-4,4.9-5.3
		c2.1-1.3,4.4-1.9,6.8-1.9c1.7,0,3.2,0.3,4.3,0.9s2.2,1.5,2.9,2.6s1.3,2.5,1.7,4.1c0.3,1.6,0.5,3.3,0.5,5.2V110z"/>
	<path class="st0" d="M426.2,110.6c-2.2,0-4.2-0.4-6-1.2s-3.4-1.9-4.7-3.4c-1.3-1.4-2.4-3.1-3.1-4.9s-1.1-3.9-1.1-6
		c0-2.1,0.4-4.1,1.1-5.9s1.8-3.5,3.1-4.9c1.3-1.4,2.9-2.5,4.7-3.3c1.8-0.8,3.8-1.2,5.9-1.2c2.2,0,4.2,0.4,6,1.2
		c1.8,0.8,3.4,1.9,4.7,3.3c1.3,1.4,2.3,3,3,4.9s1.1,3.8,1.1,5.8c0,0.3,0,0.6,0,0.9s0,0.5-0.1,0.6h-25.5c0.1,1.6,0.5,3.1,1.1,4.4
		c0.6,1.4,1.4,2.5,2.4,3.5c1,1,2.1,1.8,3.4,2.3c1.3,0.6,2.6,0.8,4.1,0.8c1,0,1.9-0.1,2.9-0.4c1-0.3,1.8-0.6,2.6-1.1s1.5-1,2.2-1.7
		c0.6-0.7,1.1-1.4,1.5-2.2l3.4,0.9c-0.5,1.1-1.1,2.1-1.9,3c-0.8,0.9-1.8,1.7-2.9,2.3c-1.1,0.7-2.3,1.2-3.7,1.5
		S427.6,110.6,426.2,110.6z M437.2,93.6c-0.1-1.6-0.5-3.1-1.1-4.4c-0.6-1.3-1.4-2.4-2.4-3.4c-1-1-2.1-1.7-3.4-2.2
		c-1.3-0.5-2.6-0.8-4.1-0.8c-1.4,0-2.8,0.3-4.1,0.8c-1.3,0.5-2.4,1.3-3.4,2.2c-1,1-1.8,2.1-2.3,3.4c-0.6,1.3-0.9,2.8-1.1,4.3H437.2z
		"/>
	<path class="st0" d="M471.9,110H468V93.4c0-3.5-0.5-6.1-1.6-7.7c-1-1.6-2.7-2.4-4.8-2.4c-1.1,0-2.3,0.2-3.4,0.6s-2.2,1-3.2,1.8
		c-1,0.8-1.8,1.7-2.6,2.7c-0.8,1-1.3,2.2-1.7,3.4V110h-3.9V80.3h3.5V87c1.2-2.2,3-3.9,5.2-5.3c2.3-1.3,4.7-2,7.4-2
		c1.6,0,3,0.3,4.2,0.9c1.1,0.6,2.1,1.5,2.7,2.6s1.2,2.5,1.5,4.1c0.3,1.6,0.5,3.4,0.5,5.3V110z"/>
</g>
</svg>
