<?xml version="1.0" encoding="utf-8"?>
<!-- Generator: Adobe Illustrator 21.0.0, SVG Export Plug-In . SVG Version: 6.00 Build 0)  -->
<svg version="1.1" id="Layer_1" xmlns="http://www.w3.org/2000/svg" xmlns:xlink="http://www.w3.org/1999/xlink" x="0px" y="0px"
	 viewBox="0 0 371.2 117.5" style="enable-background:new 0 0 371.2 117.5;" xml:space="preserve">
<style type="text/css">
	.st0{opacity:0.76;}
	.st1{fill:#00B7BA;}
	.st2{opacity:0.91;fill:url(#SVGID_1_);}
	.st3{fill:url(#SVGID_2_);}
	.st4{fill:url(#SVGID_3_);}
	.st5{opacity:0.82;}
	.st6{fill:url(#SVGID_4_);}
	.st7{fill:url(#SVGID_5_);}
</style>
<title>mavie_logo-top</title>
<g class="st0">
	<path class="st1" d="M251.2,48.8h9.2v39.5h-9.2v-4.1c-3.8,3.5-7.8,5.3-12.1,5.3c-5.5,0-10-2-13.5-5.9c-3.5-4-5.3-9-5.3-15.1
		c0-5.9,1.8-10.8,5.3-14.8c3.5-3.9,8-5.9,13.3-5.9c4.6,0,8.7,1.9,12.4,5.7V48.8z M229.6,68.4c0,3.8,1,6.9,3,9.2
		c2.1,2.4,4.7,3.6,7.9,3.6c3.4,0,6.1-1.2,8.2-3.5c2.1-2.4,3.1-5.5,3.1-9.2c0-3.7-1-6.8-3.1-9.2c-2.1-2.3-4.8-3.5-8.1-3.5
		c-3.1,0-5.8,1.2-7.9,3.6C230.6,61.9,229.6,64.9,229.6,68.4z"/>
	<path class="st1" d="M277.5,48.8L287.7,71l10.2-22.2h10.2L287.6,91l-20.3-42.2H277.5z"/>
	<path class="st1" d="M312.9,32.4c0-1.6,0.6-3,1.7-4.1c1.2-1.2,2.6-1.7,4.2-1.7c1.6,0,3.1,0.6,4.2,1.7c1.2,1.1,1.7,2.5,1.7,4.2
		c0,1.6-0.6,3.1-1.7,4.2c-1.1,1.2-2.5,1.7-4.2,1.7c-1.6,0-3.1-0.6-4.2-1.7C313.5,35.5,312.9,34.1,312.9,32.4z M323.4,48.8v39.5h-9.1
		V48.8H323.4z"/>
	<path class="st1" d="M370.9,70.7h-28.3c0.2,3.2,1.3,5.8,3.2,7.7c1.9,1.9,4.3,2.8,7.2,2.8c2.3,0,4.1-0.5,5.6-1.6
		c1.5-1.1,3.1-3.1,5-6l7.7,4.3c-1.2,2-2.4,3.8-3.8,5.2c-1.3,1.4-2.7,2.6-4.3,3.6c-1.5,0.9-3.1,1.6-4.9,2c-1.8,0.4-3.7,0.6-5.7,0.6
		c-5.9,0-10.6-1.9-14.2-5.7c-3.6-3.8-5.3-8.9-5.3-15.1c0-6.2,1.7-11.3,5.2-15.1c3.5-3.8,8.1-5.7,13.9-5.7c5.8,0,10.4,1.8,13.8,5.5
		c3.3,3.7,5,8.8,5,15.3L370.9,70.7z M361.5,63.2c-1.3-4.9-4.3-7.3-9.2-7.3c-1.1,0-2.1,0.2-3.1,0.5c-1,0.3-1.9,0.8-2.7,1.5
		c-0.8,0.6-1.5,1.4-2,2.3c-0.6,0.9-1,1.9-1.3,3H361.5z"/>
	<path class="st1" d="M205.3,29.4h8v60h-8.6V42.7l-18.4,23.2h-1.6L166,42.7v46.7h-8.6v-60h8.1L185.5,54L205.3,29.4z"/>
</g>
<g>
	
		<linearGradient id="SVGID_1_" gradientUnits="userSpaceOnUse" x1="14219.7578" y1="74.5875" x2="14286.7129" y2="35.9311" gradientTransform="matrix(-1 0 0 1 14342.6348 0)">
		<stop  offset="0" style="stop-color:#00B7BA"/>
		<stop  offset="0.4022" style="stop-color:#00B5B8"/>
		<stop  offset="0.5628" style="stop-color:#00AEB3"/>
		<stop  offset="0.6801" style="stop-color:#00A2A9"/>
		<stop  offset="0.7765" style="stop-color:#00909A"/>
		<stop  offset="0.86" style="stop-color:#007A88"/>
		<stop  offset="0.9333" style="stop-color:#005E72"/>
		<stop  offset="1" style="stop-color:#003E57"/>
	</linearGradient>
	<path class="st2" d="M60.6,37.5c40.5-4,38.8,19.5,30.7,41.5c-0.1,0.2-0.2,0.5-0.3,0.7c-6.9,18.2-19.3,34.1-20.6,37.2
		c-0.2,0.4-0.2,0.6,0,0.6c0.1,0,0.2,0,0.3,0c6.5-0.7,42-24.3,61.3-58.6c0,0,0,0,0,0c9.8-17.4,13.7-35.7,1.8-49.4
		C105.6-23.1,41.3,39.4,60.6,37.5z"/>
	
		<linearGradient id="SVGID_2_" gradientUnits="userSpaceOnUse" x1="14201.5264" y1="58.75" x2="14285.5859" y2="58.75" gradientTransform="matrix(-1 0 0 1 14342.6348 0)">
		<stop  offset="0" style="stop-color:#00C6C9"/>
		<stop  offset="0.1771" style="stop-color:#00C2C6"/>
		<stop  offset="0.3427" style="stop-color:#00B7BC"/>
		<stop  offset="0.5038" style="stop-color:#00A4AB"/>
		<stop  offset="0.662" style="stop-color:#008994"/>
		<stop  offset="0.8183" style="stop-color:#006776"/>
		<stop  offset="0.971" style="stop-color:#003E52"/>
		<stop  offset="1" style="stop-color:#00354A"/>
	</linearGradient>
	<path class="st3" d="M60.6,37.5c40.5-4,38.8,19.5,30.7,41.5c-0.1,0.2-0.2,0.5-0.3,0.7c-6.9,18.2-19.3,34.1-20.6,37.2
		c-0.2,0.4-0.2,0.6,0,0.6c0.1,0,0.2,0,0.3,0c6.5-0.7,42-24.3,61.3-58.6c0,0,0,0,0,0c9.8-17.4,13.7-35.7,1.8-49.4
		C105.6-23.1,41.3,39.4,60.6,37.5z"/>
	<linearGradient id="SVGID_3_" gradientUnits="userSpaceOnUse" x1="-1.606047e-02" y1="58.75" x2="84.0438" y2="58.75">
		<stop  offset="0" style="stop-color:#F45B7A"/>
		<stop  offset="0.1787" style="stop-color:#EE5876"/>
		<stop  offset="0.419" style="stop-color:#DD4F6B"/>
		<stop  offset="0.6943" style="stop-color:#C14058"/>
		<stop  offset="0.9937" style="stop-color:#9A2B3F"/>
		<stop  offset="1" style="stop-color:#992B3E"/>
	</linearGradient>
	<path class="st4" d="M70.7,117.5c-0.1,0-0.2,0-0.3,0c-6.5-0.7-42-24.3-61.3-58.6c0,0,0,0,0,0C-0.6,41.4-4.5,23.2,7.4,9.4
		c28.2-32.5,92.4,30,73.1,28.1C40,33.5,41.7,57,49.8,79c0.1,0.2,0.2,0.5,0.3,0.7"/>
	<g class="st5">
		<radialGradient id="SVGID_4_" cx="70.5463" cy="88.1734" r="48.1141" gradientUnits="userSpaceOnUse">
			<stop  offset="0" style="stop-color:#FEB952"/>
			<stop  offset="0.5353" style="stop-color:#FCB851"/>
			<stop  offset="0.7282" style="stop-color:#F5B34F"/>
			<stop  offset="0.8651" style="stop-color:#EAAA4B"/>
			<stop  offset="0.9756" style="stop-color:#D99E46"/>
			<stop  offset="1" style="stop-color:#D49A44"/>
		</radialGradient>
		<path class="st6" d="M70.3,88c-5.5-0.9-12.6-4.8-20.2-8.2c-17.3-8-36.7-18.2-40.9-20.9c0,0,0,0,0,0c19.2,34.2,54.6,57.8,61.2,58.6
			v0c0.1,0,0.1,0,0.2,0c0.1,0,0.2,0,0.2,0c6.7-0.8,42-24.4,61.2-58.6c0,0,0,0,0,0c-4.3,2.7-23.7,12.9-40.9,20.9
			C83.4,83.2,70.5,88,70.3,88z"/>
		<radialGradient id="SVGID_5_" cx="69.5038" cy="117.8831" r="32.0347" gradientUnits="userSpaceOnUse">
			<stop  offset="0" style="stop-color:#B38239"/>
			<stop  offset="0.1178" style="stop-color:#B8863B;stop-opacity:0.8822"/>
			<stop  offset="0.4875" style="stop-color:#C18D3E;stop-opacity:0.5125"/>
			<stop  offset="1" style="stop-color:#C48F3F;stop-opacity:0"/>
		</radialGradient>
		<path class="st7" d="M70.3,88c-5.5-0.9-12.6-4.8-20.2-8.2c-17.3-8-36.7-18.2-40.9-20.9c0,0,0,0,0,0c19.2,34.2,54.6,57.8,61.2,58.6
			v0c0.1,0,0.1,0,0.2,0c0.1,0,0.2,0,0.2,0c6.7-0.8,42-24.4,61.2-58.6c0,0,0,0,0,0c-4.3,2.7-23.7,12.9-40.9,20.9
			C83.4,83.2,70.5,88,70.3,88z"/>
	</g>
</g>
</svg>
