<svg id="Layer_1" data-name="Layer 1" xmlns="http://www.w3.org/2000/svg" viewBox="0 0 330.9 330.9"><defs><style>.cls-1{fill:#fea940;opacity:0.74;}.cls-2{fill:#b3b3b3;}.cls-3{fill:#f0ba7d;}.cls-4{fill:#fed298;}.cls-5{fill:#008e8e;}.cls-13,.cls-6{fill:#00b7ba;}.cls-7{fill:#fff;}.cls-8{fill:#eef3f7;}.cls-9{fill:#1a1a1a;}.cls-10{fill:#107077;}.cls-11{fill:#534741;}.cls-12{fill:#f45b7a;opacity:0.81;}.cls-13{opacity:0.68;}.cls-14{fill:#fefefe;}</style></defs><title>img_psy</title><circle class="cls-1" cx="165.45" cy="165.45" r="165.45"/><path class="cls-2" d="M912.76,1251.35H946.7l.19,2.32-16.59,25.14-17.82-25.39.28-2.07Z" transform="translate(-830.05 -1023.05)"/><path class="cls-3" d="M913,1245l-.29,14.18-24.06,13.16v42.4q3.56,3,7.28,5.83h73.73v-48.23l-22.36-13.9L946,1244.3Z" transform="translate(-830.05 -1023.05)"/><path class="cls-4" d="M901.86,1203.68s-1.38-3-5.08-1.53.17,16.48,1.58,18.57,3.69.76,4.52.68c1.18,8.93,1.28,15.09,4.86,18.85,3.39,3.57,11.14,10.83,15.22,13.37a22.79,22.79,0,0,0,13.54,0c4.08-2.53,11.84-9.8,15.22-13.37,3.58-3.77,3.68-9.92,4.86-18.85.83.08,3.11,1.41,4.52-.68s5.29-17.07,1.58-18.57-5.09,1.53-5.09,1.53a32.12,32.12,0,0,0-2.85-23.34c-4.46-7.94-14.63-12.05-25-12.36-10.39.3-20.57,4.42-25,12.36A32.13,32.13,0,0,0,901.86,1203.68Z" transform="translate(-830.05 -1023.05)"/><path class="cls-5" d="M900.88,1263.4l5.76-2.27,4.64-4.17,16.4,12.44h4.08l16.4-12.45,10.41,6.46,18.08,30.73-10.55,57.21a165,165,0,0,1-85-43.36l-3.82-11.41Z" transform="translate(-830.05 -1023.05)"/><path class="cls-6" d="M953.32,1259.51l-6.62-8.16-14.93,18,12.81,14.24,8.73-24.11h0Z" transform="translate(-830.05 -1023.05)"/><path class="cls-6" d="M906.13,1259.37l6.63-8,14.93,18-13.32,14.09Z" transform="translate(-830.05 -1023.05)"/><path class="cls-7" d="M906.13,1259.37l-43.87,14.27a5,5,0,0,0-3.27,3.94l-.68,3.44A166.16,166.16,0,0,0,923,1337.28l-16.91-77.9h0Z" transform="translate(-830.05 -1023.05)"/><path class="cls-8" d="M906.13,1259.37l-5,1.54-13.31,22.72,16.81.53L894.28,1290l19.15,42.16q4.71,2.7,9.62,5.09l-16.91-77.9Z" transform="translate(-830.05 -1023.05)"/><path class="cls-8" d="M953.32,1259.51l43.89,14.12a4.93,4.93,0,0,1,3.27,3.94l14.71,75.21A166.87,166.87,0,0,1,995.5,1354c-5,0-9.92-.23-14.79-.66l-3.16-10.71a.51.51,0,0,0-1,.12l-.38,10.12a164.44,164.44,0,0,1-40.91-10.19l18.06-83.12Z" transform="translate(-830.05 -1023.05)"/><path class="cls-7" d="M953.32,1259.51l2.79.85,15.55,23.41-16.81.53,10.32,5.87-24.74,54.38c-1.74-.61-3.46-1.25-5.17-1.92l18.06-83.12h0Z" transform="translate(-830.05 -1023.05)"/><path class="cls-9" d="M954.41,1207.19l2.58-.09.83-2.94,2.43-2.43c1.61-12.1,2.08-30.92-9.92-30.38,0,0-1.08-13.73-22.74-11s-31.44,16.67-30.27,28.33.7,13.08.7,13.08l2.43,2.43.37,3.35,2.12-.14a53.6,53.6,0,0,1,1.33-6.46,21.89,21.89,0,0,0,.46-6s25.58,1.63,32.49-7.16c4.27-5.43,14.07-14.84,14.57-1.81.15,3.86-1.29,9.65,1.46,13.87s1.17,7.35,1.17,7.35Z" transform="translate(-830.05 -1023.05)"/><path class="cls-10" d="M935.26,1342.64l1.39-6.38-4.7-62.73,2.56-1.09-2.74-3h-4.08l-2.81,3,2.63,1.16-4.58,63.24.11.51q6,2.92,12.21,5.36h0Z" transform="translate(-830.05 -1023.05)"/><path class="cls-3" d="M1062,1245.56l-3.31,16.66-11.11,3.82,4.93,77.82a165.18,165.18,0,0,0,44.84-25l1-54.79-7.09-2.23-3.61-17-25.67.71Z" transform="translate(-830.05 -1023.05)"/><path class="cls-6" d="M1045.1,1295c18.49,9,37.5,10.84,57.52.51l-.17,19.26a165.23,165.23,0,0,1-57.81,31.81l.45-51.57Z" transform="translate(-830.05 -1023.05)"/><path class="cls-8" d="M1094.9,1263.11l32.2,8.78a32.93,32.93,0,0,1,8.85,4.09,166.29,166.29,0,0,1-59.3,56.73l18.26-69.6h0Z" transform="translate(-830.05 -1023.05)"/><path class="cls-7" d="M1094.59,1262.88l4.24,1.71,14.47,21.73-17-.27,10.52,5.63-24.13,37.43q-3,1.88-6.14,3.63l18-69.86h0Z" transform="translate(-830.05 -1023.05)"/><path class="cls-7" d="M1057.22,1262.78l-32.36,8.22c-8.4,2.43-15.94,7.24-16.34,16.1l-3,66.54a165.32,165.32,0,0,0,24.65-3.34l1.53-20.57,2.48,19.66a164.39,164.39,0,0,0,38.25-14.4Z" transform="translate(-830.05 -1023.05)"/><path class="cls-8" d="M1057.53,1262.55l-5.06,1.94-14.07,21.17,17,0-10.62,5.44,25.62,44.94c.71-.36,1.42-.73,2.12-1.11Z" transform="translate(-830.05 -1023.05)"/><path class="cls-4" d="M1040.14,1205.62c-.54,5.46.55,17.58,7.17,17.12,0,0,9.53,27.77,27.88,30.92,15.84-2.9,25.47-28,26.21-30.44,2.18.75,8.29-9.41,3.61-17.72-1.34-2.38-5.14-.45-5.14-.45l-.29-6.94c-25,2.43-40.64-21.78-40.64-21.78-9.54,10.38-11.84,16.3-12.86,29.21a8.48,8.48,0,0,0-3.78-1.16A3.72,3.72,0,0,0,1040.14,1205.62Z" transform="translate(-830.05 -1023.05)"/><path class="cls-11" d="M1058.73,1262.21l3.24-16.28c-9.39-9.25-14.29-23.2-14.29-23.2-6.4.71-9-16.92-4.66-17.54a6.26,6.26,0,0,1,3.29.34c1-13.63,3.6-17.78,12.63-29.21,0,0,15.78,26.55,40.79,24.12l.36,5.72c1.18-1.16,3.34-2.25,5.14.71,2.93,4.82-.9,15.77-4.45,16.44-.5,1.69-4.45,14.15-12.82,22.69l3.37,15.85c9.38,3,18.43,5.39,27.52,7.8-4.61-28.13-7.26-58.57-12.77-84.55-5.29-24.93-34.19-31.91-50.81-20.83,0,0-14.33,5.78-16.95,24.93s-1.61,21-1.61,21l-4.62,59c8.56-2.17,18.48-4.14,26.64-6.95Z" transform="translate(-830.05 -1023.05)"/><path class="cls-12" d="M922.26,1057.41h83.31a9.35,9.35,0,0,1,9.33,9.33v54.83a9.35,9.35,0,0,1-9.33,9.33H938.29c-4.07,8.27-23.74,12.1-23.74,12.1a38.87,38.87,0,0,0,9.61-12.1h-1.9a9.35,9.35,0,0,1-9.33-9.33v-54.83A9.35,9.35,0,0,1,922.26,1057.41Z" transform="translate(-830.05 -1023.05)"/><path class="cls-13" d="M1028.28,1065.28c27.68,0,50.12,17.86,50.12,39.89,0,12.65-7.4,23.92-18.95,31.23,2.71,9.25,11.08,15.9,11.08,15.9s-17-3.31-22.65-10.42a61.15,61.15,0,0,1-19.6,3.17c-27.68,0-50.12-17.86-50.12-39.89s22.44-39.89,50.12-39.89Z" transform="translate(-830.05 -1023.05)"/><path class="cls-14" d="M922.08,1070.62h58.39v3.6H922.08Zm0,22.71h42.71v3.6H922.08Zm0-11.35h58.39v3.6H922.08Z" transform="translate(-830.05 -1023.05)"/><path class="cls-14" d="M1001.19,1092.51h58.39v3.6h-58.39v-3.6Zm0,22.71h42.71v3.6h-42.71Zm0-11.36h58.39v3.6h-58.39v-3.6Z" transform="translate(-830.05 -1023.05)"/></svg>