<svg id="Layer_1" data-name="Layer 1" xmlns="http://www.w3.org/2000/svg" viewBox="0 0 126.91 104.56"><defs><style>.cls-1{fill:#44d3d6;}</style></defs><title>loudspeaker_blue</title><path class="cls-1" d="M1030.9,273.08l-40.66,28.61H976.6a11,11,0,0,0-11,11v24.79a11,11,0,0,0,11,11h13.64L1030.89,377a1.77,1.77,0,0,0,2.79-1.44V274.52A1.83,1.83,0,0,0,1030.9,273.08ZM989,344.86H976.6a7.43,7.43,0,0,1-7.42-7.42V312.65a7.43,7.43,0,0,1,7.42-7.42H989Zm41.17,27.31-37.63-26.46V304.39l37.63-26.47Z" transform="translate(-965.64 -272.79)"/><path class="cls-1" d="M1053.66,296.56a1.61,1.61,0,0,0-1.1-.41,1.84,1.84,0,0,0-1.34.58,1.77,1.77,0,0,0,0,2.4,36.81,36.81,0,0,1-.07,51.9,1.77,1.77,0,0,0,2.55,2.46A40.41,40.41,0,0,0,1053.66,296.56Z" transform="translate(-965.64 -272.79)"/><path class="cls-1" d="M1073.47,278.78a1.77,1.77,0,0,0-1.26-.52h0a1.74,1.74,0,0,0-1.24.51,1.78,1.78,0,0,0,0,2.51,62.05,62.05,0,0,1,0,87.53,1.72,1.72,0,0,0-.41,1.2,1.75,1.75,0,0,0,.56,1.23,1.77,1.77,0,0,0,2.41,0l.35-.33A65.63,65.63,0,0,0,1073.47,278.78Z" transform="translate(-965.64 -272.79)"/></svg>