<svg id="Layer_1" data-name="Layer 1" xmlns="http://www.w3.org/2000/svg" viewBox="0 0 91.61 90.93"><defs><style>.cls-1{fill:#44d3d6;}</style></defs><title>arrow_back</title><path class="cls-1" d="M516,721.77a1.75,1.75,0,0,1-1.24-.51l-43.44-43.31a1.76,1.76,0,0,1,0-2.49l43.44-43.36a1.76,1.76,0,0,1,2.48,2.49l-38.61,38.61a1,1,0,0,0,.71,1.72h80.56a1.76,1.76,0,0,1,0,3.52H479.39a1,1,0,0,0-.71,1.72l38.61,38.61a1.76,1.76,0,0,1-1.24,3Z" transform="translate(-470.47 -631.21)"/><path class="cls-1" d="M516,632a1.38,1.38,0,0,1,1,2.36l-38.61,38.61a1.38,1.38,0,0,0,1,2.36h80.56a1.38,1.38,0,0,1,1.38,1.38h0a1.38,1.38,0,0,1-1.38,1.38H479.39a1.38,1.38,0,0,0-1,2.36L517,719a1.38,1.38,0,0,1,0,2h0a1.38,1.38,0,0,1-2,0l-43.44-43.31a1.38,1.38,0,0,1,0-2l43.44-43.36a1.38,1.38,0,0,1,1-.4m0-.75a2.12,2.12,0,0,0-1.51.62l-43.44,43.36a2.13,2.13,0,0,0,0,3l43.44,43.31a2.13,2.13,0,0,0,3-3l-38.61-38.61a.63.63,0,0,1,.45-1.08h80.56a2.14,2.14,0,0,0,0-4.27H479.39a.63.63,0,0,1-.45-1.08l38.61-38.61a2.13,2.13,0,0,0-1.51-3.64Z" transform="translate(-470.47 -631.21)"/></svg>